<svg xmlns="http://www.w3.org/2000/svg" width="83.229" height="76.117" viewBox="0 0 83.229 76.117"><g transform="translate(-288.686 -643.344)"><path d="M349.88,688.261v26.2a4,4,0,0,1-4,4H293.686a4,4,0,0,1-4-4V648.344a4,4,0,0,1,4-4H345.88a4,4,0,0,1,4,4v24.047" fill="none" stroke="#666" stroke-linecap="round" stroke-linejoin="round" stroke-width="2"/><rect width="11.222" height="42.815" transform="translate(356.474 665.798) rotate(45)" fill="none" stroke="#666" stroke-linecap="round" stroke-linejoin="round" stroke-width="2"/><path d="M4,0H7.222a4,4,0,0,1,4,4V8.615a0,0,0,0,1,0,0H0a0,0,0,0,1,0,0V4A4,4,0,0,1,4,0Z" transform="translate(362.565 659.706) rotate(45)" fill="none" stroke="#666" stroke-linecap="round" stroke-linejoin="round" stroke-width="2"/><path d="M323.015,707.191l11.077-3.225-7.852-7.852Z" fill="none" stroke="#666" stroke-linecap="round" stroke-linejoin="round" stroke-width="2"/><line x2="24.454" transform="translate(313.438 667.336)" fill="none" stroke="#666" stroke-linecap="round" stroke-linejoin="round" stroke-width="2"/><line x2="1.977" transform="translate(302.538 667.336)" fill="none" stroke="#666" stroke-linecap="round" stroke-linejoin="round" stroke-width="2"/><line x2="24.454" transform="translate(313.438 676.547)" fill="none" stroke="#666" stroke-linecap="round" stroke-linejoin="round" stroke-width="2"/><line x2="4.732" transform="translate(313.438 707.191)" fill="none" stroke="#666" stroke-linecap="round" stroke-linejoin="round" stroke-width="2"/><line x2="1.977" transform="translate(302.538 676.547)" fill="none" stroke="#666" stroke-linecap="round" stroke-linejoin="round" stroke-width="2"/><line x2="24.454" transform="translate(313.438 658.124)" fill="none" stroke="#666" stroke-linecap="round" stroke-linejoin="round" stroke-width="2"/><path d="M299.464,656.825l2.585,2.585,5.542-5.542" fill="none" stroke="#666" stroke-linecap="round" stroke-linejoin="round" stroke-width="2"/></g></svg>