<svg xmlns="http://www.w3.org/2000/svg" width="29.7" height="33.46" viewBox="0 0 29.7 33.46"><g transform="translate(-1062.283 -973.39)" opacity="0.7"><path d="M642.633,962.5h21v15.541A1.835,1.835,0,0,1,661.954,980H644.311a1.835,1.835,0,0,1-1.678-1.959Z" transform="translate(424 26)" fill="none" stroke="#fff" stroke-linecap="round" stroke-linejoin="round" stroke-width="1.7"/><path d="M640.171,948.5a1.993,1.993,0,0,1,0,3.5,1.994,1.994,0,0,0,0,3.5" transform="translate(424 26)" fill="none" stroke="#fff" stroke-linecap="round" stroke-linejoin="round" stroke-width="1.7"/><path d="M645.094,948.5a1.993,1.993,0,0,1,0,3.5,1.994,1.994,0,0,0,0,3.5" transform="translate(424 26)" fill="none" stroke="#fff" stroke-linecap="round" stroke-linejoin="round" stroke-width="1.7"/><rect width="24.5" height="3.5" transform="translate(1064.883 985)" fill="none" stroke="#fff" stroke-linecap="round" stroke-linejoin="round" stroke-width="1.7"/><rect width="7" height="3.5" transform="translate(1073.633 981.5)" fill="none" stroke="#fff" stroke-linecap="round" stroke-linejoin="round" stroke-width="1.7"/><path d="M667.133,967.75h0a1.751,1.751,0,0,0-1.75-1.75h-1.75v3.5h1.75A1.75,1.75,0,0,0,667.133,967.75Z" transform="translate(424 26)" fill="none" stroke="#fff" stroke-linecap="round" stroke-linejoin="round" stroke-width="1.7"/><path d="M639.133,967.75h0a1.75,1.75,0,0,0,1.75,1.75h1.75V966h-1.75A1.749,1.749,0,0,0,639.133,967.75Z" transform="translate(424 26)" fill="none" stroke="#fff" stroke-linecap="round" stroke-linejoin="round" stroke-width="1.7"/></g></svg>