<svg xmlns="http://www.w3.org/2000/svg" width="43.614" height="34.535" viewBox="0 0 43.614 34.535"><g transform="translate(0.662 0.849)"><g transform="translate(10.319 0)"><path d="M2165.4,531.69a2.038,2.038,0,0,1,0,3.577,2.038,2.038,0,0,0,0,3.578" transform="translate(-2154.632 -531.69)" fill="none" stroke="#666" stroke-linecap="round" stroke-linejoin="round" stroke-width="1.3"/><path d="M2157.063,531.69a2.037,2.037,0,0,1,0,3.577,2.038,2.038,0,0,0,0,3.578" transform="translate(-2151.11 -531.69)" fill="none" stroke="#666" stroke-linecap="round" stroke-linejoin="round" stroke-width="1.3"/><path d="M2148.594,531.69a2.038,2.038,0,0,1,0,3.577,2.038,2.038,0,0,0,0,3.578" transform="translate(-2147.532 -531.69)" fill="none" stroke="#666" stroke-linecap="round" stroke-linejoin="round" stroke-width="1.3"/></g><g transform="translate(21.855 4.765)"><ellipse cx="5.888" cy="8.379" rx="5.888" ry="8.379" transform="translate(0 8.327) rotate(-45)" stroke-width="1.3" stroke="#666" stroke-linecap="round" stroke-linejoin="round" fill="none"/><path d="M2174.716,547.024a5.123,5.123,0,0,1,5.925,5.926,5.123,5.123,0,0,0,5.924,5.925" transform="translate(-2170.552 -542.861)" fill="none" stroke="#666" stroke-linecap="round" stroke-linejoin="round" stroke-width="1.3"/></g><g transform="translate(8.534 12.589)"><ellipse cx="5.888" cy="8.379" rx="5.888" ry="8.379" transform="translate(0 8.327) rotate(-45)" stroke-width="1.3" stroke="#666" stroke-linecap="round" stroke-linejoin="round" fill="none"/><path d="M2151.652,560.572a5.124,5.124,0,0,1,5.925,5.925,5.123,5.123,0,0,0,5.924,5.926" transform="translate(-2147.488 -556.409)" fill="none" stroke="#666" stroke-linecap="round" stroke-linejoin="round" stroke-width="1.3"/></g><g transform="translate(0 11.867)"><path d="M2142.718,565.516c-2.333,2.162-6.755,1.346-9.974-1.872-3.272-3.273-4.06-7.789-1.761-10.089s6.816-1.511,10.088,1.762a11.749,11.749,0,0,1,1.367,1.636" transform="translate(-2129.666 -552.238)" fill="none" stroke="#666" stroke-linecap="round" stroke-linejoin="round" stroke-width="1.3"/><path d="M2131.947,554.394a5.123,5.123,0,0,1,5.924,5.925,4.557,4.557,0,0,0,1.424,4.5,4.646,4.646,0,0,0,4.345,1.475" transform="translate(-2130.63 -553.077)" fill="none" stroke="#666" stroke-linecap="round" stroke-linejoin="round" stroke-width="1.3"/></g></g></svg>