<svg xmlns="http://www.w3.org/2000/svg" width="35.644" height="36.413" viewBox="0 0 35.644 36.413"><g transform="translate(0.687 0.65)"><path d="M2434.716,525.234v9.336a2.311,2.311,0,0,0,.28,1.1l2.279,4.2h12.75l2.279-4.2a2.312,2.312,0,0,0,.281-1.1v-9.336Z" transform="translate(-2430.934 -525.234)" fill="none" stroke="#666" stroke-linecap="round" stroke-linejoin="round" stroke-width="1.3"/><line x1="17.869" transform="translate(3.781 9.156)" stroke-width="1.3" stroke="#666" stroke-linecap="round" stroke-linejoin="round" fill="none"/><path d="M2433.176,554.925h-2.663a.921.921,0,0,0-.815.614,15.561,15.561,0,0,0-1.529,6.139" transform="translate(-2428.169 -537.777)" fill="none" stroke="#666" stroke-linecap="round" stroke-linejoin="round" stroke-width="1.3"/><path d="M2447.621,577.854h-10.595a2.31,2.31,0,0,0-2.31,2.31v2.412h17.869" transform="translate(-2430.934 -547.463)" fill="none" stroke="#666" stroke-linecap="round" stroke-linejoin="round" stroke-width="1.3"/><g transform="translate(18.668 13.157)"><circle cx="7.819" cy="7.819" r="7.819" transform="translate(0 4.249)" fill="none" stroke="#666" stroke-linecap="round" stroke-linejoin="round" stroke-width="1.3"/><rect width="4.196" height="2.006" transform="translate(5.722)" stroke-width="1.3" stroke="#666" stroke-linecap="round" stroke-linejoin="round" fill="none"/><line y1="4.908" transform="translate(7.819 7.16)" stroke-width="1.3" stroke="#666" stroke-linecap="round" stroke-linejoin="round" fill="none"/><line x2="3.151" transform="translate(4.669 12.068)" stroke-width="1.3" stroke="#666" stroke-linecap="round" stroke-linejoin="round" fill="none"/><line y1="2.243" transform="translate(7.819 2.006)" stroke-width="1.3" stroke="#666" stroke-linecap="round" stroke-linejoin="round" fill="none"/></g><path d="M2450.882,552.488l-.857-1.911h-12.75l-1.722,3.838a9.8,9.8,0,0,0-.837,3.992v5.615a2.309,2.309,0,0,0,2.31,2.308" transform="translate(-2430.934 -535.94)" fill="none" stroke="#666" stroke-linecap="round" stroke-linejoin="round" stroke-width="1.3"/></g></svg>