<svg xmlns="http://www.w3.org/2000/svg" width="29.398" height="36.421" viewBox="0 0 29.398 36.421"><g transform="translate(0.65 0.65)"><path d="M2536.955,525.234v5.152a1.277,1.277,0,0,0,.155.609l1.257,2.316h7.035l1.257-2.316a1.271,1.271,0,0,0,.155-.609v-5.152Z" transform="translate(-2528.119 -525.234)" fill="none" stroke="#666" stroke-linecap="round" stroke-linejoin="round" stroke-width="1.3"/><path d="M2545.4,539.218h-7.035l-.95,2.118a5.409,5.409,0,0,0-.462,2.2v3.1a1.274,1.274,0,0,0,1.275,1.274h7.31a1.274,1.274,0,0,0,1.275-1.274v-3.1a5.4,5.4,0,0,0-.462-2.2Z" transform="translate(-2528.119 -531.142)" fill="none" stroke="#666" stroke-linecap="round" stroke-linejoin="round" stroke-width="1.3"/><line x1="9.86" transform="translate(8.836 5.052)" stroke-width="1.3" stroke="#666" stroke-linecap="round" stroke-linejoin="round" fill="none"/><path d="M2536.1,541.617h-1.469a.507.507,0,0,0-.45.339,8.582,8.582,0,0,0-.844,3.387" transform="translate(-2526.593 -532.155)" fill="none" stroke="#666" stroke-linecap="round" stroke-linejoin="round" stroke-width="1.3"/><path d="M2.606,0H7.254A2.606,2.606,0,0,1,9.86,2.606v0a0,0,0,0,1,0,0H0a0,0,0,0,1,0,0v0A2.606,2.606,0,0,1,2.606,0Z" transform="translate(8.836 16.769)" fill="none" stroke="#666" stroke-linecap="round" stroke-linejoin="round" stroke-width="1.3"/><circle cx="6.458" cy="6.458" r="6.458" transform="translate(0 22.204)" fill="none" stroke="#666" stroke-linecap="round" stroke-linejoin="round" stroke-width="1.3"/><circle cx="6.458" cy="6.458" r="6.458" transform="translate(15.181 22.204)" fill="none" stroke="#666" stroke-linecap="round" stroke-linejoin="round" stroke-width="1.3"/><path d="M2556.854,570l4.023,2.807-4.023,2.807Z" transform="translate(-2536.525 -544.146)" fill="none" stroke="#666" stroke-linecap="round" stroke-linejoin="round" stroke-width="1.3"/><g transform="translate(5.018 26.232)"><line y2="4.861" transform="translate(0 0)" stroke-width="1.3" stroke="#666" stroke-linecap="round" stroke-linejoin="round" fill="none"/><line y2="4.861" transform="translate(2.882 0)" stroke-width="1.3" stroke="#666" stroke-linecap="round" stroke-linejoin="round" fill="none"/></g></g></svg>