<svg xmlns="http://www.w3.org/2000/svg" width="96.933" height="79.466" viewBox="0 0 96.933 79.466"><g transform="translate(-181.72 -645.072)"><rect width="64.011" height="67.672" rx="4" transform="translate(277.653 646.072) rotate(90)" stroke-width="2" stroke="#666" stroke-linecap="round" stroke-linejoin="round" fill="none"/><rect width="54.386" height="39.741" transform="translate(216.624 652.715)" stroke-width="2" stroke="#666" stroke-linecap="round" stroke-linejoin="round" fill="none"/><path d="M417.479,52.746l-23.826,5.729a4.467,4.467,0,0,0-3.3,5.388l12.878,53.55a4.466,4.466,0,0,0,5.387,3.3l55.387-13.319" transform="translate(-207.498 602.69)" fill="none" stroke="#666" stroke-linecap="round" stroke-linejoin="round" stroke-width="2"/><path d="M417.479,59.578l-20.157,4.847,9.292,38.639,10.865-2.613" transform="translate(-207.498 602.69)" fill="none" stroke="#666" stroke-linecap="round" stroke-linejoin="round" stroke-width="2"/><g transform="translate(-207.498 602.69)"><path d="M436.82,56.245h28.99V84.231l-4.83-4.485-4.832,4.485-4.83-4.485-4.832,4.485-4.832-4.485-4.832,4.485Z" fill="none" stroke="#666" stroke-linecap="round" stroke-linejoin="round" stroke-width="2"/><line x2="8.556" transform="translate(443.392 61.677)" stroke-width="2" stroke="#666" stroke-linecap="round" stroke-linejoin="round" fill="none"/><line x2="8.556" transform="translate(443.392 67.448)" stroke-width="2" stroke="#666" stroke-linecap="round" stroke-linejoin="round" fill="none"/><line x2="8.556" transform="translate(443.392 73.218)" stroke-width="2" stroke="#666" stroke-linecap="round" stroke-linejoin="round" fill="none"/><line x2="1.694" transform="translate(457.543 61.677)" stroke-width="2" stroke="#666" stroke-linecap="round" stroke-linejoin="round" fill="none"/><line x2="1.694" transform="translate(457.543 67.448)" stroke-width="2" stroke="#666" stroke-linecap="round" stroke-linejoin="round" fill="none"/><line x2="1.694" transform="translate(457.543 73.218)" stroke-width="2" stroke="#666" stroke-linecap="round" stroke-linejoin="round" fill="none"/></g></g></svg>