<svg xmlns="http://www.w3.org/2000/svg" width="110.023" height="81.097" viewBox="0 0 110.023 81.097"><g transform="translate(-871.752 -277.856)"><g transform="translate(872.774 324.481)"><circle cx="3.085" cy="3.085" r="3.085" transform="translate(5.235 5.235)" fill="none" stroke="#666" stroke-linecap="round" stroke-linejoin="round" stroke-width="2"/><path d="M909.951,322.077a41.5,41.5,0,0,1-6.1,3.8" transform="translate(-869.585 -320.046)" fill="none" stroke="#666" stroke-linecap="round" stroke-linejoin="round" stroke-width="2"/><path d="M900.543,328.536a22.817,22.817,0,0,1-3.889.64l-11.4,6.583a8.315,8.315,0,1,1,4.092-8.264h0l10.087-5.823" transform="translate(-872.774 -320.235)" fill="none" stroke="#666" stroke-linecap="round" stroke-linejoin="round" stroke-width="2"/></g><line x1="11.23" y2="19.451" transform="translate(934.057 301.307)" fill="none" stroke="#666" stroke-linecap="round" stroke-linejoin="round" stroke-width="2"/><line x1="11.23" y2="19.451" transform="translate(945.715 308.037)" fill="none" stroke="#666" stroke-linecap="round" stroke-linejoin="round" stroke-width="2"/><line x1="11.23" y2="19.451" transform="translate(928.228 297.942)" fill="none" stroke="#666" stroke-linecap="round" stroke-linejoin="round" stroke-width="2"/><line x1="11.23" y2="19.451" transform="translate(939.886 304.672)" fill="none" stroke="#666" stroke-linecap="round" stroke-linejoin="round" stroke-width="2"/><line x1="14.365" y2="24.882" transform="translate(954.237 314.768)" fill="none" stroke="#666" stroke-linecap="round" stroke-linejoin="round" stroke-width="2"/><line x1="14.365" y2="24.882" transform="translate(913.436 291.211)" fill="none" stroke="#666" stroke-linecap="round" stroke-linejoin="round" stroke-width="2"/><line x1="14.365" y2="24.882" transform="translate(919.264 294.576)" fill="none" stroke="#666" stroke-linecap="round" stroke-linejoin="round" stroke-width="2"/><line x1="11.23" y2="19.451" transform="translate(951.543 311.402)" fill="none" stroke="#666" stroke-linecap="round" stroke-linejoin="round" stroke-width="2"/><line x1="0.16" y2="0.277" transform="translate(930.922 325.911)" fill="none" stroke="#666" stroke-linecap="round" stroke-linejoin="round" stroke-width="2"/><line x1="0.16" y2="0.277" transform="translate(942.579 332.642)" fill="none" stroke="#666" stroke-linecap="round" stroke-linejoin="round" stroke-width="2"/><line x1="0.16" y2="0.277" transform="translate(925.093 322.546)" fill="none" stroke="#666" stroke-linecap="round" stroke-linejoin="round" stroke-width="2"/><line x1="0.16" y2="0.277" transform="translate(936.75 329.277)" fill="none" stroke="#666" stroke-linecap="round" stroke-linejoin="round" stroke-width="2"/><line x1="0.16" y2="0.277" transform="translate(948.408 336.007)" fill="none" stroke="#666" stroke-linecap="round" stroke-linejoin="round" stroke-width="2"/><g transform="translate(899.372 300.012)"><path d="M907.774,339.347a8.286,8.286,0,0,0-3.208.643h0V298.043c-7.269,8.354-10.21,25.932-5.111,36.457v13.165a8.319,8.319,0,1,0,8.318-8.318Z" transform="translate(-896.897 -298.043)" fill="none" stroke="#666" stroke-linecap="round" stroke-linejoin="round" stroke-width="2"/><circle cx="3.085" cy="3.085" r="3.085" transform="translate(7.793 46.537)" fill="none" stroke="#666" stroke-linecap="round" stroke-linejoin="round" stroke-width="2"/></g><path d="M903.853,309.709l17.813-30.852,55.92,32.286L953.994,352l-50.141-28.949" transform="translate(3.189)" fill="none" stroke="#666" stroke-linecap="round" stroke-linejoin="round" stroke-width="2"/></g></svg>