<svg xmlns="http://www.w3.org/2000/svg" width="96.932" height="79.466" viewBox="0 0 96.932 79.466"><g transform="translate(-34.725 -645.072)"><rect width="64.011" height="67.672" rx="4" transform="translate(130.657 646.072) rotate(90)" stroke-width="2" stroke="#666" stroke-linecap="round" stroke-linejoin="round" fill="none"/><rect width="54.386" height="39.741" transform="translate(69.629 652.715)" stroke-width="2" stroke="#666" stroke-linecap="round" stroke-linejoin="round" fill="none"/><path d="M270.484,52.746l-23.827,5.729a4.467,4.467,0,0,0-3.3,5.388l12.877,53.55a4.467,4.467,0,0,0,5.388,3.3l55.387-13.319" transform="translate(-207.498 602.69)" fill="none" stroke="#666" stroke-linecap="round" stroke-linejoin="round" stroke-width="2"/><path d="M270.484,59.578l-20.157,4.847,9.292,38.639,10.865-2.613" transform="translate(-207.498 602.69)" fill="none" stroke="#666" stroke-linecap="round" stroke-linejoin="round" stroke-width="2"/><g transform="translate(-207.498 602.69)"><line x2="3.237" y2="1.869" transform="translate(294.344 75.389)" stroke-width="2" stroke="#666" stroke-linecap="round" stroke-linejoin="round" fill="none"/><path d="M317.8,62.457V78.019L304.32,85.8l-13.476-7.781V62.457l13.476-7.781Z" fill="none" stroke="#666" stroke-linecap="round" stroke-linejoin="round" stroke-width="2"/><path d="M290.843,62.457l13.476,7.781V85.8" fill="none" stroke="#666" stroke-linecap="round" stroke-linejoin="round" stroke-width="2"/><line x1="13.476" y2="7.781" transform="translate(304.32 62.457)" stroke-width="2" stroke="#666" stroke-linecap="round" stroke-linejoin="round" fill="none"/><path d="M313.058,70.755l-4,2.317V67.5l-13.476-7.781,4-2.309,13.477,7.781Z" fill="none" stroke="#666" stroke-linecap="round" stroke-linejoin="round" stroke-width="2"/></g></g></svg>