<svg xmlns="http://www.w3.org/2000/svg" width="76.157" height="66.634" viewBox="0 0 76.157 66.634"><g transform="translate(-2590.543 -338.962)"><path d="M2644.642,396.6h15.4V370.512a5.655,5.655,0,1,0,0-11.31h-30.973a5.655,5.655,0,1,0,0,11.31V374.7" fill="none" stroke="#666" stroke-linecap="round" stroke-linejoin="round" stroke-width="2"/><line x1="6.23" y2="6.23" transform="translate(2635.554 369.228)" fill="none" stroke="#666" stroke-linecap="round" stroke-linejoin="round" stroke-width="2"/><line x1="9.426" y2="9.426" transform="translate(2638.669 370.769)" fill="none" stroke="#666" stroke-linecap="round" stroke-linejoin="round" stroke-width="2"/><line x1="8.639" y2="8.639" transform="translate(2643.382 374.696)" fill="none" stroke="#666" stroke-linecap="round" stroke-linejoin="round" stroke-width="2"/><line x1="6.23" y2="6.23" transform="translate(2647.333 381.007)" fill="none" stroke="#666" stroke-linecap="round" stroke-linejoin="round" stroke-width="2"/><path d="M2652.962,340.268a3.529,3.529,0,0,1,0,6.2,3.529,3.529,0,0,0,0,6.195" fill="none" stroke="#666" stroke-linecap="round" stroke-linejoin="round" stroke-width="2"/><path d="M2644.625,340.268a3.529,3.529,0,0,1,0,6.2,3.53,3.53,0,0,0,0,6.195" fill="none" stroke="#666" stroke-linecap="round" stroke-linejoin="round" stroke-width="2"/><path d="M2636.156,340.268a3.529,3.529,0,0,1,0,6.2,3.529,3.529,0,0,0,0,6.195" fill="none" stroke="#666" stroke-linecap="round" stroke-linejoin="round" stroke-width="2"/><circle cx="13.51" cy="13.51" r="13.51" transform="translate(2602.585 377.575)" fill="none" stroke="#666" stroke-linecap="round" stroke-linejoin="round" stroke-width="2"/><circle cx="4.748" cy="4.748" r="4.748" transform="translate(2611.348 386.337)" fill="none" stroke="#666" stroke-linecap="round" stroke-linejoin="round" stroke-width="2"/><path d="M2640.648,391.085s-10.992,13.51-24.552,13.51-24.553-13.51-24.553-13.51,10.993-13.51,24.553-13.51S2640.648,391.085,2640.648,391.085Z" fill="none" stroke="#666" stroke-linecap="round" stroke-linejoin="round" stroke-width="2"/></g></svg>