<svg xmlns="http://www.w3.org/2000/svg" width="88.907" height="40.26" viewBox="0 0 88.907 40.26"><g transform="translate(-1693.332 -1367.804)"><path d="M4,0H46.106a4,4,0,0,1,4,4V33.522a0,0,0,0,1,0,0H0a0,0,0,0,1,0,0V4A4,4,0,0,1,4,0Z" transform="translate(1712.732 1368.804)" fill="none" stroke="#666" stroke-linecap="round" stroke-linejoin="round" stroke-width="2"/><path d="M0,0H3.236a2.39,2.39,0,0,1,2.39,2.39v0a2.39,2.39,0,0,1-2.39,2.39H0a0,0,0,0,1,0,0V0A0,0,0,0,1,0,0Z" transform="translate(1762.838 1377.036)" fill="none" stroke="#666" stroke-linecap="round" stroke-linejoin="round" stroke-width="2"/><path d="M0,0H2.348a2.39,2.39,0,0,1,2.39,2.39v0a2.39,2.39,0,0,1-2.39,2.39H0a0,0,0,0,1,0,0V0A0,0,0,0,1,0,0Z" transform="translate(1759.962 1402.326) rotate(90)" fill="none" stroke="#666" stroke-linecap="round" stroke-linejoin="round" stroke-width="2"/><path d="M0,0H2.348a2.39,2.39,0,0,1,2.39,2.39v0a2.39,2.39,0,0,1-2.39,2.39H0a0,0,0,0,1,0,0V0A0,0,0,0,1,0,0Z" transform="translate(1720.39 1402.326) rotate(90)" fill="none" stroke="#666" stroke-linecap="round" stroke-linejoin="round" stroke-width="2"/><line x2="50.106" transform="translate(1712.732 1394.15)" fill="none" stroke="#666" stroke-linecap="round" stroke-linejoin="round" stroke-width="2"/><path d="M1444.421,379.565v-8.888a2.185,2.185,0,0,1,2.185-2.185h3.57" transform="translate(274 1006)" fill="none" stroke="#666" stroke-linecap="round" stroke-linejoin="round" stroke-width="2"/><g transform="translate(274 1006)"><line y1="6.509" x2="3.758" transform="translate(1495.464 387.182)" fill="none" stroke="#666" stroke-linecap="round" stroke-linejoin="round" stroke-width="2"/><line y1="3.758" x2="6.509" transform="translate(1498.581 393.049)" fill="none" stroke="#666" stroke-linecap="round" stroke-linejoin="round" stroke-width="2"/><line x2="7.511" transform="translate(1499.728 401.064)" fill="none" stroke="#666" stroke-linecap="round" stroke-linejoin="round" stroke-width="2"/></g><g transform="translate(274 1006)"><line x1="3.758" y1="6.509" transform="translate(1428.349 387.182)" fill="none" stroke="#666" stroke-linecap="round" stroke-linejoin="round" stroke-width="2"/><line x1="6.509" y1="3.758" transform="translate(1422.481 393.049)" fill="none" stroke="#666" stroke-linecap="round" stroke-linejoin="round" stroke-width="2"/><line x1="7.511" transform="translate(1420.332 401.064)" fill="none" stroke="#666" stroke-linecap="round" stroke-linejoin="round" stroke-width="2"/></g></g></svg>