<svg xmlns="http://www.w3.org/2000/svg" width="44.282" height="63.677" viewBox="0 0 44.282 63.677"><g transform="translate(-1856.814 -329.922)"><path d="M1894.442,355.2h-30.973a5.655,5.655,0,1,0,0,11.31V392.6h30.973V366.506a5.655,5.655,0,0,0,0-11.31Z" fill="none" stroke="#666" stroke-linecap="round" stroke-linejoin="round" stroke-width="2"/><line x1="6.23" y2="6.23" transform="translate(1869.951 365.255)" fill="none" stroke="#666" stroke-linecap="round" stroke-linejoin="round" stroke-width="2"/><line x1="11" y2="11" transform="translate(1871.492 366.797)" fill="none" stroke="#666" stroke-linecap="round" stroke-linejoin="round" stroke-width="2"/><line x1="11" y2="11" transform="translate(1875.418 370.723)" fill="none" stroke="#666" stroke-linecap="round" stroke-linejoin="round" stroke-width="2"/><line x1="6.23" y2="6.23" transform="translate(1881.73 377.034)" fill="none" stroke="#666" stroke-linecap="round" stroke-linejoin="round" stroke-width="2"/><line x2="1.974" transform="translate(1871.307 342.923)" fill="none" stroke="#666" stroke-linecap="round" stroke-linejoin="round" stroke-width="2"/><line x2="1.974" transform="translate(1862.648 342.923)" fill="none" stroke="#666" stroke-linecap="round" stroke-linejoin="round" stroke-width="2"/><line y2="1.974" transform="translate(1867.965 346.265)" fill="none" stroke="#666" stroke-linecap="round" stroke-linejoin="round" stroke-width="2"/><line y2="1.974" transform="translate(1867.965 337.606)" fill="none" stroke="#666" stroke-linecap="round" stroke-linejoin="round" stroke-width="2"/><line x2="1.974" transform="translate(1889.617 336.238)" fill="none" stroke="#666" stroke-linecap="round" stroke-linejoin="round" stroke-width="2"/><line x2="1.974" transform="translate(1880.958 336.238)" fill="none" stroke="#666" stroke-linecap="round" stroke-linejoin="round" stroke-width="2"/><line y2="1.974" transform="translate(1886.274 339.58)" fill="none" stroke="#666" stroke-linecap="round" stroke-linejoin="round" stroke-width="2"/><line y2="1.974" transform="translate(1886.274 330.922)" fill="none" stroke="#666" stroke-linecap="round" stroke-linejoin="round" stroke-width="2"/></g></svg>