<svg xmlns="http://www.w3.org/2000/svg" width="58.082" height="53.802" viewBox="0 0 58.082 53.802"><g transform="translate(-1940.806 -529.765)"><path d="M0,0H32.852a0,0,0,0,1,0,0V9.379A16.426,16.426,0,0,1,16.426,25.805h0A16.426,16.426,0,0,1,0,9.379V0A0,0,0,0,1,0,0Z" transform="translate(1952.118 530.765)" fill="none" stroke="#666" stroke-linecap="round" stroke-linejoin="round" stroke-width="2"/><path d="M1984.97,534.392h6.2a3.381,3.381,0,0,1,3.387,3.4c-.038,4.987-1.156,11.061-11.469,11.36" fill="none" stroke="#666" stroke-linecap="round" stroke-linejoin="round" stroke-width="2"/><line x1="32.852" transform="translate(1952.118 556.57)" fill="none" stroke="#666" stroke-linecap="round" stroke-linejoin="round" stroke-width="2"/><path d="M1962.732,567.237l-2.933,2.933-2.933-2.933Z" fill="none" stroke="#666" stroke-linecap="round" stroke-linejoin="round" stroke-width="2"/><rect width="56.082" height="8.743" transform="translate(1941.807 573.824)" fill="none" stroke="#666" stroke-linecap="round" stroke-linejoin="round" stroke-width="2"/><line x2="14.602" transform="translate(1945.197 578.196)" fill="none" stroke="#666" stroke-linecap="round" stroke-linejoin="round" stroke-width="2"/></g></svg>