<svg xmlns="http://www.w3.org/2000/svg" width="75.935" height="46.789" viewBox="0 0 75.935 46.789"><g transform="translate(-3746.11 -1463.402)"><path d="M623.939,609.721a2.711,2.711,0,0,0-.726-1.321l-9.863-9.989a3.94,3.94,0,0,0-5.608,0l-9.863,9.989a2.711,2.711,0,0,0-.726,1.321Z" transform="translate(3193.19 871.442)" fill="none" stroke="#666" stroke-linecap="round" stroke-linejoin="round" stroke-miterlimit="10" stroke-width="2"/><path d="M577.093,607.982c-7.531-7.317-19.661-16.115-38.533-16.759a2.142,2.142,0,0,0-2.217,2.135h0a2.13,2.13,0,0,0,2.061,2.127c21.93.734,33.769,13.079,40.408,20.484a18.086,18.086,0,0,0,31.317-5.032,2.206,2.206,0,0,0-2.069-2.955Z" transform="translate(3210.768 873.181)" fill="none" stroke="#666" stroke-linecap="round" stroke-linejoin="round" stroke-miterlimit="10" stroke-width="2"/><path d="M622.014,640.673c-.262-.686.816-1.339.326-1.632" transform="translate(3186.016 862.96)" fill="none" stroke="#666" stroke-linecap="round" stroke-miterlimit="10" stroke-width="2"/><path d="M610.011,641.772c.515.4.939.533,2.147-.359" transform="translate(3189.473 862.275)" fill="none" stroke="#666" stroke-linecap="round" stroke-miterlimit="10" stroke-width="2"/><path d="M616.388,648.591c.11-.435,1.4,0,1.922-.642" transform="translate(3187.63 860.385)" fill="none" stroke="#666" stroke-linecap="round" stroke-miterlimit="10" stroke-width="2"/><path d="M612.778,605.933c-.057.732-1.31.862-.992,1.337" transform="translate(3188.975 868.929)" fill="none" stroke="#666" stroke-linecap="round" stroke-miterlimit="10" stroke-width="2"/><path d="M621.314,609.833c-.293-.584-.621-.883-2.094-.592" transform="translate(3186.811 868.005)" fill="none" stroke="#666" stroke-linecap="round" stroke-miterlimit="10" stroke-width="2"/></g></svg>