<svg xmlns="http://www.w3.org/2000/svg" width="78.907" height="62.796" viewBox="0 0 78.907 62.796"><g transform="translate(-1424.332 -177.883)"><path d="M1442.357,239.679c0-28.163,4.714-40.9,10.714-52.53H1474.5c6,11.632,10.714,24.367,10.714,52.53Z" fill="none" stroke="#666" stroke-linecap="round" stroke-linejoin="round" stroke-width="2"/><path d="M4,0H17.429a4,4,0,0,1,4,4V8.265a0,0,0,0,1,0,0H0a0,0,0,0,1,0,0V4A4,4,0,0,1,4,0Z" transform="translate(1453.071 178.883)" fill="none" stroke="#666" stroke-linecap="round" stroke-linejoin="round" stroke-width="2"/><path d="M1453.071,187.149h-9.915a4.008,4.008,0,0,0-3.541,2.139c-3.3,6.246-5.878,10.979-6.64,21.376" fill="none" stroke="#666" stroke-linecap="round" stroke-linejoin="round" stroke-width="2"/><path d="M1474.5,187.149h11.457l-6.411,11.393" fill="none" stroke="#666" stroke-linecap="round" stroke-linejoin="round" stroke-width="2"/><line x1="42.568" transform="translate(1442.501 231.503)" fill="none" stroke="#666" stroke-linecap="round" stroke-linejoin="round" stroke-width="2"/><line y1="6.509" x2="3.758" transform="translate(1490.464 225.797)" fill="none" stroke="#666" stroke-linecap="round" stroke-linejoin="round" stroke-width="2"/><line y1="3.758" x2="6.509" transform="translate(1493.581 231.664)" fill="none" stroke="#666" stroke-linecap="round" stroke-linejoin="round" stroke-width="2"/><line x2="7.511" transform="translate(1494.728 239.679)" fill="none" stroke="#666" stroke-linecap="round" stroke-linejoin="round" stroke-width="2"/><line x1="3.758" y1="6.509" transform="translate(1433.349 225.797)" fill="none" stroke="#666" stroke-linecap="round" stroke-linejoin="round" stroke-width="2"/><line x1="6.509" y1="3.758" transform="translate(1427.481 231.664)" fill="none" stroke="#666" stroke-linecap="round" stroke-linejoin="round" stroke-width="2"/><line x1="7.511" transform="translate(1425.332 239.679)" fill="none" stroke="#666" stroke-linecap="round" stroke-linejoin="round" stroke-width="2"/></g></svg>