<svg xmlns="http://www.w3.org/2000/svg" width="85.983" height="70.451" viewBox="0 0 85.983 70.451"><g transform="translate(-2695.709 -170.229)"><path d="M2706.161,239.679c0-28.163,4.714-40.9,10.714-52.53H2738.3c6,11.632,10.715,24.367,10.715,52.53Z" fill="none" stroke="#666" stroke-linecap="round" stroke-linejoin="round" stroke-width="2"/><path d="M4,0H17.429a4,4,0,0,1,4,4V8.265a0,0,0,0,1,0,0H0a0,0,0,0,1,0,0V4A4,4,0,0,1,4,0Z" transform="translate(2759.263 231.414)" fill="none" stroke="#666" stroke-linecap="round" stroke-linejoin="round" stroke-width="2"/><path d="M2716.875,187.149h-9.915a4.008,4.008,0,0,0-3.541,2.139c-3.295,6.246-5.878,10.979-6.64,21.376" fill="none" stroke="#666" stroke-linecap="round" stroke-linejoin="round" stroke-width="2"/><path d="M2738.3,187.149h11.457l-6.411,11.393" fill="none" stroke="#666" stroke-linecap="round" stroke-linejoin="round" stroke-width="2"/><line x1="42.568" transform="translate(2706.305 231.503)" fill="none" stroke="#666" stroke-linecap="round" stroke-linejoin="round" stroke-width="2"/><path d="M2727.589,181.148c10.714-16.163,29.994-11.2,38.075,5.7,4.958,10.37,4.313,22.77,4.313,37.463" fill="none" stroke="#666" stroke-linecap="round" stroke-linejoin="round" stroke-width="2"/><path d="M2773.279,222.66l-3.3,3.3-3.3-3.3" fill="none" stroke="#666" stroke-linecap="round" stroke-linejoin="round" stroke-width="2"/></g></svg>