<svg xmlns="http://www.w3.org/2000/svg" width="75.021" height="64.454" viewBox="0 0 75.021 64.454"><g transform="translate(-2570.026 -175.159)"><path d="M0,0H23.609a0,0,0,0,1,0,0V6.74a11.8,11.8,0,0,1-11.8,11.8h0A11.8,11.8,0,0,1,0,6.74V0A0,0,0,0,1,0,0Z" transform="translate(2604.998 220.069)" fill="none" stroke="#666" stroke-linecap="round" stroke-linejoin="round" stroke-width="2"/><path d="M2628.607,222.675h4.451a2.429,2.429,0,0,1,2.434,2.442c-.027,3.584-.83,7.949-8.242,8.164" fill="none" stroke="#666" stroke-linecap="round" stroke-linejoin="round" stroke-width="2"/><line x1="23.609" transform="translate(2604.998 238.613)" fill="none" stroke="#666" stroke-linecap="round" stroke-linejoin="round" stroke-width="2"/><path d="M2571.026,208.85c9.625-16.671,16.767-22.6,24.294-27.433L2608,188.74c-.424,8.936-1.985,18.085-11.61,34.756Z" fill="none" stroke="#666" stroke-linecap="round" stroke-linejoin="round" stroke-width="2"/><path d="M4,0h6.646a4,4,0,0,1,4,4V5.649a0,0,0,0,1,0,0H0a0,0,0,0,1,0,0V4A4,4,0,0,1,4,0Z" transform="translate(2598.145 176.525) rotate(30)" fill="none" stroke="#666" stroke-linecap="round" stroke-linejoin="round" stroke-width="2"/><path d="M2595.32,181.417l-5.869-3.388a2.739,2.739,0,0,0-2.827.057c-4.085,2.57-7.231,4.489-11.235,10.383" fill="none" stroke="#666" stroke-linecap="round" stroke-linejoin="round" stroke-width="2"/><path d="M2608,188.74l6.782,3.915-7.689,4.553" fill="none" stroke="#666" stroke-linecap="round" stroke-linejoin="round" stroke-width="2"/><line x1="25.196" y1="14.547" transform="translate(2573.906 204.059)" fill="none" stroke="#666" stroke-linecap="round" stroke-linejoin="round" stroke-width="2"/><path d="M2616.372,196.3a11.343,11.343,0,0,1,2.194,6.371c.013,4.837-3.738,7.083-3.348,11.271.143,1.54.88,3.7,3.7,6.126" fill="none" stroke="#666" stroke-linecap="round" stroke-linejoin="round" stroke-width="2"/><path d="M2638.493,193.427l-4.385,4.385L2632,195.7" fill="none" stroke="#666" stroke-linecap="round" stroke-linejoin="round" stroke-width="2"/><circle cx="8.817" cy="8.817" r="8.817" transform="translate(2626.413 187.027)" fill="none" stroke="#666" stroke-linecap="round" stroke-linejoin="round" stroke-width="2"/></g></svg>