<svg xmlns="http://www.w3.org/2000/svg" width="38.737" height="36.413" viewBox="0 0 38.737 36.413"><g transform="translate(0.65 0.65)"><g transform="translate(30.636 27.095)"><line y1="3.759" x2="2.17" fill="none" stroke="#666" stroke-linecap="round" stroke-linejoin="round" stroke-width="1.3"/><line y1="2.17" x2="3.759" transform="translate(1.8 3.389)" stroke-width="1.3" stroke="#666" stroke-linecap="round" stroke-linejoin="round" fill="none"/><line x2="4.338" transform="translate(2.462 8.018)" stroke-width="1.3" stroke="#666" stroke-linecap="round" stroke-linejoin="round" fill="none"/></g><g transform="translate(0 27.095)"><line x1="2.17" y1="3.759" transform="translate(4.63)" stroke-width="1.3" stroke="#666" stroke-linecap="round" stroke-linejoin="round" fill="none"/><line x1="3.759" y1="2.17" transform="translate(1.241 3.389)" stroke-width="1.3" stroke="#666" stroke-linecap="round" stroke-linejoin="round" fill="none"/><line x1="4.338" transform="translate(0 8.018)" stroke-width="1.3" stroke="#666" stroke-linecap="round" stroke-linejoin="round" fill="none"/></g><path d="M1028.721,525.234v9.336a2.308,2.308,0,0,0,.28,1.1l2.279,4.2h12.75l2.279-4.2a2.316,2.316,0,0,0,.28-1.1v-9.336Z" transform="translate(-1018.937 -525.234)" fill="none" stroke="#666" stroke-linecap="round" stroke-linejoin="round" stroke-width="1.3"/><path d="M1044.03,550.577h-12.75l-1.722,3.838a9.788,9.788,0,0,0-.837,3.992v5.615a2.309,2.309,0,0,0,2.31,2.308h13.248a2.309,2.309,0,0,0,2.31-2.308v-5.615a9.79,9.79,0,0,0-.837-3.992Z" transform="translate(-1018.937 -535.94)" fill="none" stroke="#666" stroke-linecap="round" stroke-linejoin="round" stroke-width="1.3"/><line x1="17.869" transform="translate(9.784 9.156)" stroke-width="1.3" stroke="#666" stroke-linecap="round" stroke-linejoin="round" fill="none"/><path d="M1027.181,554.925h-2.662a.92.92,0,0,0-.816.614,15.555,15.555,0,0,0-1.529,6.139" transform="translate(-1016.171 -537.777)" fill="none" stroke="#666" stroke-linecap="round" stroke-linejoin="round" stroke-width="1.3"/><path d="M4,0h9.869a4,4,0,0,1,4,4v.722a0,0,0,0,1,0,0H0a0,0,0,0,1,0,0V4A4,4,0,0,1,4,0Z" transform="translate(9.784 30.391)" fill="none" stroke="#666" stroke-linecap="round" stroke-linejoin="round" stroke-width="1.3"/></g></svg>