<svg xmlns="http://www.w3.org/2000/svg" width="30.449" height="28.834" viewBox="0 0 30.449 28.834"><g transform="translate(0.687 0.65)"><path d="M1156.4,534.548h-17.144l-2.316,5.162a13.162,13.162,0,0,0-1.126,5.368v7.551a3.105,3.105,0,0,0,3.107,3.1h17.814a3.105,3.105,0,0,0,3.107-3.1v-7.551a13.174,13.174,0,0,0-1.126-5.368Z" transform="translate(-1130.73 -534.548)" fill="none" stroke="#666" stroke-linecap="round" stroke-linejoin="round" stroke-width="1.3"/><path d="M1133.742,540.4h-3.58a1.238,1.238,0,0,0-1.1.826,20.922,20.922,0,0,0-2.056,8.254" transform="translate(-1127.01 -537.018)" fill="none" stroke="#666" stroke-linecap="round" stroke-linejoin="round" stroke-width="1.3"/><path d="M4,0H20.027a4,4,0,0,1,4,4V6.35a0,0,0,0,1,0,0H0a0,0,0,0,1,0,0V4A4,4,0,0,1,4,0Z" transform="translate(5.085 21.184)" fill="none" stroke="#666" stroke-linecap="round" stroke-linejoin="round" stroke-width="1.3"/><line y1="12.397" x2="12.397" transform="translate(10.9 4.539)" stroke-width="1.3" stroke="#666" stroke-linecap="round" stroke-linejoin="round" fill="none"/><path d="M1148.579,561.9h-2.7v-2.7" transform="translate(-1134.983 -544.964)" fill="none" stroke="#666" stroke-linecap="round" stroke-linejoin="round" stroke-width="1.3"/><path d="M1162.678,542.407h2.7v2.7" transform="translate(-1142.078 -537.868)" fill="none" stroke="#666" stroke-linecap="round" stroke-linejoin="round" stroke-width="1.3"/></g></svg>