<svg xmlns="http://www.w3.org/2000/svg" width="22.987" height="36.413" viewBox="0 0 22.987 36.413"><g transform="translate(0.687 0.65)"><path d="M1234.723,525.234v9.336a2.3,2.3,0,0,0,.28,1.1l2.279,4.2h12.75l2.279-4.2a2.315,2.315,0,0,0,.28-1.1v-9.336Z" transform="translate(-1230.942 -525.234)" fill="none" stroke="#666" stroke-linecap="round" stroke-linejoin="round" stroke-width="1.3"/><path d="M1250.032,550.577h-12.75l-1.722,3.838a9.788,9.788,0,0,0-.837,3.992v5.615a2.309,2.309,0,0,0,2.31,2.308h13.248a2.309,2.309,0,0,0,2.31-2.308v-5.615a9.788,9.788,0,0,0-.837-3.992Z" transform="translate(-1230.942 -535.94)" fill="none" stroke="#666" stroke-linecap="round" stroke-linejoin="round" stroke-width="1.3"/><line x1="17.869" transform="translate(3.781 9.156)" stroke-width="1.3" stroke="#666" stroke-linecap="round" stroke-linejoin="round" fill="none"/><path d="M1233.183,554.925h-2.662a.921.921,0,0,0-.816.614,15.559,15.559,0,0,0-1.528,6.139" transform="translate(-1228.176 -537.777)" fill="none" stroke="#666" stroke-linecap="round" stroke-linejoin="round" stroke-width="1.3"/><path d="M4,0h9.869a4,4,0,0,1,4,4v.722a0,0,0,0,1,0,0H0a0,0,0,0,1,0,0V4A4,4,0,0,1,4,0Z" transform="translate(3.781 30.391)" fill="none" stroke="#666" stroke-linecap="round" stroke-linejoin="round" stroke-width="1.3"/><path d="M1255.959,569.805l-1.907,1.907-1.907-1.907" transform="translate(-1238.302 -544.063)" fill="none" stroke="#666" stroke-linecap="round" stroke-linejoin="round" stroke-width="1.3"/><path d="M1245.449,569.805l-1.907,1.907-1.907-1.907" transform="translate(-1233.862 -544.063)" fill="none" stroke="#666" stroke-linecap="round" stroke-linejoin="round" stroke-width="1.3"/><path d="M1246.406,564.469a3.573,3.573,0,0,0-1.469,2.495V568.5" transform="translate(-1235.257 -541.809)" fill="none" stroke="#666" stroke-linecap="round" stroke-linejoin="round" stroke-width="1.3"/><path d="M1254.406,555.566a3.654,3.654,0,0,1-1.423,2.556" transform="translate(-1238.656 -538.048)" fill="none" stroke="#666" stroke-linecap="round" stroke-linejoin="round" stroke-width="1.3"/><path d="M1244.937,555.566c0,3.055,6.07,4.741,6.07,7.636v1.533" transform="translate(-1235.257 -538.048)" fill="none" stroke="#666" stroke-linecap="round" stroke-linejoin="round" stroke-width="1.3"/></g></svg>