<svg xmlns="http://www.w3.org/2000/svg" width="30.474" height="36.413" viewBox="0 0 30.474 36.413"><g transform="translate(0.687 0.65)"><path d="M1348.748,561.97a6.7,6.7,0,0,0,4.3-11.846V533.376a4.3,4.3,0,0,0-4.3-4.3" transform="translate(-1331.384 -526.858)" fill="none" stroke="#666" stroke-linecap="round" stroke-linejoin="round" stroke-width="1.3"/><path d="M1325.083,535.519l-1.6-2.949a1.623,1.623,0,0,1-.2-.776v-6.56h11.978" transform="translate(-1320.627 -525.234)" fill="none" stroke="#666" stroke-linecap="round" stroke-linejoin="round" stroke-width="1.3"/><path d="M1330.4,543.042h-5.313l-1.211,2.7a6.882,6.882,0,0,0-.588,2.8v3.945a1.622,1.622,0,0,0,1.623,1.622h5.8" transform="translate(-1320.627 -532.757)" fill="none" stroke="#666" stroke-linecap="round" stroke-linejoin="round" stroke-width="1.3"/><line x1="7.112" transform="translate(2.657 6.434)" stroke-width="1.3" stroke="#666" stroke-linecap="round" stroke-linejoin="round" fill="none"/><path d="M1322.2,546.1h-1.871a.647.647,0,0,0-.573.431,10.94,10.94,0,0,0-1.074,4.314" transform="translate(-1318.683 -534.048)" fill="none" stroke="#666" stroke-linecap="round" stroke-linejoin="round" stroke-width="1.3"/><path d="M1328.984,565.528h-5.7v-.722a2.6,2.6,0,0,1,2.6-2.6" transform="translate(-1320.627 -540.854)" fill="none" stroke="#666" stroke-linecap="round" stroke-linejoin="round" stroke-width="1.3"/><path d="M1343.844,561.97a6.7,6.7,0,0,1-4.3-11.846V533.376a4.3,4.3,0,0,1,4.3-4.3" transform="translate(-1326.481 -526.858)" fill="none" stroke="#666" stroke-linecap="round" stroke-linejoin="round" stroke-width="1.3"/><circle cx="3.047" cy="3.047" r="3.047" transform="translate(14.317 25.592)" fill="none" stroke="#666" stroke-linecap="round" stroke-linejoin="round" stroke-width="1.3"/><line x2="3.867" transform="translate(25.271 13.428)" stroke-width="1.3" stroke="#666" stroke-linecap="round" stroke-linejoin="round" fill="none"/><line x2="3.867" transform="translate(25.271 19.045)" stroke-width="1.3" stroke="#666" stroke-linecap="round" stroke-linejoin="round" fill="none"/><line x2="3.867" transform="translate(25.271 7.81)" stroke-width="1.3" stroke="#666" stroke-linecap="round" stroke-linejoin="round" fill="none"/><line y1="14.876" transform="translate(17.364 10.715)" stroke-width="1.3" stroke="#666" stroke-linecap="round" stroke-linejoin="round" fill="none"/></g></svg>