<svg xmlns="http://www.w3.org/2000/svg" width="33.69" height="31.219" viewBox="0 0 33.69 31.219"><g transform="translate(-685.412 -3148.093)"><path d="M0,0H18.974a0,0,0,0,1,0,0V5.417A9.487,9.487,0,0,1,9.487,14.9h0A9.487,9.487,0,0,1,0,5.417V0A0,0,0,0,1,0,0Z" transform="translate(692.017 3148.743)" fill="none" stroke="#666" stroke-linecap="round" stroke-linejoin="round" stroke-width="1.3"/><path d="M1445.588,534.392h3.577a1.953,1.953,0,0,1,1.957,1.963c-.022,2.88-.667,6.388-6.625,6.561" transform="translate(-734.597 2616.446)" fill="none" stroke="#666" stroke-linecap="round" stroke-linejoin="round" stroke-width="1.3"/><line x1="18.974" transform="translate(692.017 3163.646)" stroke-width="1.3" stroke="#666" stroke-linecap="round" stroke-linejoin="round" fill="none"/><path d="M1421.67,567.237l-1.694,1.694-1.694-1.694Z" transform="translate(-723.522 2601.57)" fill="none" stroke="#666" stroke-linecap="round" stroke-linejoin="round" stroke-width="1.3"/><rect width="32.39" height="5.754" transform="translate(686.062 3172.908)" stroke-width="1.3" stroke="#666" stroke-linecap="round" stroke-linejoin="round" fill="none"/><line x2="8.433" transform="translate(688.02 3175.784)" stroke-width="1.3" stroke="#666" stroke-linecap="round" stroke-linejoin="round" fill="none"/></g></svg>