<svg xmlns="http://www.w3.org/2000/svg" width="31.249" height="36.723" viewBox="0 0 31.249 36.723"><g transform="translate(0.687 0.65)"><circle cx="11.049" cy="11.049" r="11.049" transform="translate(7.815 13.326)" fill="none" stroke="#666" stroke-linecap="round" stroke-linejoin="round" stroke-width="1.3"/><path d="M1508.805,523.234v6.56a1.622,1.622,0,0,0,.2.776l1.6,2.949h8.959l1.6-2.949a1.626,1.626,0,0,0,.2-.776v-6.56Z" transform="translate(-1506.148 -523.234)" fill="none" stroke="#666" stroke-linecap="round" stroke-linejoin="round" stroke-width="1.3"/><path d="M1520.14,542.33l-.578-1.288H1510.6l-1.211,2.7a6.885,6.885,0,0,0-.588,2.805v3.945a1.622,1.622,0,0,0,1.623,1.622h1.012" transform="translate(-1506.148 -530.757)" fill="none" stroke="#666" stroke-linecap="round" stroke-linejoin="round" stroke-width="1.3"/><line x1="12.556" transform="translate(2.657 6.434)" stroke-width="1.3" stroke="#666" stroke-linecap="round" stroke-linejoin="round" fill="none"/><path d="M1507.723,544.1h-1.871a.647.647,0,0,0-.573.432,10.941,10.941,0,0,0-1.074,4.314" transform="translate(-1504.204 -532.048)" fill="none" stroke="#666" stroke-linecap="round" stroke-linejoin="round" stroke-width="1.3"/><path d="M1511.115,560.21a2.31,2.31,0,0,0-2.31,2.31v1.008h2.1" transform="translate(-1506.148 -538.854)" fill="none" stroke="#666" stroke-linecap="round" stroke-linejoin="round" stroke-width="1.3"/><g transform="translate(16.493 20.376)"><line y2="7.997" fill="none" stroke="#666" stroke-linecap="round" stroke-linejoin="round" stroke-width="1.3"/><line y2="7.997" transform="translate(4.741)" stroke-width="1.3" stroke="#666" stroke-linecap="round" stroke-linejoin="round" fill="none"/></g></g></svg>