<svg xmlns="http://www.w3.org/2000/svg" width="46.05" height="35.119" viewBox="0 0 46.05 35.119"><g transform="translate(0.919 0.65)"><path d="M1595.4,537.21V525.647l-3.653,3.432" transform="translate(-1591.747 -525.647)" fill="none" stroke="#666" stroke-linecap="round" stroke-linejoin="round" stroke-width="1.3"/><path d="M1619.615,534.3a2.9,2.9,0,0,0,5.79,0v-5.762a2.9,2.9,0,0,0-5.79,0Z" transform="translate(-1603.52 -525.647)" fill="none" stroke="#666" stroke-linecap="round" stroke-linejoin="round" stroke-width="1.3"/><path d="M1603.832,534.3a2.895,2.895,0,1,0,5.789,0v-5.762a2.895,2.895,0,1,0-5.789,0Z" transform="translate(-1596.852 -525.647)" fill="none" stroke="#666" stroke-linecap="round" stroke-linejoin="round" stroke-width="1.3"/><path d="M1635.4,534.3a2.895,2.895,0,1,0,5.789,0v-5.762a2.895,2.895,0,1,0-5.789,0Z" transform="translate(-1610.188 -525.647)" fill="none" stroke="#666" stroke-linecap="round" stroke-linejoin="round" stroke-width="1.3"/><path d="M1653.473,534.669l2.582,6.322,1.795-4.394,1.777,4.348,2.48-6.071" transform="translate(-1617.823 -529.458)" fill="none" stroke="#666" stroke-linecap="round" stroke-linejoin="round" stroke-width="1.3"/><path d="M0,0H6.394a0,0,0,0,1,0,0V2.331a3.2,3.2,0,0,1-3.2,3.2h0A3.2,3.2,0,0,1,0,2.331V0A0,0,0,0,1,0,0Z" transform="translate(16.949 24.382)" fill="none" stroke="#666" stroke-linecap="round" stroke-linejoin="round" stroke-width="1.3"/><path d="M1620.248,567.533v3.909A8.721,8.721,0,1,0,1613.3,568" transform="translate(-1600.103 -537.624)" fill="none" stroke="#666" stroke-linecap="round" stroke-linejoin="round" stroke-width="1.3"/><line y1="3.576" transform="translate(21.823 20.806)" stroke-width="1.3" stroke="#666" stroke-linecap="round" stroke-linejoin="round" fill="none"/><line y1="3.576" transform="translate(18.467 20.806)" stroke-width="1.3" stroke="#666" stroke-linecap="round" stroke-linejoin="round" fill="none"/><line x2="0.931" transform="translate(19.68 27.145)" stroke-width="1.3" stroke="#666" stroke-linecap="round" stroke-linejoin="round" fill="none"/></g></svg>