<svg xmlns="http://www.w3.org/2000/svg" width="30.449" height="28.834" viewBox="0 0 30.449 28.834"><g transform="translate(0.687 0.65)"><path d="M3379.054,536.123H3361.91l-2.315,5.162a13.167,13.167,0,0,0-1.126,5.368v7.55a3.105,3.105,0,0,0,3.106,3.1h17.815a3.105,3.105,0,0,0,3.106-3.1v-7.55a13.163,13.163,0,0,0-1.126-5.368Z" transform="translate(-3353.385 -536.123)" fill="none" stroke="#666" stroke-linecap="round" stroke-linejoin="round" stroke-width="1.3"/><path d="M3356.4,541.969h-3.58a1.237,1.237,0,0,0-1.1.826,20.939,20.939,0,0,0-2.056,8.254" transform="translate(-3349.665 -538.593)" fill="none" stroke="#666" stroke-linecap="round" stroke-linejoin="round" stroke-width="1.3"/><path d="M4,0H20.027a4,4,0,0,1,4,4V6.35a0,0,0,0,1,0,0H0a0,0,0,0,1,0,0V4A4,4,0,0,1,4,0Z" transform="translate(5.084 21.184)" fill="none" stroke="#666" stroke-linecap="round" stroke-linejoin="round" stroke-width="1.3"/><path d="M3382.838,556.038a6.217,6.217,0,0,0,0-11.735" transform="translate(-3363.679 -539.579)" fill="none" stroke="#666" stroke-linecap="round" stroke-linejoin="round" stroke-width="1.3"/><path d="M3372.656,544.3a6.216,6.216,0,0,0,0,11.735" transform="translate(-3357.618 -539.579)" fill="none" stroke="#666" stroke-linecap="round" stroke-linejoin="round" stroke-width="1.3"/><path d="M3382.838,547v-2.7h2.7" transform="translate(-3363.679 -539.578)" fill="none" stroke="#666" stroke-linecap="round" stroke-linejoin="round" stroke-width="1.3"/><path d="M3373.727,559.952v2.7h-2.7" transform="translate(-3358.691 -546.19)" fill="none" stroke="#666" stroke-linecap="round" stroke-linejoin="round" stroke-width="1.3"/></g></svg>