<svg xmlns="http://www.w3.org/2000/svg" width="43.826" height="43.826" viewBox="0 0 43.826 43.826"><path d="M332.4,674.558q-.274.045-.55.082.276-.038.55-.082Zm0,0" transform="translate(-306.959 -631.017)" fill="#fff"/><path d="M340.6,673.683l-.262.046.262-.046Zm0,0" transform="translate(-314.717 -630.218)" fill="#fff"/><path d="M319.253,676.23q-.32.036-.644.064.324-.027.644-.064Zm0,0" transform="translate(-294.846 -632.547)" fill="#fff"/><path d="M327.754,675.628l-.309.039.309-.039Zm0,0" transform="translate(-302.926 -631.996)" fill="#fff"/><path d="M347.9,672.3l-.231.049.231-.049Zm0,0" transform="translate(-321.414 -628.953)" fill="#fff"/><path d="M365.671,668l-.187.052.187-.052Zm0,0" transform="translate(-337.709 -625.024)" fill="#fff"/><path d="M360.262,669.433l-.2.053.2-.053Zm0,0" transform="translate(-332.748 -626.331)" fill="#fff"/><path d="M353.282,671.144l-.216.048.216-.048Zm0,0" transform="translate(-326.354 -627.896)" fill="#fff"/><path d="M314.826,676.98q-.173.014-.346.026.174-.011.346-.026Zm0,0" transform="translate(-291.071 -633.232)" fill="#fff"/><path d="M306.578,677.32q-.342.022-.687.034.345-.012.687-.034Zm0,0" transform="translate(-283.217 -633.543)" fill="#fff"/><path d="M301.868,677.726q-.181.006-.364.009.182,0,.364-.009Zm0,0" transform="translate(-279.205 -633.914)" fill="#fff"/><path d="M84.826,187.8a21.913,21.913,0,1,0-21.913,21.913c.129,0,.257,0,.385-.005V192.652H58.59v-5.486H63.3v-4.037c0-4.682,2.859-7.231,7.035-7.231a38.736,38.736,0,0,1,4.221.216v4.894h-2.88c-2.272,0-2.712,1.08-2.712,2.665v3.494h5.433l-.708,5.486H68.961v16.217A21.924,21.924,0,0,0,84.826,187.8Zm0,0" transform="translate(-41 -165.89)" fill="#fff"/></svg>