<svg xmlns="http://www.w3.org/2000/svg" width="43.826" height="43.826" viewBox="0 0 43.826 43.826"><path d="M642.388,339.194A4.194,4.194,0,1,1,638.194,335a4.194,4.194,0,0,1,4.194,4.194Zm0,0" transform="translate(-616.281 -317.281)" fill="#fff"/><path d="M582.609,266.383a4.166,4.166,0,0,0-2.388-2.388,6.962,6.962,0,0,0-2.336-.433c-1.327-.06-1.725-.074-5.085-.074s-3.758.013-5.085.073a6.966,6.966,0,0,0-2.336.433,4.168,4.168,0,0,0-2.388,2.388,6.964,6.964,0,0,0-.433,2.337c-.06,1.327-.074,1.725-.074,5.085s.013,3.758.074,5.085a6.962,6.962,0,0,0,.433,2.336,4.166,4.166,0,0,0,2.388,2.388,6.955,6.955,0,0,0,2.337.433c1.327.061,1.724.073,5.084.073s3.758-.013,5.085-.073a6.954,6.954,0,0,0,2.336-.433,4.167,4.167,0,0,0,2.388-2.388,6.971,6.971,0,0,0,.433-2.336c.061-1.327.073-1.725.073-5.085s-.013-3.758-.073-5.085a6.955,6.955,0,0,0-.433-2.337ZM572.8,280.265a6.461,6.461,0,1,1,6.461-6.461,6.461,6.461,0,0,1-6.461,6.461Zm6.717-11.668a1.51,1.51,0,1,1,1.51-1.51,1.51,1.51,0,0,1-1.51,1.51Zm0,0" transform="translate(-550.887 -251.891)" fill="#fff"/><path d="M448.913,128a21.913,21.913,0,1,0,21.913,21.913A21.915,21.915,0,0,0,448.913,128Zm12.507,27.1a9.231,9.231,0,0,1-.585,3.054,6.434,6.434,0,0,1-3.68,3.68,9.238,9.238,0,0,1-3.054.585c-1.342.061-1.77.076-5.188.076s-3.846-.015-5.188-.076a9.238,9.238,0,0,1-3.054-.585,6.434,6.434,0,0,1-3.68-3.68,9.228,9.228,0,0,1-.585-3.054c-.062-1.342-.076-1.771-.076-5.188s.014-3.846.076-5.188a9.232,9.232,0,0,1,.584-3.054,6.438,6.438,0,0,1,3.68-3.68,9.24,9.24,0,0,1,3.054-.585c1.342-.061,1.77-.076,5.188-.076s3.846.015,5.188.076a9.242,9.242,0,0,1,3.054.584,6.436,6.436,0,0,1,3.68,3.68,9.23,9.23,0,0,1,.585,3.054c.061,1.342.076,1.77.076,5.188s-.014,3.846-.076,5.188Zm0,0" transform="translate(-427 -128)" fill="#fff"/></svg>