<svg xmlns="http://www.w3.org/2000/svg" width="184.093" height="25" viewBox="0 0 184.093 25"><g transform="translate(0 0)"><g transform="translate(24.188 2.714)"><g transform="translate(0)"><g transform="translate(67.228 0.189)"><path d="M348.6,43.41h2.623v15.8c0,.592.18,1.149.881,1.149a4.059,4.059,0,0,0,1.058-.161l.5,2.362a6.989,6.989,0,0,1-2.091.319c-1.882,0-2.976-1.084-2.976-3.553V46.2h0Z" transform="translate(-348.6 -43.41)" fill="#fff"/><path d="M371.249,43.41h2.622v15.8c0,.592.179,1.149.881,1.149a4.1,4.1,0,0,0,1.06-.161l.5,2.362a7.007,7.007,0,0,1-2.092.319c-1.881,0-2.975-1.084-2.975-3.553V46.2h0Z" transform="translate(-364.487 -43.41)" fill="#fff"/></g><path d="M221.652,73.432a6.577,6.577,0,0,0,3.865,1.18c1.412,0,2.85-.3,2.85-1.527a.987.987,0,0,0-.2-.618c-1.057-1.286-5.62-.4-7.082-2.925a3.8,3.8,0,0,1-.455-1.9c0-2.738,2.17-4.076,4.891-4.076a10.859,10.859,0,0,1,4.847,1.232l-.882,2.281a8.738,8.738,0,0,0-3.864-.965c-1.563,0-2.242.535-2.242,1.367a1.072,1.072,0,0,0,.149.588c.833,1.449,5.043.646,6.807,2.522a3.17,3.17,0,0,1,.78,2.278c0,3.166-2.621,4.292-5.521,4.292a8.868,8.868,0,0,1-5-1.447Z" transform="translate(-191.585 -57.359)" fill="#fff"/><path d="M175.907,72.322V67.173h0V64.735h2.62v7.453c0,2.306,1.053,3.245,3.219,3.245s3.217-.885,3.217-3.191V64.735h2.623v7.587c0,4.05-2.512,5.659-5.893,5.659C178.291,77.981,175.907,76.346,175.907,72.322Z" transform="translate(-160.241 -58.179)" fill="#fff"/><path d="M137.611,59.666a4.728,4.728,0,0,1-1.161.161,2.621,2.621,0,0,1-1.765-.7c-1.009-.868-2.963-5.057-2.963-5.057a5.341,5.341,0,0,0,4.512-5.383,5.968,5.968,0,0,0-4.193-5.59,11.065,11.065,0,0,0-2.885-.321h-5.721V62.291h2.672v-7.63h2.819s2.7,5.438,4.094,6.585a4.664,4.664,0,0,0,3.051,1.178,5.785,5.785,0,0,0,2.093-.346ZM128.7,52.114h-2.589v-6.7h3.924a3.236,3.236,0,0,1,2.472.971,3.46,3.46,0,0,1,.932,2.352,3.166,3.166,0,0,1-2.117,3.107A9.107,9.107,0,0,1,128.7,52.114Z" transform="translate(-123.436 -42.778)" fill="#fff"/><path d="M261.9,73.432a6.584,6.584,0,0,0,3.865,1.18c1.411,0,2.849-.3,2.849-1.527a1,1,0,0,0-.2-.618c-1.058-1.286-5.621-.4-7.083-2.925a3.794,3.794,0,0,1-.454-1.9c0-2.738,2.168-4.076,4.89-4.076a10.869,10.869,0,0,1,4.848,1.232l-.883,2.281a8.736,8.736,0,0,0-3.864-.965c-1.563,0-2.242.535-2.242,1.367a1.047,1.047,0,0,0,.151.588c.833,1.449,5.041.646,6.806,2.522a3.171,3.171,0,0,1,.783,2.278c0,3.166-2.623,4.292-5.521,4.292a8.863,8.863,0,0,1-5-1.447Z" transform="translate(-219.82 -57.359)" fill="#fff"/><path d="M300.636,70.643a6.646,6.646,0,0,1,7.033-7.078c2.774,0,5.195,1.26,5.195,3.941,0,2.6-2.271,4.13-6.556,4.13a23.877,23.877,0,0,1-2.8-.134c.128,2.036,1.716,3.111,4.085,3.111a9.134,9.134,0,0,0,4.158-.991l.834,2.281a10.886,10.886,0,0,1-5.295,1.258C303.233,77.16,300.636,74.612,300.636,70.643Zm5.523-1.474c3.124,0,3.956-.912,3.956-1.745,0-.857-.981-1.31-2.42-1.31-2.093,0-3.68.992-4.083,2.921A20.81,20.81,0,0,0,306.159,69.169Z" transform="translate(-247.729 -57.359)" fill="#fff"/><path d="M419.032,43.337h2.67v8.091h9.123V43.337H433.5V62.7h-2.674V53.976H421.7V62.7h-2.67Z" transform="translate(-330.775 -43.17)" fill="#fff"/><path d="M473.423,70.374A6.806,6.806,0,1,1,480.2,77.16,6.6,6.6,0,0,1,473.423,70.374Zm10.865,0a4.063,4.063,0,1,0-4.086,4.238A3.986,3.986,0,0,0,484.288,70.374Z" transform="translate(-368.927 -57.359)" fill="#fff"/><path d="M624.841,73.432a6.575,6.575,0,0,0,3.863,1.18c1.414,0,2.852-.3,2.852-1.527a.972.972,0,0,0-.2-.618c-1.056-1.286-5.622-.4-7.083-2.925a3.819,3.819,0,0,1-.454-1.9c0-2.738,2.17-4.076,4.89-4.076a10.857,10.857,0,0,1,4.849,1.232l-.881,2.281a8.743,8.743,0,0,0-3.866-.965c-1.563,0-2.244.535-2.244,1.367a1.054,1.054,0,0,0,.15.588c.834,1.449,5.045.646,6.809,2.522a3.173,3.173,0,0,1,.779,2.278c0,3.166-2.62,4.292-5.519,4.292a8.853,8.853,0,0,1-5-1.447Z" transform="translate(-474.395 -57.359)" fill="#fff"/><path d="M531.231,49.463a6.57,6.57,0,0,0-4.111,1.356V43.46h-2.6V60.765a11.506,11.506,0,0,0,6.662,2.054,6.3,6.3,0,0,0,6.713-6.548A6.5,6.5,0,0,0,531.231,49.463Zm-.052,10.81a7.21,7.21,0,0,1-3.912-1.063V56.272c0-2.412,1.493-4.261,3.964-4.261,2.419,0,3.915,1.822,3.915,4.261A3.724,3.724,0,0,1,531.179,60.273Z" transform="translate(-404.766 -43.256)" fill="#fff"/><path d="M581.432,49.463a6.58,6.58,0,0,0-4.11,1.353V43.46h-2.6V60.765a11.5,11.5,0,0,0,6.66,2.054,6.3,6.3,0,0,0,6.712-6.548A6.5,6.5,0,0,0,581.432,49.463Zm-.051,10.81a6.423,6.423,0,0,1-3.913-1.063V56.272c0-2.412,1.494-4.261,3.964-4.261,2.419,0,3.913,1.822,3.913,4.261A3.722,3.722,0,0,1,581.381,60.273Z" transform="translate(-439.98 -43.256)" fill="#fff"/></g></g><path d="M59.431,46.187c0,6.9-3.807,12.5-8.5,12.5s-8.5-5.6-8.5-12.5,3.806-12.5,8.5-12.5S59.431,39.281,59.431,46.187Z" transform="translate(-42.424 -33.687)" fill="#d41317"/><g transform="translate(0.491 0.491)"><path d="M56.9,43.517a3.545,3.545,0,0,0,1.382-.122c.339-.079.727-.216,1.064-.331.359.3,1.155,1.079,1.525,1.415.042.042.123.125.222.222-.1.025-.2.053-.3.081h0c-.227.067-.4.123-.6.19.126.078.273.177.273.177.247-.073.538-.159.841-.237.063.059.127.115.185.165h0l.01.009.084.07h0a4.224,4.224,0,0,0,1.945.823,3.87,3.87,0,0,0,1.955-.254c.378-.138.7-.395.563-.84-.144-.48-.878-.58-1.287-.622a8.473,8.473,0,0,0-2.334.142l-.264.048c-.1-.09-.206-.18-.311-.26-.42-.353-1.332-1.132-1.753-1.462.132-.055.288-.116.437-.175l.1-.037c.111-.04.219-.075.322-.11a4.2,4.2,0,0,0,1.808.9,2.381,2.381,0,0,0,1.459-.235.635.635,0,0,0,.421-.772c-.107-.442-.656-.53-.961-.572a5.229,5.229,0,0,0-1.744.13l-.155.036h0c-.084.017-.171.038-.263.061l-.109-.09c-.886-.714-1.026-1.244-.92-1.732.032-.141-.343.281-.37.727a1.547,1.547,0,0,0,.554,1.306l.05.047c-.071.025-.143.054-.218.081h0l-.079.036c-.172.069-.357.148-.557.239a3.513,3.513,0,0,0-2.245-.81c-.386.024-2.106.4-1.513,1.33A1.288,1.288,0,0,0,56.9,43.517Zm6.857,1.136c.431.033.875.015,1.148.392a.553.553,0,0,1-.019.656L64.8,45.7a4.372,4.372,0,0,1-.746-.144,4.583,4.583,0,0,1-1.4-.687h0c-.064-.049-.133-.106-.206-.171A6.808,6.808,0,0,1,63.76,44.653Zm-1.668-2.547a3.959,3.959,0,0,1,.849-.019c.322.028.654.013.859.36a.6.6,0,0,1-.015.6l-.067-.007a2.851,2.851,0,0,1-.558-.132,3.867,3.867,0,0,1-1.184-.612c-.045-.033-.107-.082-.173-.134C61.91,42.14,62.006,42.121,62.093,42.106ZM57,42.042a2.142,2.142,0,0,1,.263.02,3.394,3.394,0,0,1,.909.25,4.5,4.5,0,0,1,.966.588,5.063,5.063,0,0,1-1.037.25c-.375.037-1.018.042-1.212-.473A.67.67,0,0,1,57,42.042Z" transform="translate(-52.443 -38.676)" fill="#fff"/><path d="M63.9,60.929a2.6,2.6,0,0,0-1.465-.606l-.16.452a1.779,1.779,0,0,1,1.436,1.575,1.213,1.213,0,0,1-.789,1.413,1.249,1.249,0,0,1-1.477-1.218,4.663,4.663,0,0,1,.368-1.764l.233-.61c.2-.53.407-1.058.611-1.59.063-.164.227-.564.237-.591.145-.359.349-.827.668-.823a1.057,1.057,0,0,1,.518.176l.282-.478a1.526,1.526,0,0,0-.643-.186,1.713,1.713,0,0,0-1.445.619,1.85,1.85,0,0,0-.286.425,13.916,13.916,0,0,0-.651,1.619c-.1.25-.211.534-.326.872H59.642a5.274,5.274,0,0,0-1.855-5,4.952,4.952,0,0,0-3.227-1.252c-.022,0-.057,0-.1.006a4.37,4.37,0,0,0-1.319.258,1.126,1.126,0,0,0-.757.591c-.156.436.442.715.75.812a4.954,4.954,0,0,0,2.144.086,7.581,7.581,0,0,0,.9-.155,1.706,1.706,0,0,0-.253-.165,4.23,4.23,0,0,1-1.343,0,1.82,1.82,0,0,1-.947-.37.56.56,0,0,1-.17-.293.419.419,0,0,1,.05-.291.585.585,0,0,1,.089-.11l.016-.011a.2.2,0,0,0,.029,0h.01a5.334,5.334,0,0,1,2.731.989l.236.156.049.034a4.785,4.785,0,0,1,1.737,2.235,4.2,4.2,0,0,1-1.323,5.069,4.516,4.516,0,0,0,.39.488,4.556,4.556,0,0,0,2.074-2.526H60.8a3.07,3.07,0,0,0-.205,2.359c.648,1.537,3.039,1.342,3.689.045A1.949,1.949,0,0,0,63.9,60.929Z" transform="translate(-49.882 -48.397)" fill="#fff"/><path d="M61.606,93.406a3.568,3.568,0,0,0-1.382.124c-.341.079-.727.215-1.064.331-.358-.3-1.155-1.08-1.525-1.415-.042-.043-.124-.123-.222-.221l.3-.08v0c.23-.066.375-.111.573-.177-.156-.1-.276-.184-.276-.184-.239.07-.5.155-.811.233-.064-.059-.126-.115-.185-.166h0a.022.022,0,0,0-.01-.007l-.084-.071h0a4.231,4.231,0,0,0-1.946-.822,3.855,3.855,0,0,0-1.952.253c-.377.139-.7.4-.565.841.144.481.88.58,1.288.623a8.565,8.565,0,0,0,2.334-.142l.264-.048c.1.09.206.178.31.258.42.353,1.333,1.133,1.755,1.464-.133.055-.288.116-.439.175-.031.011-.064.022-.1.036-.111.039-.218.076-.321.109a4.21,4.21,0,0,0-1.808-.9,2.371,2.371,0,0,0-1.46.235.634.634,0,0,0-.42.771c.107.442.657.531.962.573a5.239,5.239,0,0,0,1.745-.13l.153-.035h0c.084-.016.171-.037.263-.061l.109.09c.886.713,1.025,1.244.919,1.734-.03.141.345-.284.373-.728a1.559,1.559,0,0,0-.555-1.307c-.015-.016-.033-.03-.049-.046.069-.025.142-.054.217-.083h0c.025-.01.052-.023.079-.033.173-.072.356-.15.558-.241a3.523,3.523,0,0,0,2.244.809c.388-.025,2.106-.4,1.513-1.33A1.282,1.282,0,0,0,61.606,93.406ZM54.75,92.27c-.433-.032-.876-.015-1.15-.392a.55.55,0,0,1,.021-.656l.089.007a4.467,4.467,0,0,1,.747.143,4.631,4.631,0,0,1,1.4.687h0c.064.05.133.109.205.173A6.75,6.75,0,0,1,54.75,92.27Zm1.668,2.548a4.03,4.03,0,0,1-.85.019c-.322-.029-.654-.015-.859-.36a.6.6,0,0,1,.015-.6l.067.007a2.673,2.673,0,0,1,.558.132,3.819,3.819,0,0,1,1.184.612c.045.033.107.08.173.134C56.6,94.783,56.5,94.8,56.418,94.817Zm5.092.064c-.088,0-.176-.01-.263-.018a3.469,3.469,0,0,1-.909-.252,4.544,4.544,0,0,1-.966-.588,5.162,5.162,0,0,1,1.038-.249c.376-.038,1.018-.043,1.213.472A.674.674,0,0,1,61.509,94.881Z" transform="translate(-49.925 -74.315)" fill="#fff"/><path d="M57.688,38.777c-1.511-2.224-3.5-3.447-5.606-3.447s-4.1,1.223-5.607,3.447a15.332,15.332,0,0,0-2.406,8.562A15.344,15.344,0,0,0,46.476,55.9c1.511,2.223,3.5,3.446,5.607,3.446s4.095-1.224,5.606-3.446a15.342,15.342,0,0,0,2.406-8.563A15.33,15.33,0,0,0,57.688,38.777Zm-.248,16.956c-1.454,2.138-3.357,3.314-5.358,3.314s-3.905-1.176-5.359-3.314a15.042,15.042,0,0,1-2.353-8.393,15.041,15.041,0,0,1,2.353-8.394c1.454-2.137,3.357-3.315,5.359-3.315s3.9,1.177,5.358,3.315a15.041,15.041,0,0,1,2.353,8.394A15.042,15.042,0,0,1,57.441,55.733Z" transform="translate(-44.07 -35.33)" fill="#fff"/><path d="M60.276,71.377a5.849,5.849,0,0,0-1.827.13c-.414.077-.688.134-1.067.234a1.932,1.932,0,0,0,.269.176,5.629,5.629,0,0,1,1.042-.154c.5-.037,1.345-.045,1.6.5a.6.6,0,0,1-.146.667c-.116,0-.233-.01-.348-.021a5.63,5.63,0,0,1-1.2-.263,7.392,7.392,0,0,1-1.378-.612h0l-.136-.081A9.714,9.714,0,0,1,54.672,69.9a9.077,9.077,0,0,1-1.305-2.187,2.564,2.564,0,0,0,1.8-1.47,2.472,2.472,0,0,0-2.02-2.952c-1.433-.376-3.159.056-3.726,1.427a2.066,2.066,0,0,0,.986,2.557l.362-.863a1.617,1.617,0,0,1-.633-1.837c.441-1.069,1.742-1.064,2.625-.681a2.146,2.146,0,0,1,1.328,2.528,1.431,1.431,0,0,1-.823.887,1.89,1.89,0,0,1-1.14-.057c.35-.916.623-1.642.97-2.556a2.772,2.772,0,0,0-.858-.438c-.006.011-.68,1.788-1.052,2.759q-.341.892-.682,1.782c-.059.156-.116.312-.18.466-.145.359-.349.826-.667.823a1.1,1.1,0,0,1-.519-.174l-.281.476a1.553,1.553,0,0,0,.643.186A1.931,1.931,0,0,0,51.413,69.1c.169-.419.325-.841.485-1.263.1.012.208.02.316.023a9.31,9.31,0,0,0,1.98,2.988,10.324,10.324,0,0,0,1.847,1.432h0l.145.087h0a5.806,5.806,0,0,0,3.112.868c.512-.024,2.785-.417,2-1.4A1.856,1.856,0,0,0,60.276,71.377Z" transform="translate(-47.425 -54.851)" fill="#fff"/></g></g></svg>