<svg xmlns="http://www.w3.org/2000/svg" width="43.826" height="43.826" viewBox="0 0 43.826 43.826"><g transform="translate(0)"><path d="M-328.887,270.14l7.128-4.105-7.128-4.105Zm0,0" transform="translate(348.07 -244.121)" fill="#fff"/><path d="M-531.087,53.89A21.915,21.915,0,0,0-553,75.8a21.915,21.915,0,0,0,21.913,21.913A21.915,21.915,0,0,0-509.174,75.8,21.915,21.915,0,0,0-531.087,53.89ZM-517.4,75.825a36.163,36.163,0,0,1-.564,6.587,3.431,3.431,0,0,1-2.414,2.413c-2.143.564-10.715.564-10.715.564s-8.549,0-10.715-.587a3.432,3.432,0,0,1-2.414-2.414,36.01,36.01,0,0,1-.564-6.587,36.145,36.145,0,0,1,.564-6.587A3.5,3.5,0,0,1-541.8,66.78c2.143-.564,10.715-.564,10.715-.564s8.572,0,10.715.587a3.431,3.431,0,0,1,2.414,2.414,34.316,34.316,0,0,1,.564,6.609Zm0,0" transform="translate(553 -53.89)" fill="#fff"/></g></svg>