<svg xmlns="http://www.w3.org/2000/svg" width="256.542" height="34.839" viewBox="0 0 256.542 34.839"><g transform="translate(33.707 3.783)"><g transform="translate(0)"><g transform="translate(93.685 0.263)"><path d="M348.6,43.41h3.656V65.421c0,.825.25,1.6,1.228,1.6a5.656,5.656,0,0,0,1.475-.225l.7,3.292a9.739,9.739,0,0,1-2.913.444c-2.623,0-4.147-1.511-4.147-4.951V47.292h0Z" transform="translate(-348.6 -43.41)" fill="#fff"/><path d="M371.249,43.41H374.9V65.421c0,.825.249,1.6,1.228,1.6a5.707,5.707,0,0,0,1.477-.225l.7,3.292a9.764,9.764,0,0,1-2.915.444c-2.621,0-4.145-1.511-4.145-4.951V47.292h0Z" transform="translate(-361.825 -43.41)" fill="#fff"/></g><path d="M222.068,77.315a9.165,9.165,0,0,0,5.386,1.644c1.967,0,3.971-.414,3.971-2.128a1.376,1.376,0,0,0-.284-.861c-1.472-1.792-7.831-.559-9.868-4.075a5.3,5.3,0,0,1-.634-2.65c0-3.815,3.024-5.68,6.816-5.68a15.133,15.133,0,0,1,6.755,1.717l-1.229,3.179c-2.354-.939-3.278-1.344-5.385-1.344-2.178,0-3.125.746-3.125,1.9a1.493,1.493,0,0,0,.208.819c1.16,2.019,7.027.9,9.486,3.515a4.418,4.418,0,0,1,1.088,3.175c0,4.412-3.653,5.981-7.694,5.981a12.358,12.358,0,0,1-6.965-2.016Z" transform="translate(-180.169 -54.916)" fill="#fff"/><path d="M175.907,75.308V68.133h0v-3.4h3.651V75.121c0,3.213,1.467,4.522,4.485,4.522s4.483-1.234,4.483-4.447V64.735h3.656V75.308c0,5.643-3.5,7.886-8.212,7.886C179.23,83.194,175.907,80.915,175.907,75.308Z" transform="translate(-154.075 -55.599)" fill="#fff"/><path d="M143.189,66.312a6.589,6.589,0,0,1-1.618.224,3.652,3.652,0,0,1-2.459-.972c-1.406-1.209-4.129-7.047-4.129-7.047a7.442,7.442,0,0,0,6.288-7.5,8.317,8.317,0,0,0-5.843-7.79,15.419,15.419,0,0,0-4.02-.448h-7.972V69.97h3.724V59.337h3.929s3.759,7.578,5.705,9.176a6.5,6.5,0,0,0,4.252,1.641,8.061,8.061,0,0,0,2.916-.482ZM130.768,55.788H127.16v-9.33h5.469a4.51,4.51,0,0,1,3.444,1.353,4.821,4.821,0,0,1,1.3,3.278,4.412,4.412,0,0,1-2.951,4.329A12.691,12.691,0,0,1,130.768,55.788Z" transform="translate(-123.436 -42.778)" fill="#fff"/><path d="M262.319,77.315a9.176,9.176,0,0,0,5.386,1.644c1.967,0,3.97-.414,3.97-2.128a1.392,1.392,0,0,0-.281-.861c-1.475-1.792-7.833-.559-9.871-4.075a5.286,5.286,0,0,1-.633-2.65c0-3.815,3.021-5.68,6.814-5.68a15.146,15.146,0,0,1,6.757,1.717l-1.231,3.179c-2.354-.939-3.278-1.344-5.385-1.344-2.178,0-3.125.746-3.125,1.9a1.459,1.459,0,0,0,.21.819c1.161,2.019,7.025.9,9.484,3.515a4.419,4.419,0,0,1,1.091,3.175c0,4.412-3.656,5.981-7.694,5.981a12.351,12.351,0,0,1-6.965-2.016Z" transform="translate(-203.674 -54.916)" fill="#fff"/><path d="M300.636,73.428c0-6.163,4.113-9.863,9.8-9.863,3.866,0,7.239,1.755,7.239,5.493,0,3.624-3.164,5.755-9.136,5.755a33.271,33.271,0,0,1-3.9-.187c.179,2.838,2.391,4.335,5.693,4.335a12.728,12.728,0,0,0,5.794-1.381l1.162,3.179a15.17,15.17,0,0,1-7.378,1.753C304.255,82.511,300.636,78.96,300.636,73.428Zm7.7-2.054c4.353,0,5.513-1.271,5.513-2.432,0-1.195-1.368-1.826-3.372-1.826-2.916,0-5.128,1.382-5.689,4.071A29,29,0,0,0,308.332,71.375Z" transform="translate(-226.908 -54.916)" fill="#fff"/><path d="M419.032,43.337h3.721V54.613h12.714V43.337h3.726V70.326h-3.726V58.163H422.753V70.326h-3.721Z" transform="translate(-296.043 -43.104)" fill="#fff"/><path d="M473.423,73.054a9.484,9.484,0,1,1,9.447,9.457A9.2,9.2,0,0,1,473.423,73.054Zm15.141,0c0-3.4-2.251-5.937-5.623-5.937a5.928,5.928,0,1,0,5.623,5.937Z" transform="translate(-327.803 -54.916)" fill="#fff"/><path d="M625.257,77.315a9.163,9.163,0,0,0,5.383,1.644c1.97,0,3.974-.414,3.974-2.128a1.354,1.354,0,0,0-.285-.861c-1.472-1.792-7.834-.559-9.871-4.075a5.322,5.322,0,0,1-.632-2.65c0-3.815,3.024-5.68,6.814-5.68a15.129,15.129,0,0,1,6.757,1.717l-1.228,3.179c-2.357-.939-3.277-1.344-5.387-1.344-2.179,0-3.127.746-3.127,1.9a1.47,1.47,0,0,0,.21.819c1.163,2.019,7.03.9,9.489,3.515a4.421,4.421,0,0,1,1.085,3.175c0,4.412-3.651,5.981-7.691,5.981a12.337,12.337,0,0,1-6.963-2.016Z" transform="translate(-415.603 -54.916)" fill="#fff"/><path d="M533.873,51.825a9.156,9.156,0,0,0-5.729,1.889V43.46h-3.627V67.576a16.034,16.034,0,0,0,9.284,2.863c5.766,0,9.354-3.89,9.354-9.124C543.155,56.048,539.527,51.825,533.873,51.825ZM533.8,66.889a10.047,10.047,0,0,1-5.451-1.481V61.314c0-3.362,2.081-5.937,5.524-5.937,3.371,0,5.456,2.539,5.456,5.937A5.19,5.19,0,0,1,533.8,66.889Z" transform="translate(-357.638 -43.176)" fill="#fff"/><path d="M584.073,51.825a9.17,9.17,0,0,0-5.727,1.885V43.46h-3.624V67.576A16.023,16.023,0,0,0,584,70.439c5.761,0,9.354-3.89,9.354-9.124C593.356,56.048,589.726,51.825,584.073,51.825ZM584,66.889a8.951,8.951,0,0,1-5.453-1.481V61.314c0-3.362,2.082-5.937,5.524-5.937,3.371,0,5.452,2.539,5.452,5.937A5.187,5.187,0,0,1,584,66.889Z" transform="translate(-386.954 -43.176)" fill="#fff"/></g></g><g transform="translate(0 0)"><path d="M66.124,51.106c0,9.62-5.305,17.419-11.849,17.419s-11.851-7.8-11.851-17.419,5.3-17.419,11.851-17.419S66.124,41.483,66.124,51.106Z" transform="translate(-42.424 -33.687)" fill="#d41317"/><g transform="translate(0.685 0.684)"><path d="M57.256,44.861a4.94,4.94,0,0,0,1.926-.17c.473-.111,1.013-.3,1.483-.461.5.423,1.609,1.5,2.125,1.972.058.058.172.174.31.309-.136.035-.274.073-.414.112h0c-.317.094-.564.172-.836.264.175.109.381.246.381.246.344-.1.749-.221,1.172-.33.088.082.177.16.257.23h0a.18.18,0,0,0,.013.012c.041.035.082.069.118.1H63.8a5.886,5.886,0,0,0,2.71,1.146,5.393,5.393,0,0,0,2.724-.354c.526-.192.971-.55.785-1.171-.2-.669-1.224-.808-1.794-.867a11.807,11.807,0,0,0-3.252.2c-.119.021-.243.043-.368.067-.141-.125-.288-.25-.433-.362-.585-.491-1.856-1.577-2.443-2.037.184-.077.4-.162.61-.244l.141-.051c.155-.056.3-.1.449-.154a5.856,5.856,0,0,0,2.519,1.25,3.319,3.319,0,0,0,2.033-.327.884.884,0,0,0,.587-1.076c-.149-.616-.914-.739-1.339-.8a7.286,7.286,0,0,0-2.43.181l-.216.05h0c-.117.024-.238.053-.366.085l-.151-.126c-1.234-.994-1.43-1.734-1.282-2.414.045-.2-.478.392-.516,1.013a2.156,2.156,0,0,0,.771,1.82c.02.02.046.042.07.065-.1.035-.2.075-.3.113h0l-.111.05c-.24.1-.5.206-.776.334A4.9,4.9,0,0,0,58.286,42.4c-.538.034-2.935.553-2.108,1.853A1.8,1.8,0,0,0,57.256,44.861Zm9.556,1.584c.6.047,1.219.021,1.6.547a.77.77,0,0,1-.027.915l-.126-.009a6.092,6.092,0,0,1-1.04-.2,6.387,6.387,0,0,1-1.945-.957h0c-.089-.068-.186-.148-.288-.238A9.487,9.487,0,0,1,66.812,46.445ZM64.488,42.9a5.518,5.518,0,0,1,1.183-.026c.449.039.911.018,1.2.5a.84.84,0,0,1-.02.841l-.094-.01a3.974,3.974,0,0,1-.778-.183,5.388,5.388,0,0,1-1.649-.853c-.063-.047-.149-.114-.24-.187C64.234,42.943,64.367,42.916,64.488,42.9Zm-7.1-.089a2.984,2.984,0,0,1,.366.027,4.73,4.73,0,0,1,1.267.349A6.271,6.271,0,0,1,60.37,44a7.055,7.055,0,0,1-1.445.349c-.523.051-1.418.059-1.689-.659A.934.934,0,0,1,57.391,42.807Z" transform="translate(-51.04 -38.115)" fill="#fff"/><path d="M68.437,63.673a3.625,3.625,0,0,0-2.041-.845l-.223.63a2.479,2.479,0,0,1,2,2.195,1.69,1.69,0,0,1-1.1,1.968,1.74,1.74,0,0,1-2.059-1.7,6.5,6.5,0,0,1,.512-2.459l.325-.85c.283-.739.567-1.475.852-2.216.088-.228.317-.786.33-.824.2-.5.487-1.153.931-1.146a1.473,1.473,0,0,1,.722.245l.392-.666a2.126,2.126,0,0,0-.9-.259,2.388,2.388,0,0,0-2.014.862,2.578,2.578,0,0,0-.4.592,19.393,19.393,0,0,0-.908,2.256c-.134.348-.294.744-.454,1.215h-1.9a7.35,7.35,0,0,0-2.585-6.97,6.9,6.9,0,0,0-4.5-1.745c-.031,0-.08,0-.143.008a6.09,6.09,0,0,0-1.839.359,1.569,1.569,0,0,0-1.054.824c-.218.608.617,1,1.046,1.132a6.9,6.9,0,0,0,2.988.119,10.564,10.564,0,0,0,1.252-.216,2.377,2.377,0,0,0-.352-.23,5.9,5.9,0,0,1-1.872-.005,2.537,2.537,0,0,1-1.319-.516.78.78,0,0,1-.237-.408.584.584,0,0,1,.07-.406.815.815,0,0,1,.124-.153l.022-.016a.273.273,0,0,0,.041,0h.013a7.433,7.433,0,0,1,3.806,1.378l.329.218c.022.016.046.031.068.048A6.668,6.668,0,0,1,60.792,59.2a5.858,5.858,0,0,1-1.844,7.064,6.294,6.294,0,0,0,.543.681,6.349,6.349,0,0,0,2.891-3.52h1.747a4.278,4.278,0,0,0-.286,3.287c.9,2.142,4.235,1.87,5.141.063A2.716,2.716,0,0,0,68.437,63.673Z" transform="translate(-48.909 -46.208)" fill="#fff"/><path d="M65.222,94.389a4.972,4.972,0,0,0-1.926.172c-.475.11-1.013.3-1.483.461-.5-.42-1.609-1.505-2.125-1.972-.058-.06-.172-.171-.31-.308.136-.036.274-.075.414-.112l0,0c.32-.092.523-.154.8-.246-.218-.133-.385-.257-.385-.257-.334.1-.7.216-1.13.325-.089-.082-.175-.16-.257-.231h0a.03.03,0,0,0-.014-.01c-.041-.036-.082-.069-.118-.1h0a5.9,5.9,0,0,0-2.712-1.145,5.372,5.372,0,0,0-2.721.352c-.526.194-.972.551-.787,1.172.2.67,1.226.808,1.795.868a11.935,11.935,0,0,0,3.252-.2l.368-.067c.141.125.288.248.432.36.586.492,1.858,1.579,2.445,2.04-.186.077-.4.161-.612.243-.044.015-.09.031-.141.051-.155.055-.3.106-.448.151a5.867,5.867,0,0,0-2.52-1.248A3.3,3.3,0,0,0,55,95.015a.883.883,0,0,0-.586,1.075c.149.616.916.74,1.34.8a7.3,7.3,0,0,0,2.431-.182l.213-.049h0c.117-.023.238-.052.366-.084.09.076.151.125.151.125,1.234.994,1.428,1.733,1.281,2.417-.042.2.48-.4.519-1.014a2.173,2.173,0,0,0-.773-1.822c-.02-.022-.047-.041-.068-.064.1-.035.2-.076.3-.116h0c.035-.013.072-.032.109-.046.242-.1.5-.21.778-.335a4.91,4.91,0,0,0,3.128,1.128c.54-.035,2.935-.552,2.108-1.854A1.786,1.786,0,0,0,65.222,94.389ZM55.668,92.8c-.6-.044-1.221-.02-1.6-.546a.766.766,0,0,1,.029-.915c.041,0,.082.007.124.01a6.224,6.224,0,0,1,1.041.2,6.454,6.454,0,0,1,1.945.957v0c.089.07.186.152.286.242A9.407,9.407,0,0,1,55.668,92.8Zm2.324,3.55a5.617,5.617,0,0,1-1.185.027c-.449-.041-.911-.02-1.2-.5a.843.843,0,0,1,.02-.841l.094.01a3.724,3.724,0,0,1,.778.184,5.322,5.322,0,0,1,1.65.853c.063.045.149.112.242.187C58.246,96.307,58.112,96.337,57.992,96.355Zm7.1.089c-.123,0-.245-.014-.366-.025a4.834,4.834,0,0,1-1.267-.351,6.333,6.333,0,0,1-1.347-.819,7.194,7.194,0,0,1,1.446-.347c.524-.053,1.418-.059,1.691.657A.939.939,0,0,1,65.088,96.444Z" transform="translate(-48.944 -67.784)" fill="#fff"/><path d="M63.048,40.134c-2.106-3.1-4.881-4.8-7.812-4.8s-5.708,1.7-7.814,4.8A21.366,21.366,0,0,0,44.07,52.066,21.382,21.382,0,0,0,47.422,64c2.106,3.1,4.882,4.8,7.814,4.8S60.942,67.1,63.048,64A21.379,21.379,0,0,0,66.4,52.066,21.363,21.363,0,0,0,63.048,40.134ZM62.7,63.762c-2.026,2.979-4.679,4.618-7.466,4.618s-5.442-1.639-7.468-4.618a20.961,20.961,0,0,1-3.279-11.7,20.96,20.96,0,0,1,3.279-11.7c2.026-2.978,4.677-4.619,7.468-4.619s5.44,1.64,7.466,4.619a20.96,20.96,0,0,1,3.279,11.7A20.961,20.961,0,0,1,62.7,63.762Z" transform="translate(-44.07 -35.33)" fill="#fff"/><path d="M64.772,74.61a8.15,8.15,0,0,0-2.546.181c-.578.107-.959.187-1.487.327a2.692,2.692,0,0,0,.374.245,7.844,7.844,0,0,1,1.453-.215c.692-.051,1.875-.062,2.232.694a.832.832,0,0,1-.2.93c-.162,0-.325-.014-.486-.029a7.846,7.846,0,0,1-1.676-.367,10.3,10.3,0,0,1-1.921-.853h0l-.189-.112a13.536,13.536,0,0,1-3.364-2.859A12.649,12.649,0,0,1,55.143,69.5a3.573,3.573,0,0,0,2.5-2.049c.618-1.963-1.006-3.638-2.814-4.114-2-.525-4.4.079-5.192,1.989a2.879,2.879,0,0,0,1.374,3.564l.5-1.2a2.253,2.253,0,0,1-.882-2.56c.615-1.489,2.428-1.482,3.658-.949a2.99,2.99,0,0,1,1.85,3.522A2,2,0,0,1,55,68.94a2.634,2.634,0,0,1-1.589-.08c.487-1.276.869-2.288,1.352-3.562a3.863,3.863,0,0,0-1.2-.61c-.008.015-.948,2.491-1.466,3.845q-.475,1.243-.95,2.484c-.082.217-.162.435-.25.649-.2.5-.487,1.15-.93,1.147a1.529,1.529,0,0,1-.724-.243l-.392.664a2.163,2.163,0,0,0,.9.259c1.272.035,2.112-.652,2.672-2.061.235-.583.453-1.173.676-1.76.145.017.29.028.44.032a12.974,12.974,0,0,0,2.759,4.164,14.386,14.386,0,0,0,2.574,2h0l.2.121h0a8.091,8.091,0,0,0,4.336,1.209c.714-.034,3.881-.58,2.787-1.949A2.586,2.586,0,0,0,64.772,74.61Z" transform="translate(-46.863 -51.581)" fill="#fff"/></g></g></svg>