<svg xmlns="http://www.w3.org/2000/svg" width="30.474" height="36.413" viewBox="0 0 30.474 36.413"><g transform="translate(0.687 0.65)"><path d="M2262.842,561.97a6.7,6.7,0,0,0,4.3-11.846V533.376a4.3,4.3,0,0,0-4.3-4.3" transform="translate(-2245.477 -526.858)" fill="none" stroke="#666" stroke-linecap="round" stroke-linejoin="round" stroke-width="1.3"/><path d="M2239.175,535.519l-1.6-2.949a1.623,1.623,0,0,1-.2-.776v-6.56h11.978" transform="translate(-2234.72 -525.234)" fill="none" stroke="#666" stroke-linecap="round" stroke-linejoin="round" stroke-width="1.3"/><path d="M2244.488,543.042h-5.312l-1.21,2.7a6.872,6.872,0,0,0-.588,2.8v3.945a1.623,1.623,0,0,0,1.624,1.622h5.8" transform="translate(-2234.72 -532.757)" fill="none" stroke="#666" stroke-linecap="round" stroke-linejoin="round" stroke-width="1.3"/><line x1="7.112" transform="translate(2.657 6.434)" fill="none" stroke="#666" stroke-linecap="round" stroke-linejoin="round" stroke-width="1.3"/><path d="M2236.294,546.1h-1.871a.646.646,0,0,0-.573.431,10.92,10.92,0,0,0-1.075,4.314" transform="translate(-2232.776 -534.048)" fill="none" stroke="#666" stroke-linecap="round" stroke-linejoin="round" stroke-width="1.3"/><path d="M2243.077,565.528h-5.7v-.722a2.6,2.6,0,0,1,2.6-2.6" transform="translate(-2234.72 -540.854)" fill="none" stroke="#666" stroke-linecap="round" stroke-linejoin="round" stroke-width="1.3"/><path d="M2257.938,561.97a6.7,6.7,0,0,1-4.3-11.846V533.376a4.3,4.3,0,0,1,4.3-4.3" transform="translate(-2240.574 -526.858)" fill="none" stroke="#666" stroke-linecap="round" stroke-linejoin="round" stroke-width="1.3"/><circle cx="3.047" cy="3.047" r="3.047" transform="translate(14.318 25.592)" fill="none" stroke="#666" stroke-linecap="round" stroke-linejoin="round" stroke-width="1.3"/><line x2="3.867" transform="translate(25.271 13.428)" fill="none" stroke="#666" stroke-linecap="round" stroke-linejoin="round" stroke-width="1.3"/><line x2="3.867" transform="translate(25.271 19.045)" fill="none" stroke="#666" stroke-linecap="round" stroke-linejoin="round" stroke-width="1.3"/><line x2="3.867" transform="translate(25.271 7.81)" fill="none" stroke="#666" stroke-linecap="round" stroke-linejoin="round" stroke-width="1.3"/><line y1="14.876" transform="translate(17.364 10.715)" fill="none" stroke="#666" stroke-linecap="round" stroke-linejoin="round" stroke-width="1.3"/></g></svg>