<svg xmlns="http://www.w3.org/2000/svg" width="39.718" height="36.419" viewBox="0 0 39.718 36.419"><g transform="translate(-642.381 -2318.898)"><path d="M1234.723,525.234v9.336a2.3,2.3,0,0,0,.28,1.1l2.279,4.2h12.75l2.279-4.2a2.315,2.315,0,0,0,.28-1.1v-9.336Z" transform="translate(-580.978 1794.314)" fill="none" stroke="#666" stroke-linecap="round" stroke-linejoin="round" stroke-width="1.3"/><path d="M1250.032,550.577h-12.75l-1.722,3.838a9.788,9.788,0,0,0-.837,3.992v5.615a2.309,2.309,0,0,0,2.31,2.308h13.248a2.309,2.309,0,0,0,2.31-2.308v-5.615a9.788,9.788,0,0,0-.837-3.992Z" transform="translate(-580.978 1783.608)" fill="none" stroke="#666" stroke-linecap="round" stroke-linejoin="round" stroke-width="1.3"/><line x1="17.869" transform="translate(653.745 2328.704)" fill="none" stroke="#666" stroke-linecap="round" stroke-linejoin="round" stroke-width="1.3"/><path d="M1233.183,554.925h-2.662a.921.921,0,0,0-.816.614,15.559,15.559,0,0,0-1.528,6.139" transform="translate(-578.212 1781.771)" fill="none" stroke="#666" stroke-linecap="round" stroke-linejoin="round" stroke-width="1.3"/><path d="M4,0h9.869a4,4,0,0,1,4,4v.722a0,0,0,0,1,0,0H0a0,0,0,0,1,0,0V4A4,4,0,0,1,4,0Z" transform="translate(653.745 2349.939)" fill="none" stroke="#666" stroke-linecap="round" stroke-linejoin="round" stroke-width="1.3"/><g transform="translate(674.648 2346.65)"><line y1="3.759" x2="2.17" fill="none" stroke="#666" stroke-linecap="round" stroke-linejoin="round" stroke-width="1.3"/><line y1="2.17" x2="3.759" transform="translate(1.8 3.389)" fill="none" stroke="#666" stroke-linecap="round" stroke-linejoin="round" stroke-width="1.3"/><line x2="4.338" transform="translate(2.462 8.018)" fill="none" stroke="#666" stroke-linecap="round" stroke-linejoin="round" stroke-width="1.3"/></g><g transform="translate(643.031 2346.65)"><line x1="2.17" y1="3.759" transform="translate(4.63)" fill="none" stroke="#666" stroke-linecap="round" stroke-linejoin="round" stroke-width="1.3"/><line x1="3.759" y1="2.17" transform="translate(1.241 3.389)" fill="none" stroke="#666" stroke-linecap="round" stroke-linejoin="round" stroke-width="1.3"/><line x1="4.338" transform="translate(0 8.018)" fill="none" stroke="#666" stroke-linecap="round" stroke-linejoin="round" stroke-width="1.3"/></g></g></svg>