<svg xmlns="http://www.w3.org/2000/svg" width="26.695" height="36.174" viewBox="0 0 26.695 36.174"><g transform="translate(0.919 0.65)"><path d="M0,0H18.974a0,0,0,0,1,0,0V5.417A9.487,9.487,0,0,1,9.487,14.9h0A9.487,9.487,0,0,1,0,5.417V0A0,0,0,0,1,0,0Z" transform="translate(0.618 19.971)" fill="none" stroke="#666" stroke-linecap="round" stroke-linejoin="round" stroke-width="1.3"/><path d="M3705.632,563.852h3.578a1.953,1.953,0,0,1,1.957,1.962c-.022,2.881-.667,6.388-6.624,6.561" transform="translate(-3686.04 -541.787)" fill="none" stroke="#666" stroke-linecap="round" stroke-linejoin="round" stroke-width="1.3"/><line x1="18.974" transform="translate(0.618 34.874)" fill="none" stroke="#666" stroke-linecap="round" stroke-linejoin="round" stroke-width="1.3"/><line x2="4.837" y2="4.837" transform="translate(15.962 6.687)" fill="none" stroke="#666" stroke-linecap="round" stroke-linejoin="round" stroke-width="1.3"/><line x1="4.837" y2="4.837" transform="translate(15.962 6.687)" fill="none" stroke="#666" stroke-linecap="round" stroke-linejoin="round" stroke-width="1.3"/><path d="M3676.161,537.21V525.647l-3.653,3.432" transform="translate(-3672.507 -525.647)" fill="none" stroke="#666" stroke-linecap="round" stroke-linejoin="round" stroke-width="1.3"/><path d="M3684.593,534.3a2.894,2.894,0,1,0,5.789,0v-5.762a2.894,2.894,0,1,0-5.789,0Z" transform="translate(-3677.613 -525.647)" fill="none" stroke="#666" stroke-linecap="round" stroke-linejoin="round" stroke-width="1.3"/></g></svg>