<svg xmlns="http://www.w3.org/2000/svg" width="29.937" height="33.487" viewBox="0 0 29.937 33.487"><g transform="translate(-4195.583 -178.233)"><g transform="translate(4200.091 178.883)"><path d="M4216.417,197.7a38.963,38.963,0,0,1,3.817-10.554h10.021c2.807,5.44,5.012,11.4,5.012,24.567h-13.638" transform="translate(-4210.835 -183.283)" fill="none" stroke="#666" stroke-linecap="round" stroke-linejoin="round" stroke-width="1.3"/><path d="M3.866,0H6.156a3.866,3.866,0,0,1,3.866,3.866v0a0,0,0,0,1,0,0H0a0,0,0,0,1,0,0v0A3.866,3.866,0,0,1,3.866,0Z" transform="translate(9.398)" fill="none" stroke="#666" stroke-linecap="round" stroke-linejoin="round" stroke-width="1.3"/><path d="M4213.88,187.149h-4.637a1.874,1.874,0,0,0-1.656,1,21.477,21.477,0,0,0-3.105,10" transform="translate(-4204.482 -183.283)" fill="none" stroke="#666" stroke-linecap="round" stroke-linejoin="round" stroke-width="1.3"/><path d="M4246.006,187.149h5.358l-3,5.328" transform="translate(-4226.586 -183.283)" fill="none" stroke="#666" stroke-linecap="round" stroke-linejoin="round" stroke-width="1.3"/><line x1="11.937" transform="translate(12.426 24.609)" fill="none" stroke="#666" stroke-linecap="round" stroke-linejoin="round" stroke-width="1.3"/></g><path d="M4211.046,215.585a10.7,10.7,0,0,0,6.928,1.654c-.331,3.031-1.84,12.029-6.928,13.235" transform="translate(-7.885 -19.537)" fill="none" stroke="#666" stroke-linecap="round" stroke-linejoin="round" stroke-width="1.3"/><path d="M4203.161,215.585a10.706,10.706,0,0,1-6.928,1.654c.331,3.031,1.84,12.029,6.928,13.235" transform="translate(0 -19.537)" fill="none" stroke="#666" stroke-linecap="round" stroke-linejoin="round" stroke-width="1.3"/></g></svg>