<svg xmlns="http://www.w3.org/2000/svg" width="39.4" height="36.826" viewBox="0 0 39.4 36.826"><g transform="translate(-824.204 -1883.057)"><g transform="translate(832.449 1889.864)"><path d="M3685.317,204.746c0-9.434,1.58-13.7,3.589-17.6h7.178c2.01,3.9,3.589,8.163,3.589,17.6Z" transform="translate(-3682.174 -184.38)" fill="none" stroke="#666" stroke-linecap="round" stroke-linejoin="round" stroke-width="1.3"/><path d="M2.769,0H4.409A2.769,2.769,0,0,1,7.178,2.769v0a0,0,0,0,1,0,0H0a0,0,0,0,1,0,0v0A2.769,2.769,0,0,1,2.769,0Z" transform="translate(6.732)" fill="none" stroke="#666" stroke-linecap="round" stroke-linejoin="round" stroke-width="1.3"/><path d="M3682.667,187.149h-3.322a1.343,1.343,0,0,0-1.186.717,15.4,15.4,0,0,0-2.224,7.161" transform="translate(-3675.935 -184.38)" fill="none" stroke="#666" stroke-linecap="round" stroke-linejoin="round" stroke-width="1.3"/><path d="M3717.46,187.149h3.838l-2.147,3.817" transform="translate(-3703.55 -184.38)" fill="none" stroke="#666" stroke-linecap="round" stroke-linejoin="round" stroke-width="1.3"/><line x1="14.259" transform="translate(3.191 17.627)" fill="none" stroke="#666" stroke-linecap="round" stroke-linejoin="round" stroke-width="1.3"/></g><path d="M3589.241,533.888A17.763,17.763,0,1,0,3607,551.651V547.5" transform="translate(-2746.623 1349.819)" fill="none" stroke="#666" stroke-linecap="round" stroke-linejoin="round" stroke-width="1.3"/><path d="M3619.084,555.672l2.3-2.3,2.3,2.3" transform="translate(-2761.008 1343.933)" fill="none" stroke="#666" stroke-linecap="round" stroke-linejoin="round" stroke-width="1.3"/></g></svg>