<svg xmlns="http://www.w3.org/2000/svg" width="47.426" height="39.584" viewBox="0 0 47.426 39.584"><g transform="translate(-718.823 -2058.299)"><g transform="translate(743.047 2086.523)"><path d="M0,0H13.635a0,0,0,0,1,0,0V3.893A6.818,6.818,0,0,1,6.818,10.71h0A6.818,6.818,0,0,1,0,3.893V0A0,0,0,0,1,0,0Z" transform="translate(0 0)" fill="none" stroke="#666" stroke-linecap="round" stroke-linejoin="round" stroke-width="1.3"/><path d="M3511.285,222.675h2.571a1.4,1.4,0,0,1,1.406,1.41c-.015,2.07-.479,4.591-4.76,4.715" transform="translate(-3497.65 -221.17)" fill="none" stroke="#666" stroke-linecap="round" stroke-linejoin="round" stroke-width="1.3"/><line x1="13.635" transform="translate(0 10.71)" fill="none" stroke="#666" stroke-linecap="round" stroke-linejoin="round" stroke-width="1.3"/></g><path d="M3499.124,196.3a6.56,6.56,0,0,1,1.267,3.68c.007,2.794-2.158,4.091-1.934,6.51a5.336,5.336,0,0,0,2.135,3.538" transform="translate(-2749.508 1876.495)" fill="none" stroke="#666" stroke-linecap="round" stroke-linejoin="round" stroke-width="1.3"/><path d="M3519,193.427l-2.533,2.533-1.217-1.217" transform="translate(-2756.609 1877.709)" fill="none" stroke="#666" stroke-linecap="round" stroke-linejoin="round" stroke-width="1.3"/><circle cx="5.092" cy="5.092" r="5.092" transform="translate(755.415 2067.439)" fill="none" stroke="#666" stroke-linecap="round" stroke-linejoin="round" stroke-width="1.3"/><g transform="translate(1098.975 -104.494) rotate(30)"><path d="M.455,0l3.4,1.961L0,4.241" transform="translate(778.968 2059.026) rotate(-30)" fill="none" stroke="#666" stroke-linecap="round" stroke-linejoin="round" stroke-width="1.3"/><path d="M3376.318,536.123h-14.866l-2.008,4.476a11.424,11.424,0,0,0-.976,4.654V551.8a2.693,2.693,0,0,0,2.693,2.692h15.447a2.693,2.693,0,0,0,2.693-2.692v-6.547a11.408,11.408,0,0,0-.977-4.654Z" transform="translate(-2597.052 1522.677)" fill="none" stroke="#666" stroke-linecap="round" stroke-linejoin="round" stroke-width="1.3"/><path d="M3355.5,541.969h-3.1a1.073,1.073,0,0,0-.951.717,18.158,18.158,0,0,0-1.783,7.157" transform="translate(-2592.657 1519.758)" fill="none" stroke="#666" stroke-linecap="round" stroke-linejoin="round" stroke-width="1.3"/></g></g></svg>