<svg xmlns="http://www.w3.org/2000/svg" width="70.543" height="62.796" viewBox="0 0 70.543 62.796"><g transform="translate(-3552.955 -1323.268)"><g transform="translate(-237 -2)"><line x2="17.479" transform="translate(3837.021 1356.14)" fill="none" stroke="#666" stroke-linecap="round" stroke-linejoin="round" stroke-width="2"/><path d="M1689.136,563.873h-4.67V559.2" transform="translate(3044.642 -233.676) rotate(45)" fill="none" stroke="#666" stroke-linecap="round" stroke-linejoin="round" stroke-width="2"/><path d="M1701.262,542.407h4.67v4.67" transform="translate(3032.642 -233.676) rotate(45)" fill="none" stroke="#666" stroke-linecap="round" stroke-linejoin="round" stroke-width="2"/></g><g transform="translate(1072 984)"><path d="M2532.06,388.15v8.176h-50.1V366.8a4,4,0,0,1,4-4h33.461" fill="none" stroke="#666" stroke-linecap="round" stroke-linejoin="round" stroke-width="2"/><path d="M0,0H2.348a2.39,2.39,0,0,1,2.39,2.39v0a2.39,2.39,0,0,1-2.39,2.39H0a0,0,0,0,1,0,0V0A0,0,0,0,1,0,0Z" transform="translate(2529.184 396.326) rotate(90)" fill="none" stroke="#666" stroke-linecap="round" stroke-linejoin="round" stroke-width="2"/><path d="M0,0H2.348a2.39,2.39,0,0,1,2.39,2.39v0a2.39,2.39,0,0,1-2.39,2.39H0a0,0,0,0,1,0,0V0A0,0,0,0,1,0,0Z" transform="translate(2489.612 396.326) rotate(90)" fill="none" stroke="#666" stroke-linecap="round" stroke-linejoin="round" stroke-width="2"/><path d="M2519.416,340.268H2494.6a4.531,4.531,0,1,0,0,9.062V362.8h24.816V349.33a4.531,4.531,0,0,0,0-9.062Z" fill="none" stroke="#666" stroke-linecap="round" stroke-linejoin="round" stroke-width="2"/><line x1="4.992" y2="4.992" transform="translate(2499.793 344.321)" fill="none" stroke="#666" stroke-linecap="round" stroke-linejoin="round" stroke-width="2"/><line x1="8.813" y2="8.813" transform="translate(2501.028 345.556)" fill="none" stroke="#666" stroke-linecap="round" stroke-linejoin="round" stroke-width="2"/><line x1="8.813" y2="8.813" transform="translate(2504.174 348.702)" fill="none" stroke="#666" stroke-linecap="round" stroke-linejoin="round" stroke-width="2"/><line x1="4.992" y2="4.992" transform="translate(2509.23 353.759)" fill="none" stroke="#666" stroke-linecap="round" stroke-linejoin="round" stroke-width="2"/><line x2="50.106" transform="translate(2481.955 388.15)" fill="none" stroke="#666" stroke-linecap="round" stroke-linejoin="round" stroke-width="2"/><path d="M2487.643,379.565v-8.888a2.186,2.186,0,0,1,2.186-2.185h3.57" fill="none" stroke="#666" stroke-linecap="round" stroke-linejoin="round" stroke-width="2"/></g><circle cx="13.539" cy="13.539" r="13.539" transform="translate(3595.42 1340.604)" fill="none" stroke="#666" stroke-linecap="round" stroke-linejoin="round" stroke-width="2"/></g></svg>