<svg xmlns="http://www.w3.org/2000/svg" width="77.171" height="66.777" viewBox="0 0 77.171 66.777"><g transform="translate(-4321 -1320.997)"><g transform="translate(3483.41 737.602)"><path d="M906.75,617.087a3.972,3.972,0,0,0,5.917,5.3l.018-.02a4.234,4.234,0,0,0-.341-5.979L880.615,588.1c-4.859-4.368-10.816-4.913-15.175-1.389-4.338,3.507-5.043,9.293-1.826,15.122l21.022,36.963a4.231,4.231,0,0,0,5.771,1.587h0l.007,0a3,3,0,0,0,2.011-2.471c.463-4.011-3.266-5.962-5.954-4.425a3.972,3.972,0,1,0-3.942-6.9,3.972,3.972,0,1,0-3.942-6.9l-11.28-19.928c-.817-1.48-3.172-6.555.794-9.762,3.222-2.6,7.115-1.064,9.691,1.251l17.125,15.238a8.882,8.882,0,0,1,6.225,10.908A3.972,3.972,0,0,0,906.75,617.087Z" fill="none" stroke="#666" stroke-linecap="round" stroke-linejoin="round" stroke-width="2"/><path d="M859.732,611.771H844.249a5.655,5.655,0,1,0-.008,11.31h.008v26.09h30.973v-9.336" fill="none" stroke="#666" stroke-linecap="round" stroke-linejoin="round" stroke-width="2"/><line x1="6.23" y2="6.23" transform="translate(850.731 621.826)" fill="none" stroke="#666" stroke-linecap="round" stroke-linejoin="round" stroke-width="2"/><line x1="11" y2="11" transform="translate(852.272 623.368)" fill="none" stroke="#666" stroke-linecap="round" stroke-linejoin="round" stroke-width="2"/><line x1="11" y2="11" transform="translate(856.198 627.294)" fill="none" stroke="#666" stroke-linecap="round" stroke-linejoin="round" stroke-width="2"/><line x1="6.23" y2="6.23" transform="translate(862.51 633.605)" fill="none" stroke="#666" stroke-linecap="round" stroke-linejoin="round" stroke-width="2"/></g></g></svg>