<svg xmlns="http://www.w3.org/2000/svg" width="40.478" height="36.413" viewBox="0 0 40.478 36.413"><g transform="translate(0.65 0.65)"><path d="M4,0H24.939a4,4,0,0,1,4,4V19.361a0,0,0,0,1,0,0H0a0,0,0,0,1,0,0V4A4,4,0,0,1,4,0Z" transform="translate(0 13.016)" fill="none" stroke="#666" stroke-linecap="round" stroke-linejoin="round" stroke-width="1.3"/><path d="M0,0H1.869A1.381,1.381,0,0,1,3.25,1.381v0A1.381,1.381,0,0,1,1.869,2.761H0a0,0,0,0,1,0,0V0A0,0,0,0,1,0,0Z" transform="translate(28.938 17.77)" fill="none" stroke="#666" stroke-linecap="round" stroke-linejoin="round" stroke-width="1.3"/><path d="M0,0H1.356A1.381,1.381,0,0,1,2.737,1.381v0A1.381,1.381,0,0,1,1.356,2.761H0a0,0,0,0,1,0,0V0A0,0,0,0,1,0,0Z" transform="translate(27.277 32.376) rotate(90)" fill="none" stroke="#666" stroke-linecap="round" stroke-linejoin="round" stroke-width="1.3"/><path d="M0,0H1.356A1.381,1.381,0,0,1,2.737,1.381v0A1.381,1.381,0,0,1,1.356,2.761H0a0,0,0,0,1,0,0V0A0,0,0,0,1,0,0Z" transform="translate(4.422 32.376) rotate(90)" fill="none" stroke="#666" stroke-linecap="round" stroke-linejoin="round" stroke-width="1.3"/><path d="M3373.306,340.268h-14.333a2.617,2.617,0,0,0,0,5.234v7.782h14.333V345.5a2.617,2.617,0,0,0,0-5.234Z" transform="translate(-3351.67 -340.268)" fill="none" stroke="#666" stroke-linecap="round" stroke-linejoin="round" stroke-width="1.3"/><g transform="translate(10.302 2.341)"><line x1="2.883" y2="2.883" transform="translate(0 0)" fill="none" stroke="#666" stroke-linecap="round" stroke-linejoin="round" stroke-width="1.3"/><line x1="5.09" y2="5.09" transform="translate(0.713 0.713)" fill="none" stroke="#666" stroke-linecap="round" stroke-linejoin="round" stroke-width="1.3"/><line x1="5.09" y2="5.09" transform="translate(2.53 2.53)" fill="none" stroke="#666" stroke-linecap="round" stroke-linejoin="round" stroke-width="1.3"/><line x1="2.883" y2="2.883" transform="translate(5.451 5.451)" fill="none" stroke="#666" stroke-linecap="round" stroke-linejoin="round" stroke-width="1.3"/></g><line x2="28.939" transform="translate(0 27.654)" fill="none" stroke="#666" stroke-linecap="round" stroke-linejoin="round" stroke-width="1.3"/><path d="M3353.93,374.887v-5.133a1.262,1.262,0,0,1,1.263-1.262h2.062" transform="translate(-3350.645 -352.191)" fill="none" stroke="#666" stroke-linecap="round" stroke-linejoin="round" stroke-width="1.3"/><line y1="17.533" transform="translate(37 9.55)" fill="none" stroke="#666" stroke-linecap="round" stroke-linejoin="round" stroke-width="1.3"/><path d="M3409,358.711l1.907-1.907,1.907,1.907" transform="translate(-3373.91 -347.254)" fill="none" stroke="#666" stroke-linecap="round" stroke-linejoin="round" stroke-width="1.3"/></g></svg>