<svg xmlns="http://www.w3.org/2000/svg" width="51.068" height="23.397" viewBox="0 0 51.068 23.397"><g transform="translate(-770.536 -1980.309)"><path d="M4,0H24.939a4,4,0,0,1,4,4V19.361a0,0,0,0,1,0,0H0a0,0,0,0,1,0,0V4A4,4,0,0,1,4,0Z" transform="translate(771.186 1980.959)" fill="none" stroke="#666" stroke-linecap="round" stroke-linejoin="round" stroke-width="1.3"/><path d="M0,0H1.869A1.381,1.381,0,0,1,3.25,1.381v0A1.381,1.381,0,0,1,1.869,2.761H0a0,0,0,0,1,0,0V0A0,0,0,0,1,0,0Z" transform="translate(800.124 1985.714)" fill="none" stroke="#666" stroke-linecap="round" stroke-linejoin="round" stroke-width="1.3"/><path d="M0,0H1.356A1.381,1.381,0,0,1,2.737,1.381v0A1.381,1.381,0,0,1,1.356,2.761H0a0,0,0,0,1,0,0V0A0,0,0,0,1,0,0Z" transform="translate(798.463 2000.32) rotate(90)" fill="none" stroke="#666" stroke-linecap="round" stroke-linejoin="round" stroke-width="1.3"/><path d="M0,0H1.356A1.381,1.381,0,0,1,2.737,1.381v0A1.381,1.381,0,0,1,1.356,2.761H0a0,0,0,0,1,0,0V0A0,0,0,0,1,0,0Z" transform="translate(775.607 2000.32) rotate(90)" fill="none" stroke="#666" stroke-linecap="round" stroke-linejoin="round" stroke-width="1.3"/><line x2="28.939" transform="translate(771.186 1995.598)" fill="none" stroke="#666" stroke-linecap="round" stroke-linejoin="round" stroke-width="1.3"/><path d="M0,0H18.939" transform="translate(794.186 2000.32)" fill="none" stroke="#666" stroke-linecap="round" stroke-width="1.3"/><path d="M3353.93,374.887v-5.133a1.262,1.262,0,0,1,1.263-1.262h2.062" transform="translate(-2579.459 1615.753)" fill="none" stroke="#666" stroke-linecap="round" stroke-linejoin="round" stroke-width="1.3"/><line y1="17.533" transform="translate(820.953 1995.606) rotate(90)" fill="none" stroke="#666" stroke-linecap="round" stroke-linejoin="round" stroke-width="1.3"/><path d="M3409,358.711l1.907-1.907,1.907,1.907" transform="translate(1177.757 -1415.304) rotate(90)" fill="none" stroke="#666" stroke-linecap="round" stroke-linejoin="round" stroke-width="1.3"/></g></svg>