<svg xmlns="http://www.w3.org/2000/svg" width="57.011" height="61.032" viewBox="0 0 57.011 61.032"><g transform="translate(-4407.658 -1112.647)"><path d="M0,0H18.114a0,0,0,0,1,0,0V5.171a9.057,9.057,0,0,1-9.057,9.057h0A9.057,9.057,0,0,1,0,5.171V0A0,0,0,0,1,0,0Z" transform="translate(4440.271 1147.278)" fill="none" stroke="#666" stroke-linecap="round" stroke-linejoin="round" stroke-width="2"/><path d="M1724.385,216.278h3.416a1.865,1.865,0,0,1,1.868,1.873c-.021,2.68-.607,5.93-5.9,6.245" transform="translate(2734 933)" fill="none" stroke="#666" stroke-linecap="round" stroke-linejoin="round" stroke-width="2"/><line x1="18.114" transform="translate(4440.271 1161.506)" fill="none" stroke="#666" stroke-linecap="round" stroke-linejoin="round" stroke-width="2"/><path d="M1688.5,196.811a5.277,5.277,0,0,0,10.246-1.778c0-5.4-3.456-8.556-10.246-5.652v-8.257h9.285" transform="translate(2734 933)" fill="none" stroke="#666" stroke-linecap="round" stroke-linejoin="round" stroke-width="2"/><path d="M1718.888,200a3.99,3.99,0,0,0,2.906,1.128c1.947,0,3.526-1.164,3.526-2.6s-1.064-2.6-3.388-2.6-3.526-1.165-3.526-2.6,1.579-2.6,3.526-2.6a3.987,3.987,0,0,1,2.906,1.129" transform="translate(2733 933)" fill="none" stroke="#666" stroke-linecap="round" stroke-linejoin="round" stroke-width="2"/><path d="M1709.143,232.919a12.167,12.167,0,1,1-7.64-17.144" transform="translate(2734 933)" fill="none" stroke="#666" stroke-linecap="round" stroke-linejoin="round" stroke-width="2"/><rect width="6.532" height="3.123" transform="translate(4428.971 1141.717)" fill="none" stroke="#666" stroke-linecap="round" stroke-linejoin="round" stroke-width="2"/><line y1="7.641" transform="translate(4432.236 1152.864)" fill="none" stroke="#666" stroke-linecap="round" stroke-linejoin="round" stroke-width="2"/><line x2="4.905" transform="translate(4426.999 1160.506)" fill="none" stroke="#666" stroke-linecap="round" stroke-linejoin="round" stroke-width="2"/><line x1="6.974" transform="translate(4410.69 1153.251)" fill="none" stroke="#666" stroke-linecap="round" stroke-linejoin="round" stroke-width="2"/><line x1="6.974" transform="translate(4408.658 1160.506)" fill="none" stroke="#666" stroke-linecap="round" stroke-linejoin="round" stroke-width="2"/><line x1="6.974" transform="translate(4410.69 1167.76)" fill="none" stroke="#666" stroke-linecap="round" stroke-linejoin="round" stroke-width="2"/><line y1="3.492" transform="translate(4432.236 1144.84)" fill="none" stroke="#666" stroke-linecap="round" stroke-linejoin="round" stroke-width="2"/><path d="M3641.936,540.635a5.012,5.012,0,0,0,10.025,0v-9.976a5.012,5.012,0,0,0-10.025,0Z" transform="translate(795 588)" fill="none" stroke="#666" stroke-linecap="round" stroke-linejoin="round" stroke-width="2"/></g></svg>