<svg xmlns="http://www.w3.org/2000/svg" width="52.94" height="52.94" viewBox="0 0 52.94 52.94">
    <g transform="translate(-1166.661 -5345)">
        <path d="M332.519,674.558q-.331.054-.664.1.333-.045.664-.1Zm0,0" transform="translate(864.88 4723.038)" fill="#fff"></path>
        <path d="M340.656,673.683l-.316.055.316-.055Zm0,0" transform="translate(857.273 4723.822)" fill="#fff"></path>
        <path d="M319.387,676.23q-.387.044-.778.077.391-.033.778-.077Zm0,0" transform="translate(876.757 4721.539)" fill="#fff"></path>
        <path d="M327.818,675.628c-.124.017-.249.032-.373.047.124-.015.249-.03.373-.047Zm0,0" transform="translate(868.834 4722.079)" fill="#fff"></path>
        <path d="M347.943,672.3l-.279.059.279-.059Zm0,0" transform="translate(850.706 4725.063)" fill="#fff"></path>
        <path d="M365.709,668l-.225.063.225-.063Zm0,0" transform="translate(834.729 4728.915)" fill="#fff"></path>
        <path d="M360.3,669.433l-.246.064.246-.064Zm0,0" transform="translate(839.593 4727.633)" fill="#fff"></path>
        <path d="M353.327,671.144l-.261.058.261-.058Zm0,0" transform="translate(845.863 4726.099)" fill="#fff"></path>
        <path d="M314.9,676.98q-.209.017-.418.031.21-.014.418-.031Zm0,0" transform="translate(880.459 4720.866)" fill="#fff"></path>
        <path d="M306.721,677.32q-.413.027-.83.041.416-.014.83-.041Zm0,0" transform="translate(888.16 4720.562)" fill="#fff"></path>
        <path d="M301.943,677.726q-.219.007-.439.011.22,0,.439-.011Zm0,0" transform="translate(892.093 4720.197)" fill="#fff"></path>
        <path d="M93.94,192.36a26.47,26.47,0,1,0-26.47,26.47c.156,0,.31,0,.465-.006V198.218H62.249v-6.628h5.687v-4.877c0-5.656,3.453-8.735,8.5-8.735a46.791,46.791,0,0,1,5.1.261v5.911H78.053c-2.745,0-3.277,1.3-3.277,3.219v4.221H81.34l-.856,6.628H74.777v19.589A26.484,26.484,0,0,0,93.94,192.36Zm0,0" transform="translate(1125.661 5179.11)" fill="#fff"></path>
    </g>
</svg>
