<svg xmlns="http://www.w3.org/2000/svg" width="52.94" height="52.94" viewBox="0 0 52.94 52.94">
    <g transform="translate(-1005.06 -5345)">
        <path d="M644.133,340.067A5.067,5.067,0,1,1,639.067,335a5.067,5.067,0,0,1,5.067,5.067Zm0,0" transform="translate(392.463 5031.404)" fill="#fff"></path>
        <path d="M586.794,266.985a5.033,5.033,0,0,0-2.885-2.885,8.41,8.41,0,0,0-2.822-.523c-1.6-.073-2.084-.089-6.142-.089s-4.539.015-6.142.089a8.415,8.415,0,0,0-2.822.523,5.035,5.035,0,0,0-2.885,2.885,8.414,8.414,0,0,0-.523,2.822c-.073,1.6-.089,2.083-.089,6.142s.016,4.539.089,6.142a8.411,8.411,0,0,0,.523,2.822,5.033,5.033,0,0,0,2.885,2.885,8.4,8.4,0,0,0,2.822.523c1.6.073,2.083.089,6.142.089s4.54-.015,6.142-.089a8.4,8.4,0,0,0,2.822-.523,5.033,5.033,0,0,0,2.885-2.885,8.419,8.419,0,0,0,.523-2.822c.073-1.6.089-2.084.089-6.142s-.015-4.539-.089-6.142a8.4,8.4,0,0,0-.523-2.822Zm-11.849,16.769a7.8,7.8,0,1,1,7.8-7.8,7.8,7.8,0,0,1-7.8,7.8Zm8.114-14.095a1.824,1.824,0,1,1,1.824-1.824,1.824,1.824,0,0,1-1.824,1.824Zm0,0" transform="translate(456.584 5095.521)" fill="#fff"></path>
        <path d="M453.47,128a26.47,26.47,0,1,0,26.47,26.47A26.473,26.473,0,0,0,453.47,128Zm15.108,32.737a11.15,11.15,0,0,1-.706,3.69,7.771,7.771,0,0,1-4.445,4.445,11.16,11.16,0,0,1-3.689.706c-1.621.074-2.139.092-6.267.092s-4.646-.018-6.267-.092a11.159,11.159,0,0,1-3.689-.706,7.772,7.772,0,0,1-4.445-4.445,11.147,11.147,0,0,1-.706-3.689c-.075-1.621-.092-2.139-.092-6.267s.017-4.646.092-6.267a11.152,11.152,0,0,1,.706-3.69,7.778,7.778,0,0,1,4.446-4.445,11.162,11.162,0,0,1,3.69-.706c1.621-.074,2.139-.092,6.267-.092s4.646.018,6.267.092a11.164,11.164,0,0,1,3.69.706,7.774,7.774,0,0,1,4.445,4.446,11.149,11.149,0,0,1,.707,3.69c.074,1.621.091,2.139.091,6.267s-.017,4.646-.092,6.267Zm0,0" transform="translate(578.06 5217)" fill="#fff"></path>
    </g>
</svg>
