<svg xmlns="http://www.w3.org/2000/svg" width="52.94" height="52.94" viewBox="0 0 52.94 52.94">
    <g transform="translate(-1086 -5345)">
        <path d="M-328.887,271.847l8.61-4.959-8.61-4.959Zm0,0" transform="translate(1438.06 5104.582)" fill="#fff"></path>
        <path d="M-526.53,53.89A26.473,26.473,0,0,0-553,80.36a26.473,26.473,0,0,0,26.47,26.47,26.473,26.473,0,0,0,26.47-26.47,26.473,26.473,0,0,0-26.47-26.47Zm16.54,26.5a43.685,43.685,0,0,1-.681,7.957,4.144,4.144,0,0,1-2.916,2.915c-2.589.681-12.943.681-12.943.681s-10.327,0-12.943-.708a4.145,4.145,0,0,1-2.916-2.916,43.5,43.5,0,0,1-.681-7.956,43.662,43.662,0,0,1,.681-7.956,4.229,4.229,0,0,1,2.916-2.943c2.589-.681,12.943-.681,12.943-.681s10.354,0,12.943.708a4.145,4.145,0,0,1,2.916,2.916,41.456,41.456,0,0,1,.681,7.984Zm0,0" transform="translate(1639 5291.11)" fill="#fff"></path>
    </g>
</svg>
