<svg xmlns="http://www.w3.org/2000/svg" width="210.976" height="26.399" viewBox="0 0 210.976 26.399"><path d="M157,30.6l-6.1,2.694c-1.067.439-2.312.931-3.52,1.4-.25.089-.516.177-.81.294-.892.316-1.745.608-2.578.874a34.993,34.993,0,0,0-10.724-6.08h26.157c-.815.278-1.652.553-2.421.819m18.84,8.178c-.708,0-1.411-.077-2.1-.143a27.711,27.711,0,0,1-7.29-2.021,36.305,36.305,0,0,1-7.75-4.712,41.51,41.51,0,0,1,8.319-2c3.017-.3,8.162-.344,9.727,3.784a5.384,5.384,0,0,1-.9,5.092m-40.826-.51a32.264,32.264,0,0,1-6.819.159c-2.587-.237-5.245-.121-6.89-2.89a4.85,4.85,0,0,1,.118-4.84c.189.02.362.041.539.057a21.639,21.639,0,0,1,4.478,1.06,30.654,30.654,0,0,1,9.495,4.908c.362.262.86.644,1.39,1.079-.851.191-1.625.364-2.312.466m113.8-10.3H37.832v1.813H119.74c-.66.246-1.322.485-1.966.776-2.264,1.022-4.173,2.912-3.37,6.187.86,3.545,5.272,4.259,7.711,4.592,4.623.612,9.415-.089,13.991-1.047.4-.089.821-.187,1.226-.282.673-.13,1.37-.3,2.1-.485.521.437.874.719.874.719,7.1,5.72,8.219,9.975,7.368,13.9-.243,1.133,2.762-2.273,2.988-5.832.175-3.069-.453-6.76-4.448-10.485-.118-.125-.266-.237-.391-.371.557-.2,1.135-.435,1.743-.667l.011.009c.2-.077.412-.187.628-.264,1.39-.578,2.858-1.206,4.476-1.929,5.77,4.114,11.659,6.894,18,6.492,3.108-.2,16.892-3.179,12.13-10.667a4.648,4.648,0,0,0-.61-.651h66.606Z" transform="translate(-37.832 -27.966)" fill="#d41317"/></svg>