<svg xmlns="http://www.w3.org/2000/svg" width="50.175" height="26.46" viewBox="0 0 50.175 26.46"><g transform="translate(0.65 0.65)"><g transform="translate(0)"><line x2="4.51" transform="translate(1.965 12.275)" stroke-width="1.3" stroke="#666" stroke-linecap="round" stroke-linejoin="round" fill="none"/><line x2="6.475" transform="translate(0 15.926)" stroke-width="1.3" stroke="#666" stroke-linecap="round" stroke-linejoin="round" fill="none"/><line x2="2.631" transform="translate(3.845 8.624)" stroke-width="1.3" stroke="#666" stroke-linecap="round" stroke-linejoin="round" fill="none"/><path d="M411.644,443.125h14.518V423.368a1.881,1.881,0,0,0-1.881-1.881H401.549a1.881,1.881,0,0,0-1.881,1.881v17.876a1.881,1.881,0,0,0,1.881,1.881H404.6" transform="translate(-389.959 -421.487)" fill="none" stroke="#666" stroke-linecap="round" stroke-linejoin="round" stroke-width="1.3"/><ellipse cx="3.522" cy="3.522" rx="3.522" ry="3.522" transform="translate(14.642 18.116)" stroke-width="1.3" stroke="#666" stroke-linecap="round" stroke-linejoin="round" fill="none"/><path d="M465.277,448.948H466.8a1.881,1.881,0,0,0,1.881-1.881v-5.339a1.881,1.881,0,0,0-1.881-1.881h-.42a1.881,1.881,0,0,1-1.809-1.366l-1.322-4.636a1.881,1.881,0,0,0-1.809-1.365h-5.43v16.469h2.228" transform="translate(-419.801 -427.31)" fill="none" stroke="#666" stroke-linecap="round" stroke-linejoin="round" stroke-width="1.3"/><ellipse cx="3.522" cy="3.522" rx="3.522" ry="3.522" transform="translate(38.431 18.116)" stroke-width="1.3" stroke="#666" stroke-linecap="round" stroke-linejoin="round" fill="none"/><path d="M469.737,439.847a2.111,2.111,0,0,1-2.03-1.532l-1.227-4.3a2.111,2.111,0,0,0-2.03-1.532h-2.427v7.367Z" transform="translate(-422.989 -427.31)" fill="none" stroke="#666" stroke-linecap="round" stroke-linejoin="round" stroke-width="1.3"/></g></g></svg>