<svg xmlns="http://www.w3.org/2000/svg" width="79.929" height="81.781" viewBox="0 0 79.929 81.781"><g transform="translate(-435.998 -363.944)"><path d="M299.812,337.636c4.411-9.427,6.673-20.607,6.666-33.374l0-4.418-3.777-2.293c-5.1-3.1-18.738-10.3-35.186-10.3s-30.085,7.2-35.185,10.3l-3.777,2.293,0,4.418c-.017,29.9,12.368,51.127,35.814,61.393l3.15,1.38,3.151-1.38a60.366,60.366,0,0,0,14.034-8.5" transform="translate(208.449 77.69)" fill="none" stroke="#666" stroke-linecap="round" stroke-linejoin="round" stroke-width="2"/><path d="M293.242,333.186c3.568-8.132,5.387-17.767,5.381-28.92-4.155-2.523-16.475-9.157-31.109-9.157h0c-14.634,0-26.954,6.634-31.11,9.157-.014,26.927,10.443,45.144,31.11,54.194a53.543,53.543,0,0,0,11.218-6.6" transform="translate(208.449 77.69)" fill="none" stroke="#666" stroke-linecap="round" stroke-linejoin="round" stroke-width="2"/><circle cx="12.755" cy="12.755" r="12.755" transform="translate(485.433 410.377)" fill="none" stroke="#666" stroke-linecap="round" stroke-linejoin="round" stroke-width="2"/><path d="M285.766,345.625l2.527,2.527,5.42-5.42" transform="translate(208.449 77.69)" fill="none" stroke="#666" stroke-linecap="round" stroke-linejoin="round" stroke-width="2"/><path d="M275.663,327.309V308.621l-5.9,5.547" transform="translate(208.449 77.69)" fill="none" stroke="#666" stroke-linecap="round" stroke-linejoin="round" stroke-width="2"/><line x2="9.275" transform="translate(462.896 397.464)" stroke-width="2" stroke="#666" stroke-linecap="round" stroke-linejoin="round" fill="none"/><line y2="9.275" transform="translate(467.534 392.826)" stroke-width="2" stroke="#666" stroke-linecap="round" stroke-linejoin="round" fill="none"/></g></svg>