<svg xmlns="http://www.w3.org/2000/svg" width="83.228" height="76.117" viewBox="0 0 83.228 76.117"><g transform="translate(-294 -364.646)"><path d="M146.745,331.873v26.2a4,4,0,0,1-4,4H90.551a4,4,0,0,1-4-4V291.956a4,4,0,0,1,4-4h52.194a4,4,0,0,1,4,4V316" transform="translate(208.449 77.69)" fill="none" stroke="#666" stroke-linecap="round" stroke-linejoin="round" stroke-width="2"/><rect width="11.222" height="42.815" transform="translate(361.788 387.099) rotate(45)" stroke-width="2" stroke="#666" stroke-linecap="round" stroke-linejoin="round" fill="none"/><path d="M4,0H7.222a4,4,0,0,1,4,4V8.615a0,0,0,0,1,0,0H0a0,0,0,0,1,0,0V4A4,4,0,0,1,4,0Z" transform="translate(367.879 381.008) rotate(45)" fill="none" stroke="#666" stroke-linecap="round" stroke-linejoin="round" stroke-width="2"/><path d="M119.88,350.8l11.077-3.225-7.852-7.852Z" transform="translate(208.449 77.69)" fill="none" stroke="#666" stroke-linecap="round" stroke-linejoin="round" stroke-width="2"/><line x2="24.454" transform="translate(318.752 388.638)" stroke-width="2" stroke="#666" stroke-linecap="round" stroke-linejoin="round" fill="none"/><line x2="1.977" transform="translate(307.853 388.638)" stroke-width="2" stroke="#666" stroke-linecap="round" stroke-linejoin="round" fill="none"/><line x2="24.454" transform="translate(318.752 397.849)" stroke-width="2" stroke="#666" stroke-linecap="round" stroke-linejoin="round" fill="none"/><line x2="4.732" transform="translate(318.752 428.493)" stroke-width="2" stroke="#666" stroke-linecap="round" stroke-linejoin="round" fill="none"/><line x2="1.977" transform="translate(307.853 397.849)" stroke-width="2" stroke="#666" stroke-linecap="round" stroke-linejoin="round" fill="none"/><line x2="24.454" transform="translate(318.752 379.426)" stroke-width="2" stroke="#666" stroke-linecap="round" stroke-linejoin="round" fill="none"/><path d="M96.328,300.437l2.585,2.585,5.542-5.542" transform="translate(208.449 77.69)" fill="none" stroke="#666" stroke-linecap="round" stroke-linejoin="round" stroke-width="2"/></g></svg>