<svg xmlns="http://www.w3.org/2000/svg" width="39.542" height="62.796" viewBox="0 0 39.542 62.796"><g transform="translate(-1765.703 -524.234)"><path d="M1773.307,525.234V541.4a4.01,4.01,0,0,0,.485,1.911l3.947,7.267h22.075l3.946-7.267a4,4,0,0,0,.485-1.911V525.234Z" fill="none" stroke="#666" stroke-linecap="round" stroke-linejoin="round" stroke-width="2"/><path d="M1799.814,550.577h-22.075l-2.982,6.646a16.948,16.948,0,0,0-1.45,6.912v9.722a4,4,0,0,0,4,4h22.938a4,4,0,0,0,4-4v-9.722a16.948,16.948,0,0,0-1.45-6.912Z" fill="none" stroke="#666" stroke-linecap="round" stroke-linejoin="round" stroke-width="2"/><line x1="30.939" transform="translate(1773.307 541.087)" fill="none" stroke="#666" stroke-linecap="round" stroke-linejoin="round" stroke-width="2"/><path d="M1775.429,554.925h-4.61a1.594,1.594,0,0,0-1.412,1.064,26.949,26.949,0,0,0-2.647,10.629" fill="none" stroke="#666" stroke-linecap="round" stroke-linejoin="round" stroke-width="2"/><path d="M4,0H26.939a4,4,0,0,1,4,4V8.176a0,0,0,0,1,0,0H0a0,0,0,0,1,0,0V4A4,4,0,0,1,4,0Z" transform="translate(1773.307 577.854)" fill="none" stroke="#666" stroke-linecap="round" stroke-linejoin="round" stroke-width="2"/><path d="M1797.333,569.805l-3.3,3.3-3.3-3.3" fill="none" stroke="#666" stroke-linecap="round" stroke-linejoin="round" stroke-width="2"/><path d="M1786.823,569.805l-3.3,3.3-3.3-3.3" fill="none" stroke="#666" stroke-linecap="round" stroke-linejoin="round" stroke-width="2"/><path d="M1786.064,564.469c-1.465,1.323-2.543,2.713-2.543,4.319v2.654" fill="none" stroke="#666" stroke-linecap="round" stroke-linejoin="round" stroke-width="2"/><path d="M1794.031,555.566c0,1.664-1.039,3.093-2.464,4.426" fill="none" stroke="#666" stroke-linecap="round" stroke-linejoin="round" stroke-width="2"/><path d="M1783.521,555.566c0,5.29,10.51,8.208,10.51,13.222v2.654" fill="none" stroke="#666" stroke-linecap="round" stroke-linejoin="round" stroke-width="2"/></g></svg>