<svg xmlns="http://www.w3.org/2000/svg" width="45.918" height="62.383" viewBox="0 0 45.918 62.383"><g transform="translate(-2602.242 -524.647)"><path d="M0,0H32.852a0,0,0,0,1,0,0V9.379A16.426,16.426,0,0,1,16.426,25.805h0A16.426,16.426,0,0,1,0,9.379V0A0,0,0,0,1,0,0Z" transform="translate(2604.725 560.225)" fill="none" stroke="#666" stroke-linecap="round" stroke-linejoin="round" stroke-width="2"/><path d="M2637.578,563.852h6.194a3.382,3.382,0,0,1,3.388,3.4c-.038,4.988-1.156,11.061-11.47,11.36" fill="none" stroke="#666" stroke-linecap="round" stroke-linejoin="round" stroke-width="2"/><line x1="32.852" transform="translate(2604.725 586.03)" fill="none" stroke="#666" stroke-linecap="round" stroke-linejoin="round" stroke-width="2"/><line x2="8.375" y2="8.375" transform="translate(2631.292 537.226)" fill="none" stroke="#666" stroke-linecap="round" stroke-linejoin="round" stroke-width="2"/><line x1="8.375" y2="8.375" transform="translate(2631.292 537.226)" fill="none" stroke="#666" stroke-linecap="round" stroke-linejoin="round" stroke-width="2"/><path d="M2609.98,545.667v-20.02l-6.325,5.942" fill="none" stroke="#666" stroke-linecap="round" stroke-linejoin="round" stroke-width="2"/><path d="M2615.74,540.635a5.012,5.012,0,0,0,10.024,0v-9.976a5.012,5.012,0,1,0-10.024,0Z" fill="none" stroke="#666" stroke-linecap="round" stroke-linejoin="round" stroke-width="2"/></g></svg>