<svg xmlns="http://www.w3.org/2000/svg" width="52.507" height="62.796" viewBox="0 0 52.507 62.796"><g transform="translate(-1856.21 -524.234)"><path d="M1887.333,586.03a11.6,11.6,0,0,0,7.443-20.51v-29a7.443,7.443,0,0,0-7.443-7.444" fill="none" stroke="#666" stroke-linecap="round" stroke-linejoin="round" stroke-width="2"/><path d="M1864.982,543.042l-2.773-5.106a2.812,2.812,0,0,1-.341-1.343V525.234h20.74" fill="none" stroke="#666" stroke-linecap="round" stroke-linejoin="round" stroke-width="2"/><path d="M1874.181,543.042h-9.2l-2.1,4.671a11.9,11.9,0,0,0-1.019,4.857V559.4a2.809,2.809,0,0,0,2.811,2.809h10.046" fill="none" stroke="#666" stroke-linecap="round" stroke-linejoin="round" stroke-width="2"/><line x1="12.313" transform="translate(1861.868 536.374)" fill="none" stroke="#666" stroke-linecap="round" stroke-linejoin="round" stroke-width="2"/><path d="M1863.359,546.1h-3.239a1.12,1.12,0,0,0-.992.747,18.923,18.923,0,0,0-1.861,7.469" fill="none" stroke="#666" stroke-linecap="round" stroke-linejoin="round" stroke-width="2"/><path d="M1871.738,567.955h-9.87V566.7a4.494,4.494,0,0,1,4.494-4.494" fill="none" stroke="#666" stroke-linecap="round" stroke-linejoin="round" stroke-width="2"/><path d="M1887.333,586.03a11.6,11.6,0,0,1-7.444-20.51v-29a7.444,7.444,0,0,1,7.444-7.444" fill="none" stroke="#666" stroke-linecap="round" stroke-linejoin="round" stroke-width="2"/><circle cx="5.275" cy="5.275" r="5.275" transform="translate(1882.057 569.545)" fill="none" stroke="#666" stroke-linecap="round" stroke-linejoin="round" stroke-width="2"/><line x2="6.695" transform="translate(1901.022 548.483)" fill="none" stroke="#666" stroke-linecap="round" stroke-linejoin="round" stroke-width="2"/><line x2="6.695" transform="translate(1901.022 558.21)" fill="none" stroke="#666" stroke-linecap="round" stroke-linejoin="round" stroke-width="2"/><line x2="6.695" transform="translate(1901.022 538.757)" fill="none" stroke="#666" stroke-linecap="round" stroke-linejoin="round" stroke-width="2"/><line y1="25.758" transform="translate(1887.333 543.787)" fill="none" stroke="#666" stroke-linecap="round" stroke-linejoin="round" stroke-width="2"/></g></svg>