<svg xmlns="http://www.w3.org/2000/svg" width="50.65" height="62.81" viewBox="0 0 50.65 62.81"><g transform="translate(-2614.074 -524.234)"><path d="M2808.374,525.234v8.92a2.2,2.2,0,0,0,.268,1.054l2.177,4.01H2823l2.177-4.01a2.2,2.2,0,0,0,.268-1.054v-8.92Z" transform="translate(-178)" fill="none" stroke="#666" stroke-linecap="round" stroke-linejoin="round" stroke-width="2"/><path d="M2823,539.218h-12.181l-1.645,3.667a9.356,9.356,0,0,0-.8,3.814v5.365a2.206,2.206,0,0,0,2.207,2.2h12.657a2.206,2.206,0,0,0,2.207-2.2V546.7a9.36,9.36,0,0,0-.8-3.814Z" transform="translate(-178)" fill="none" stroke="#666" stroke-linecap="round" stroke-linejoin="round" stroke-width="2"/><line x1="17.072" transform="translate(2630.374 533.981)" fill="none" stroke="#666" stroke-linecap="round" stroke-linejoin="round" stroke-width="2"/><path d="M2809.545,541.617H2807a.88.88,0,0,0-.779.587,14.87,14.87,0,0,0-1.461,5.865" transform="translate(-178)" fill="none" stroke="#666" stroke-linecap="round" stroke-linejoin="round" stroke-width="2"/><path d="M4,0h9.072a4,4,0,0,1,4,4v.511a0,0,0,0,1,0,0H0a0,0,0,0,1,0,0V4A4,4,0,0,1,4,0Z" transform="translate(2630.374 554.269)" fill="none" stroke="#666" stroke-linecap="round" stroke-linejoin="round" stroke-width="2"/><circle cx="11.183" cy="11.183" r="11.183" transform="translate(2615.074 563.679)" fill="none" stroke="#666" stroke-linecap="round" stroke-linejoin="round" stroke-width="2"/><circle cx="11.183" cy="11.183" r="11.183" transform="translate(2641.359 563.679)" fill="none" stroke="#666" stroke-linecap="round" stroke-linejoin="round" stroke-width="2"/><path d="M2828.272,570l6.965,4.861-6.965,4.861Z" transform="translate(-178)" fill="none" stroke="#666" stroke-linecap="round" stroke-linejoin="round" stroke-width="2"/><g transform="translate(-178)"><line y2="8.416" transform="translate(2801.762 570.653)" fill="none" stroke="#666" stroke-linecap="round" stroke-linejoin="round" stroke-width="2"/><line y2="8.416" transform="translate(2806.751 570.653)" fill="none" stroke="#666" stroke-linecap="round" stroke-linejoin="round" stroke-width="2"/></g></g></svg>