<svg xmlns="http://www.w3.org/2000/svg" width="30.062" height="36.413" viewBox="0 0 30.062 36.413"><g transform="translate(0.696 0.65)"><g transform="translate(0 0)"><path d="M2230.766,204.007h-12.519c0-10.978,1.838-15.942,4.177-20.477h8.353a33.545,33.545,0,0,1,2.571,6.316" transform="translate(-2214.59 -180.308)" fill="none" stroke="#666" stroke-linecap="round" stroke-linejoin="round" stroke-width="1.3"/><path d="M3.222,0H5.131A3.222,3.222,0,0,1,8.353,3.222v0a0,0,0,0,1,0,0H0a0,0,0,0,1,0,0v0A3.222,3.222,0,0,1,3.222,0Z" transform="translate(7.833 0)" fill="none" stroke="#666" stroke-linecap="round" stroke-linejoin="round" stroke-width="1.3"/><path d="M2219.749,183.53h-3.865a1.565,1.565,0,0,0-1.381.835,17.9,17.9,0,0,0-2.588,8.332" transform="translate(-2211.915 -180.308)" fill="none" stroke="#666" stroke-linecap="round" stroke-linejoin="round" stroke-width="1.3"/><path d="M2239.941,183.53h4.466l-2.5,4.441" transform="translate(-2223.755 -180.309)" fill="none" stroke="#666" stroke-linecap="round" stroke-linejoin="round" stroke-width="1.3"/><line x1="12.462" transform="translate(3.713 20.512)" stroke-width="1.3" stroke="#666" stroke-linecap="round" stroke-linejoin="round" fill="none"/></g><g transform="translate(14.299 9.447)"><path d="M2245.73,219.975a5.23,5.23,0,0,0,3.355-9.243V197.664a3.355,3.355,0,0,0-3.355-3.355" transform="translate(-2240.5 -194.309)" fill="none" stroke="#666" stroke-linecap="round" stroke-linejoin="round" stroke-width="1.3"/><path d="M2241.9,219.975a5.23,5.23,0,0,1-3.355-9.243V197.664a3.356,3.356,0,0,1,3.355-3.355" transform="translate(-2236.673 -194.309)" fill="none" stroke="#666" stroke-linecap="round" stroke-linejoin="round" stroke-width="1.3"/><circle cx="2.377" cy="2.377" r="2.377" transform="translate(2.854 18.237)" fill="none" stroke="#666" stroke-linecap="round" stroke-linejoin="round" stroke-width="1.3"/><line x2="3.017" transform="translate(11.4 8.745)" stroke-width="1.3" stroke="#666" stroke-linecap="round" stroke-linejoin="round" fill="none"/><line x2="3.017" transform="translate(11.4 13.129)" stroke-width="1.3" stroke="#666" stroke-linecap="round" stroke-linejoin="round" fill="none"/><line x2="3.017" transform="translate(11.4 4.362)" stroke-width="1.3" stroke="#666" stroke-linecap="round" stroke-linejoin="round" fill="none"/><line y1="11.607" transform="translate(5.231 6.629)" stroke-width="1.3" stroke="#666" stroke-linecap="round" stroke-linejoin="round" fill="none"/></g></g></svg>