<svg xmlns="http://www.w3.org/2000/svg" width="49.81" height="40.834" viewBox="0 0 49.81 40.834"><g transform="translate(0.696 0.68)"><path d="M2434.741,217.488c0-16.266,2.723-23.621,6.188-30.339h12.376c3.465,6.718,6.188,14.073,6.188,30.339Z" transform="translate(-2429.323 -177.984)" fill="none" stroke="#666" stroke-linecap="round" stroke-linejoin="round" stroke-width="1.3"/><path d="M4,0H8.376a4,4,0,0,1,4,4v.774a0,0,0,0,1,0,0H0a0,0,0,0,1,0,0V4A4,4,0,0,1,4,0Z" transform="translate(36.088 34.73)" fill="none" stroke="#666" stroke-linecap="round" stroke-linejoin="round" stroke-width="1.3"/><path d="M2436.966,187.149h-5.727a2.314,2.314,0,0,0-2.044,1.235c-1.9,3.607-3.4,6.341-3.835,12.346" transform="translate(-2425.359 -177.984)" fill="none" stroke="#666" stroke-linecap="round" stroke-linejoin="round" stroke-width="1.3"/><path d="M2466.884,187.149h6.617l-3.7,6.58" transform="translate(-2442.902 -177.984)" fill="none" stroke="#666" stroke-linecap="round" stroke-linejoin="round" stroke-width="1.3"/><line x1="24.585" transform="translate(5.502 34.782)" stroke-width="1.3" stroke="#666" stroke-linecap="round" stroke-linejoin="round" fill="none"/><path d="M2456.17,176.979c6.188-9.335,17.322-6.471,21.99,3.292,2.863,5.989,2.491,13.151,2.491,21.637" transform="translate(-2438.375 -171.28)" fill="none" stroke="#666" stroke-linecap="round" stroke-linejoin="round" stroke-width="1.3"/><path d="M2499.07,222.66l-1.907,1.907-1.907-1.907" transform="translate(-2454.887 -192.986)" fill="none" stroke="#666" stroke-linecap="round" stroke-linejoin="round" stroke-width="1.3"/></g></svg>