<svg xmlns="http://www.w3.org/2000/svg" width="25.808" height="35.306" viewBox="0 0 25.808 35.306"><g transform="translate(0.65 0.837)"><path d="M0,0H18.974a0,0,0,0,1,0,0V5.417A9.487,9.487,0,0,1,9.487,14.9h0A9.487,9.487,0,0,1,0,5.417V0A0,0,0,0,1,0,0Z" transform="translate(0 18.915)" fill="none" stroke="#666" stroke-linecap="round" stroke-linejoin="round" stroke-width="1.3"/><path d="M2598.357,217.5h3.577a1.953,1.953,0,0,1,1.957,1.963c-.021,2.881-.667,6.388-6.624,6.561" transform="translate(-2579.383 -196.491)" fill="none" stroke="#666" stroke-linecap="round" stroke-linejoin="round" stroke-width="1.3"/><line x1="18.974" transform="translate(0 33.819)" stroke-width="1.3" stroke="#666" stroke-linecap="round" stroke-linejoin="round" fill="none"/><g transform="translate(2.259 0)"><circle cx="3.501" cy="3.501" r="3.501" transform="translate(0 4.549)" fill="none" stroke="#666" stroke-linecap="round" stroke-linejoin="round" stroke-width="1.3"/><path d="M2570.213,189.174c0-5.618,6.461-8.05,6.461-8.05" transform="translate(-2570.213 -181.124)" fill="none" stroke="#666" stroke-linecap="round" stroke-linejoin="round" stroke-width="1.3"/><line x2="4.837" y2="4.837" transform="translate(9.62 5.632)" stroke-width="1.3" stroke="#666" stroke-linecap="round" stroke-linejoin="round" fill="none"/><line x1="4.837" y2="4.837" transform="translate(9.62 5.632)" stroke-width="1.3" stroke="#666" stroke-linecap="round" stroke-linejoin="round" fill="none"/></g></g></svg>