<svg xmlns="http://www.w3.org/2000/svg" width="37.358" height="37.093" viewBox="0 0 37.358 37.093"><g transform="translate(0.65 0.65)"><path d="M3498.408,561.731V561.6a4.023,4.023,0,0,1,1.178-2.844h0a4.023,4.023,0,0,0,1.178-2.844v-4.17a1.772,1.772,0,0,0-1.771-1.773h0a1.773,1.773,0,0,0-1.774,1.773V549.6a1.84,1.84,0,0,0-1.677-1.871,1.773,1.773,0,0,0-1.868,1.77v-1.82A1.84,1.84,0,0,0,3492,545.8a1.772,1.772,0,0,0-1.867,1.77v-8.437a1.773,1.773,0,0,0-1.868-1.77,1.841,1.841,0,0,0-1.677,1.871v13.608l-3.029-2.9a1.84,1.84,0,0,0-2.508-.136,1.773,1.773,0,0,0-.07,2.572l4.854,4.727a4.019,4.019,0,0,1,1.216,2.881v1.74" transform="translate(-3464.706 -530.359)" fill="none" stroke="#666" stroke-linecap="round" stroke-linejoin="round" stroke-width="1.3"/><rect width="14.972" height="4.421" rx="2.21" transform="translate(20.367 31.372)" fill="none" stroke="#666" stroke-linecap="round" stroke-linejoin="round" stroke-width="1.3"/><path d="M3484.687,537.6V525.234h-31.5v23.917h13" transform="translate(-3453.185 -525.234)" fill="none" stroke="#666" stroke-linecap="round" stroke-linejoin="round" stroke-width="1.3"/></g></svg>