<svg xmlns="http://www.w3.org/2000/svg" width="26.155" height="36.413" viewBox="0 0 26.155 36.413"><g transform="translate(0.65 0.65)"><g transform="translate(9.713 25.904)"><path d="M0,0H11.723a0,0,0,0,1,0,0V3.347A5.862,5.862,0,0,1,5.862,9.208h0A5.862,5.862,0,0,1,0,3.347V0A0,0,0,0,1,0,0Z" fill="none" stroke="#666" stroke-linecap="round" stroke-linejoin="round" stroke-width="1.3"/><path d="M2685.064,225.976h2.211a1.206,1.206,0,0,1,1.208,1.213c-.013,1.779-.412,3.947-4.092,4.054" transform="translate(-2673.342 -224.682)" fill="none" stroke="#666" stroke-linecap="round" stroke-linejoin="round" stroke-width="1.3"/><line x1="11.723" transform="translate(0 9.208)" fill="none" stroke="#666" stroke-linecap="round" stroke-linejoin="round" stroke-width="1.3"/></g><g transform="translate(9.713 13.091)"><path d="M0,0H11.723a0,0,0,0,1,0,0V3.347A5.862,5.862,0,0,1,5.862,9.208h0A5.862,5.862,0,0,1,0,3.347V0A0,0,0,0,1,0,0Z" fill="none" stroke="#666" stroke-linecap="round" stroke-linejoin="round" stroke-width="1.3"/><path d="M2685.064,203.791h2.211a1.206,1.206,0,0,1,1.208,1.212c-.013,1.78-.412,3.947-4.092,4.054" transform="translate(-2673.342 -202.497)" fill="none" stroke="#666" stroke-linecap="round" stroke-linejoin="round" stroke-width="1.3"/><line x1="11.723" transform="translate(0 9.208)" fill="none" stroke="#666" stroke-linecap="round" stroke-linejoin="round" stroke-width="1.3"/></g><g transform="translate(9.713 0)"><path d="M0,0H11.723a0,0,0,0,1,0,0V3.347A5.862,5.862,0,0,1,5.862,9.208h0A5.862,5.862,0,0,1,0,3.347V0A0,0,0,0,1,0,0Z" fill="none" stroke="#666" stroke-linecap="round" stroke-linejoin="round" stroke-width="1.3"/><path d="M2685.064,181.124h2.211a1.206,1.206,0,0,1,1.208,1.213c-.013,1.779-.412,3.947-4.092,4.054" transform="translate(-2673.342 -179.83)" fill="none" stroke="#666" stroke-linecap="round" stroke-linejoin="round" stroke-width="1.3"/><line x1="11.723" transform="translate(0 9.208)" fill="none" stroke="#666" stroke-linecap="round" stroke-linejoin="round" stroke-width="1.3"/></g><line x2="5.341" transform="translate(0 17.231)" fill="none" stroke="#666" stroke-linecap="round" stroke-linejoin="round" stroke-width="1.3"/><line x2="5.341" transform="translate(0 4.604)" fill="none" stroke="#666" stroke-linecap="round" stroke-linejoin="round" stroke-width="1.3"/><line x2="5.341" transform="translate(0 30.509)" fill="none" stroke="#666" stroke-linecap="round" stroke-linejoin="round" stroke-width="1.3"/><line y2="35.113" transform="translate(0 0)" fill="none" stroke="#666" stroke-linecap="round" stroke-linejoin="round" stroke-width="1.3"/></g></svg>