<svg xmlns="http://www.w3.org/2000/svg" width="47.19" height="35.344" viewBox="0 0 47.19 35.344"><g transform="translate(0.831 0.875)"><g transform="translate(0 0)"><path d="M3332.752,183.039a2.888,2.888,0,0,1,5.607.973c0,2.073-3.132,4.78-5.607,8.663h5.607" transform="translate(-3332.752 -181.124)" fill="none" stroke="#666" stroke-linecap="round" stroke-linejoin="round" stroke-width="1.3"/><path d="M3349.9,181.124l-4.3,8.381h6.771" transform="translate(-3338.18 -181.124)" fill="none" stroke="#666" stroke-linecap="round" stroke-linejoin="round" stroke-width="1.3"/><line y2="6.341" transform="translate(12.802 5.211)" fill="none" stroke="#666" stroke-linecap="round" stroke-linejoin="round" stroke-width="1.3"/><path d="M3362.748,189.78a2.9,2.9,0,0,0,5.79,0v-5.762a2.9,2.9,0,0,0-5.79,0Z" transform="translate(-3345.424 -181.124)" fill="none" stroke="#666" stroke-linecap="round" stroke-linejoin="round" stroke-width="1.3"/><path d="M3378.531,189.78a2.895,2.895,0,0,0,5.79,0v-5.762a2.895,2.895,0,0,0-5.79,0Z" transform="translate(-3352.091 -181.124)" fill="none" stroke="#666" stroke-linecap="round" stroke-linejoin="round" stroke-width="1.3"/><path d="M3396.6,190.146l2.583,6.322,1.8-4.394,1.776,4.348,2.479-6.071" transform="translate(-3359.727 -184.935)" fill="none" stroke="#666" stroke-linecap="round" stroke-linejoin="round" stroke-width="1.3"/></g><path d="M0,0H6.394a0,0,0,0,1,0,0V2.331a3.2,3.2,0,0,1-3.2,3.2h0A3.2,3.2,0,0,1,0,2.331V0A0,0,0,0,1,0,0Z" transform="translate(17.022 24.382)" fill="none" stroke="#666" stroke-linecap="round" stroke-linejoin="round" stroke-width="1.3"/><path d="M3361.38,223.01v3.909a8.722,8.722,0,1,0-6.943-3.443" transform="translate(-3341.161 -193.101)" fill="none" stroke="#666" stroke-linecap="round" stroke-linejoin="round" stroke-width="1.3"/><line y1="3.576" transform="translate(21.897 20.806)" fill="none" stroke="#666" stroke-linecap="round" stroke-linejoin="round" stroke-width="1.3"/><line y1="3.576" transform="translate(18.541 20.806)" fill="none" stroke="#666" stroke-linecap="round" stroke-linejoin="round" stroke-width="1.3"/><line x2="0.931" transform="translate(19.753 27.145)" fill="none" stroke="#666" stroke-linecap="round" stroke-linejoin="round" stroke-width="1.3"/></g></svg>