<svg xmlns="http://www.w3.org/2000/svg" width="51.493" height="36.413" viewBox="0 0 51.493 36.413"><g transform="translate(0.65 0.65)"><path d="M4,0H24.939a4,4,0,0,1,4,4V19.361a0,0,0,0,1,0,0H0a0,0,0,0,1,0,0V4A4,4,0,0,1,4,0Z" transform="translate(10.627 13.016)" fill="none" stroke="#666" stroke-linecap="round" stroke-linejoin="round" stroke-width="1.3"/><path d="M0,0H1.869A1.381,1.381,0,0,1,3.25,1.381v0A1.381,1.381,0,0,1,1.869,2.761H0a0,0,0,0,1,0,0V0A0,0,0,0,1,0,0Z" transform="translate(39.566 17.77)" fill="none" stroke="#666" stroke-linecap="round" stroke-linejoin="round" stroke-width="1.3"/><path d="M0,0H1.356A1.381,1.381,0,0,1,2.737,1.381v0A1.381,1.381,0,0,1,1.356,2.761H0a0,0,0,0,1,0,0V0A0,0,0,0,1,0,0Z" transform="translate(37.905 32.376) rotate(90)" fill="none" stroke="#666" stroke-linecap="round" stroke-linejoin="round" stroke-width="1.3"/><path d="M0,0H1.356A1.381,1.381,0,0,1,2.737,1.381v0A1.381,1.381,0,0,1,1.356,2.761H0a0,0,0,0,1,0,0V0A0,0,0,0,1,0,0Z" transform="translate(15.05 32.376) rotate(90)" fill="none" stroke="#666" stroke-linecap="round" stroke-linejoin="round" stroke-width="1.3"/><path d="M925.211,340.268H910.879a2.617,2.617,0,1,0,0,5.234v7.782h14.332V345.5a2.617,2.617,0,1,0,0-5.234Z" transform="translate(-892.948 -340.268)" fill="none" stroke="#666" stroke-linecap="round" stroke-linejoin="round" stroke-width="1.3"/><g transform="translate(20.93 2.341)"><line x1="2.883" y2="2.883" fill="none" stroke="#666" stroke-linecap="round" stroke-linejoin="round" stroke-width="1.3"/><line x1="5.09" y2="5.09" transform="translate(0.713 0.713)" stroke-width="1.3" stroke="#666" stroke-linecap="round" stroke-linejoin="round" fill="none"/><line x1="5.09" y2="5.09" transform="translate(2.53 2.53)" stroke-width="1.3" stroke="#666" stroke-linecap="round" stroke-linejoin="round" fill="none"/><line x1="2.883" y2="2.883" transform="translate(5.451 5.451)" stroke-width="1.3" stroke="#666" stroke-linecap="round" stroke-linejoin="round" fill="none"/></g><line x2="28.939" transform="translate(10.627 27.654)" stroke-width="1.3" stroke="#666" stroke-linecap="round" stroke-linejoin="round" fill="none"/><path d="M905.836,374.887v-5.133a1.262,1.262,0,0,1,1.262-1.262h2.062" transform="translate(-891.924 -352.191)" fill="none" stroke="#666" stroke-linecap="round" stroke-linejoin="round" stroke-width="1.3"/><g transform="translate(43.393 27.095)"><line y1="3.759" x2="2.17" fill="none" stroke="#666" stroke-linecap="round" stroke-linejoin="round" stroke-width="1.3"/><line y1="2.17" x2="3.759" transform="translate(1.8 3.389)" stroke-width="1.3" stroke="#666" stroke-linecap="round" stroke-linejoin="round" fill="none"/><line x2="4.338" transform="translate(2.462 8.018)" stroke-width="1.3" stroke="#666" stroke-linecap="round" stroke-linejoin="round" fill="none"/></g><g transform="translate(0 27.095)"><line x1="2.17" y1="3.759" transform="translate(4.63)" stroke-width="1.3" stroke="#666" stroke-linecap="round" stroke-linejoin="round" fill="none"/><line x1="3.759" y1="2.17" transform="translate(1.241 3.389)" stroke-width="1.3" stroke="#666" stroke-linecap="round" stroke-linejoin="round" fill="none"/><line x1="4.338" transform="translate(0 8.018)" stroke-width="1.3" stroke="#666" stroke-linecap="round" stroke-linejoin="round" fill="none"/></g></g></svg>