<svg xmlns="http://www.w3.org/2000/svg" width="36.067" height="31.01" viewBox="0 0 36.067 31.01"><g transform="translate(0.65 0.65)"><path d="M4,0H24.939a4,4,0,0,1,4,4V19.361a0,0,0,0,1,0,0H0a0,0,0,0,1,0,0V4A4,4,0,0,1,4,0Z" transform="translate(2.579 7.613)" fill="none" stroke="#666" stroke-linecap="round" stroke-linejoin="round" stroke-width="1.3"/><line x2="28.939" transform="translate(2.579 22.251)" stroke-width="1.3" stroke="#666" stroke-linecap="round" stroke-linejoin="round" fill="none"/><path d="M0,0H1.869A1.381,1.381,0,0,1,3.25,1.381v0A1.381,1.381,0,0,1,1.869,2.761H0a0,0,0,0,1,0,0V0A0,0,0,0,1,0,0Z" transform="translate(31.517 12.367)" fill="none" stroke="#666" stroke-linecap="round" stroke-linejoin="round" stroke-width="1.3"/><path d="M0,0H1.356A1.381,1.381,0,0,1,2.737,1.381v0A1.381,1.381,0,0,1,1.356,2.761H0a0,0,0,0,1,0,0V0A0,0,0,0,1,0,0Z" transform="translate(29.856 26.973) rotate(90)" fill="none" stroke="#666" stroke-linecap="round" stroke-linejoin="round" stroke-width="1.3"/><path d="M0,0H1.356A1.381,1.381,0,0,1,2.737,1.381v0A1.381,1.381,0,0,1,1.356,2.761H0a0,0,0,0,1,0,0V0A0,0,0,0,1,0,0Z" transform="translate(7.001 26.973) rotate(90)" fill="none" stroke="#666" stroke-linecap="round" stroke-linejoin="round" stroke-width="1.3"/><line x2="31.156" transform="translate(1.47 0)" stroke-width="1.3" stroke="#666" stroke-linecap="round" stroke-linejoin="round" fill="none"/><line x2="31.156" transform="translate(1.47 2.94)" stroke-width="1.3" stroke="#666" stroke-linecap="round" stroke-linejoin="round" fill="none"/><g transform="translate(8.844 0)"><line y2="7.612" transform="translate(16.407)" stroke-width="1.3" stroke="#666" stroke-linecap="round" stroke-linejoin="round" fill="none"/><line y2="7.612" fill="none" stroke="#666" stroke-linecap="round" stroke-linejoin="round" stroke-width="1.3"/></g><path d="M1079.4,349.623a1.47,1.47,0,0,1,0,2.94" transform="translate(-1046.772 -349.623)" fill="none" stroke="#666" stroke-linecap="round" stroke-linejoin="round" stroke-width="1.3"/><path d="M1024.378,352.563a1.47,1.47,0,0,1,0-2.94" transform="translate(-1022.908 -349.623)" fill="none" stroke="#666" stroke-linecap="round" stroke-linejoin="round" stroke-width="1.3"/><path d="M1033.061,374.887v-5.133a1.262,1.262,0,0,1,1.262-1.262h2.062" transform="translate(-1027.197 -357.594)" fill="none" stroke="#666" stroke-linecap="round" stroke-linejoin="round" stroke-width="1.3"/></g></svg>