<svg xmlns="http://www.w3.org/2000/svg" width="39.808" height="41.667" viewBox="0 0 39.808 41.667"><g transform="translate(0.65 0.849)"><path d="M1158.575,376.8h8.9v-15.07a3.266,3.266,0,0,0,0-6.532h-17.888a3.266,3.266,0,1,0,0,6.532" transform="translate(-1132.229 -344.261)" fill="none" stroke="#666" stroke-linecap="round" stroke-linejoin="round" stroke-width="1.3"/><g transform="translate(21.098 16.726)"><line x1="3.598" y2="3.598" fill="none" stroke="#666" stroke-linecap="round" stroke-linejoin="round" stroke-width="1.3"/><line x1="5.444" y2="5.444" transform="translate(1.799 0.89)" stroke-width="1.3" stroke="#666" stroke-linecap="round" stroke-linejoin="round" fill="none"/><line x1="4.99" y2="4.99" transform="translate(4.521 3.158)" stroke-width="1.3" stroke="#666" stroke-linecap="round" stroke-linejoin="round" fill="none"/><line x1="3.598" y2="3.598" transform="translate(6.803 6.803)" stroke-width="1.3" stroke="#666" stroke-linecap="round" stroke-linejoin="round" fill="none"/></g><g transform="translate(20.384)"><path d="M1175.085,336.262a2.039,2.039,0,0,1,0,3.578,2.038,2.038,0,0,0,0,3.578" transform="translate(-1164.317 -336.262)" fill="none" stroke="#666" stroke-linecap="round" stroke-linejoin="round" stroke-width="1.3"/><path d="M1166.748,336.262a2.039,2.039,0,0,1,0,3.578,2.038,2.038,0,0,0,0,3.578" transform="translate(-1160.795 -336.262)" fill="none" stroke="#666" stroke-linecap="round" stroke-linejoin="round" stroke-width="1.3"/><path d="M1158.279,336.262a2.038,2.038,0,0,1,0,3.578,2.038,2.038,0,0,0,0,3.578" transform="translate(-1157.217 -336.262)" fill="none" stroke="#666" stroke-linecap="round" stroke-linejoin="round" stroke-width="1.3"/></g><circle cx="7.819" cy="7.819" r="7.819" transform="translate(7.325 24.529)" fill="none" stroke="#666" stroke-linecap="round" stroke-linejoin="round" stroke-width="1.3"/><rect width="4.196" height="2.006" transform="translate(13.047 20.28)" stroke-width="1.3" stroke="#666" stroke-linecap="round" stroke-linejoin="round" fill="none"/><line y1="4.908" transform="translate(15.145 27.44)" stroke-width="1.3" stroke="#666" stroke-linecap="round" stroke-linejoin="round" fill="none"/><line x2="3.151" transform="translate(11.994 32.348)" stroke-width="1.3" stroke="#666" stroke-linecap="round" stroke-linejoin="round" fill="none"/><line x1="4.479" transform="translate(1.305 27.688)" stroke-width="1.3" stroke="#666" stroke-linecap="round" stroke-linejoin="round" fill="none"/><line x1="4.479" transform="translate(0 32.348)" stroke-width="1.3" stroke="#666" stroke-linecap="round" stroke-linejoin="round" fill="none"/><line x1="4.479" transform="translate(1.305 37.008)" stroke-width="1.3" stroke="#666" stroke-linecap="round" stroke-linejoin="round" fill="none"/><line y1="2.243" transform="translate(15.145 22.286)" stroke-width="1.3" stroke="#666" stroke-linecap="round" stroke-linejoin="round" fill="none"/></g></svg>