<svg xmlns="http://www.w3.org/2000/svg" width="25.72" height="36.922" viewBox="0 0 25.72 36.922"><g transform="translate(0.65 0.65)"><path d="M1340.384,355.2H1322.5a3.266,3.266,0,0,0,0,6.532V376.8h17.888v-15.07a3.266,3.266,0,0,0,0-6.532Z" transform="translate(-1319.23 -341.176)" fill="none" stroke="#666" stroke-linecap="round" stroke-linejoin="round" stroke-width="1.3"/><g transform="translate(7.009 19.83)"><line x1="3.598" y2="3.598" transform="translate(0 0)" stroke-width="1.3" stroke="#666" stroke-linecap="round" stroke-linejoin="round" fill="none"/><line x1="6.353" y2="6.353" transform="translate(0.89 0.89)" stroke-width="1.3" stroke="#666" stroke-linecap="round" stroke-linejoin="round" fill="none"/><line x1="6.353" y2="6.353" transform="translate(3.158 3.158)" stroke-width="1.3" stroke="#666" stroke-linecap="round" stroke-linejoin="round" fill="none"/><line x1="3.598" y2="3.598" transform="translate(6.803 6.803)" stroke-width="1.3" stroke="#666" stroke-linecap="round" stroke-linejoin="round" fill="none"/></g><g transform="translate(2.792 3.861)"><line x2="1.14" transform="translate(5.001 3.071)" stroke-width="1.3" stroke="#666" stroke-linecap="round" stroke-linejoin="round" fill="none"/><line x2="1.14" transform="translate(0 3.071)" stroke-width="1.3" stroke="#666" stroke-linecap="round" stroke-linejoin="round" fill="none"/><line y2="1.14" transform="translate(3.071 5.001)" stroke-width="1.3" stroke="#666" stroke-linecap="round" stroke-linejoin="round" fill="none"/><line y2="1.14" transform="translate(3.071 0)" stroke-width="1.3" stroke="#666" stroke-linecap="round" stroke-linejoin="round" fill="none"/></g><g transform="translate(13.367 0)"><line x2="1.14" transform="translate(5.001 3.071)" stroke-width="1.3" stroke="#666" stroke-linecap="round" stroke-linejoin="round" fill="none"/><line x2="1.14" transform="translate(0 3.071)" stroke-width="1.3" stroke="#666" stroke-linecap="round" stroke-linejoin="round" fill="none"/><line y2="1.14" transform="translate(3.071 5.001)" stroke-width="1.3" stroke="#666" stroke-linecap="round" stroke-linejoin="round" fill="none"/><line y2="1.14" transform="translate(3.071 0)" stroke-width="1.3" stroke="#666" stroke-linecap="round" stroke-linejoin="round" fill="none"/></g></g></svg>