<svg xmlns="http://www.w3.org/2000/svg" width="30.687" height="30.522" viewBox="0 0 30.687 30.522"><g transform="translate(0.682 0.849)"><g transform="translate(8.746 0)"><path d="M1438.824,345.262a2.038,2.038,0,0,1,0,3.578,2.038,2.038,0,0,0,0,3.578" transform="translate(-1428.056 -345.262)" fill="none" stroke="#666" stroke-linecap="round" stroke-linejoin="round" stroke-width="1.3"/><path d="M1430.486,345.262a2.038,2.038,0,0,1,0,3.578,2.038,2.038,0,0,0,0,3.578" transform="translate(-1424.534 -345.262)" fill="none" stroke="#666" stroke-linecap="round" stroke-linejoin="round" stroke-width="1.3"/><path d="M1422.018,345.262a2.038,2.038,0,0,1,0,3.578,2.038,2.038,0,0,0,0,3.578" transform="translate(-1420.956 -345.262)" fill="none" stroke="#666" stroke-linecap="round" stroke-linejoin="round" stroke-width="1.3"/></g><g transform="translate(0 10.984)"><path d="M1420.473,382.32c-12.517,0-15.376-5.762-14.521-9.271,1.212-4.984,7.958-8.767,14.521-8.767s13.309,3.784,14.521,8.767C1435.849,376.558,1432.991,382.32,1420.473,382.32Z" transform="translate(-1405.813 -364.281)" fill="none" stroke="#666" stroke-linecap="round" stroke-linejoin="round" stroke-width="1.3"/><path d="M1420.634,366.173c4.872.9,9.385,3,12.2,6.809" transform="translate(-1412.074 -365.08)" fill="none" stroke="#666" stroke-linecap="round" stroke-linejoin="round" stroke-width="1.3"/><path d="M1432.835,366.173c-4.871.9-9.385,3-12.2,6.809" transform="translate(-1412.074 -365.08)" fill="none" stroke="#666" stroke-linecap="round" stroke-linejoin="round" stroke-width="1.3"/></g></g></svg>