<svg xmlns="http://www.w3.org/2000/svg" width="64.433" height="63.973" viewBox="0 0 64.433 63.973"><g transform="translate(-3409.529 -524.234)"><path d="M3468.882,579.553v-.222a6.967,6.967,0,0,1,2.04-4.925h0a6.964,6.964,0,0,0,2.04-4.924v-7.221a3.069,3.069,0,0,0-3.069-3.07h0a3.069,3.069,0,0,0-3.069,3.07v-3.719a3.187,3.187,0,0,0-2.9-3.239,3.07,3.07,0,0,0-3.235,3.065v-3.152a3.186,3.186,0,0,0-2.9-3.238,3.069,3.069,0,0,0-3.234,3.065V540.435a3.07,3.07,0,0,0-3.234-3.065,3.187,3.187,0,0,0-2.905,3.239v23.562l-5.244-5.022a3.187,3.187,0,0,0-4.344-.236,3.069,3.069,0,0,0-.12,4.454l8.4,8.185a6.964,6.964,0,0,1,2.1,4.989v3.012" fill="none" stroke="#666" stroke-linecap="round" stroke-linejoin="round" stroke-width="2"/><rect width="25.923" height="7.654" rx="3.638" transform="translate(3445.794 579.553)" fill="none" stroke="#666" stroke-linecap="round" stroke-linejoin="round" stroke-width="2"/><path d="M3465.074,546.638v-21.4h-54.545v41.411h22.51" fill="none" stroke="#666" stroke-linecap="round" stroke-linejoin="round" stroke-width="2"/></g></svg>