<svg xmlns="http://www.w3.org/2000/svg" width="44.435" height="60.843" viewBox="0 0 44.435 60.843"><g transform="translate(-2836.721 -179.836)"><path d="M0,0H32.852a0,0,0,0,1,0,0V9.379A16.426,16.426,0,0,1,16.426,25.805h0A16.426,16.426,0,0,1,0,9.379V0A0,0,0,0,1,0,0Z" transform="translate(2837.721 213.874)" fill="none" stroke="#666" stroke-linecap="round" stroke-linejoin="round" stroke-width="2"/><path d="M2870.574,217.5h6.194a3.382,3.382,0,0,1,3.388,3.4c-.038,4.988-1.156,11.061-11.47,11.36" fill="none" stroke="#666" stroke-linecap="round" stroke-linejoin="round" stroke-width="2"/><line x1="32.852" transform="translate(2837.721 239.679)" fill="none" stroke="#666" stroke-linecap="round" stroke-linejoin="round" stroke-width="2"/><circle cx="6.062" cy="6.062" r="6.062" transform="translate(2841.632 189)" fill="none" stroke="#666" stroke-linecap="round" stroke-linejoin="round" stroke-width="2"/><path d="M2841.632,195.062c0-9.728,11.188-13.938,11.188-13.938" fill="none" stroke="#666" stroke-linecap="round" stroke-linejoin="round" stroke-width="2"/><line x2="8.375" y2="8.375" transform="translate(2858.288 190.875)" fill="none" stroke="#666" stroke-linecap="round" stroke-linejoin="round" stroke-width="2"/><line x1="8.375" y2="8.375" transform="translate(2858.288 190.875)" fill="none" stroke="#666" stroke-linecap="round" stroke-linejoin="round" stroke-width="2"/></g></svg>