<svg xmlns="http://www.w3.org/2000/svg" width="68.021" height="70.539" viewBox="0 0 68.021 70.539"><g transform="translate(-3003.443 -1099.883)"><g transform="translate(-1187 922)"><path d="M4216.417,209.716a83.3,83.3,0,0,1,8.161-22.567h21.428c6,11.632,10.715,24.367,10.715,52.53h-29.16" fill="none" stroke="#666" stroke-linecap="round" stroke-linejoin="round" stroke-width="2"/><path d="M4,0H17.429a4,4,0,0,1,4,4V8.265a0,0,0,0,1,0,0H0a0,0,0,0,1,0,0V4A4,4,0,0,1,4,0Z" transform="translate(4224.578 178.883)" fill="none" stroke="#666" stroke-linecap="round" stroke-linejoin="round" stroke-width="2"/><path d="M4224.578,187.149h-9.915a4.008,4.008,0,0,0-3.541,2.139c-3.295,6.246-5.878,10.979-6.64,21.376" fill="none" stroke="#666" stroke-linecap="round" stroke-linejoin="round" stroke-width="2"/><path d="M4246.006,187.149h11.458l-6.412,11.393" fill="none" stroke="#666" stroke-linecap="round" stroke-linejoin="round" stroke-width="2"/><line x1="25.525" transform="translate(4231.051 231.503)" fill="none" stroke="#666" stroke-linecap="round" stroke-linejoin="round" stroke-width="2"/></g><g transform="translate(2683.178 862.811)"><line x2="25.583" transform="translate(324.463 281.028)" fill="none" stroke="#666" stroke-linecap="round" stroke-miterlimit="10" stroke-width="2"/><line x1="25.583" transform="translate(324.463 300.215)" fill="none" stroke="#666" stroke-linecap="round" stroke-miterlimit="10" stroke-width="2"/><line x1="31.338" transform="translate(321.586 293.82)" fill="none" stroke="#666" stroke-linecap="round" stroke-miterlimit="10" stroke-width="2"/><line x1="31.338" transform="translate(321.586 287.424)" fill="none" stroke="#666" stroke-linecap="round" stroke-miterlimit="10" stroke-width="2"/><line y2="25.583" transform="translate(346.848 277.83)" fill="none" stroke="#666" stroke-linecap="round" stroke-miterlimit="10" stroke-width="2"/><line y1="25.583" transform="translate(327.661 277.83)" fill="none" stroke="#666" stroke-linecap="round" stroke-miterlimit="10" stroke-width="2"/><line y1="31.338" transform="translate(334.057 274.953)" fill="none" stroke="#666" stroke-linecap="round" stroke-miterlimit="10" stroke-width="2"/><line y1="31.338" transform="translate(340.452 274.953)" fill="none" stroke="#666" stroke-linecap="round" stroke-miterlimit="10" stroke-width="2"/><circle cx="15.989" cy="15.989" r="15.989" transform="translate(321.265 274.633)" fill="none" stroke="#666" stroke-linecap="round" stroke-miterlimit="10" stroke-width="2"/></g></g></svg>