<svg xmlns="http://www.w3.org/2000/svg" width="41.299" height="36.413" viewBox="0 0 41.299 36.413"><g transform="translate(0.65 0.65)"><path d="M3576.757,352.922h-9.5a6.326,6.326,0,0,1-6.327-6.326h0a6.326,6.326,0,0,1,6.327-6.327h27.347a6.326,6.326,0,0,1,6.326,6.327h0a6.326,6.326,0,0,1-6.326,6.326h-7.5" transform="translate(-3560.934 -340.268)" fill="none" stroke="#666" stroke-linecap="round" stroke-linejoin="round" stroke-width="1.3"/><circle cx="2.888" cy="2.888" r="2.888" transform="translate(3.765 3.439)" fill="none" stroke="#666" stroke-linecap="round" stroke-linejoin="round" stroke-width="1.3"/><path d="M3590.562,349.111a2.888,2.888,0,0,1,5-1.968" transform="translate(-3573.45 -342.784)" fill="none" stroke="#666" stroke-linecap="round" stroke-linejoin="round" stroke-width="1.3"/><path d="M3590.823,352.82" transform="translate(-3573.56 -345.571)" fill="none" stroke="#666" stroke-linecap="round" stroke-linejoin="round" stroke-width="1.3"/><path d="M3601.463,375.588v-.128a4.023,4.023,0,0,1,1.178-2.844h0a4.025,4.025,0,0,0,1.178-2.844V365.6a1.772,1.772,0,0,0-1.773-1.773h0a1.772,1.772,0,0,0-1.772,1.773v-2.148a1.84,1.84,0,0,0-1.678-1.87,1.773,1.773,0,0,0-1.868,1.77v-1.82a1.84,1.84,0,0,0-1.677-1.871,1.773,1.773,0,0,0-1.868,1.77V353a1.773,1.773,0,0,0-1.868-1.77,1.84,1.84,0,0,0-1.677,1.87V366.7l-3.029-2.9a1.84,1.84,0,0,0-2.508-.137,1.774,1.774,0,0,0-.07,2.573l4.854,4.727a4.02,4.02,0,0,1,1.216,2.881v1.74" transform="translate(-3570.472 -344.896)" fill="none" stroke="#666" stroke-linecap="round" stroke-linejoin="round" stroke-width="1.3"/><rect width="14.972" height="4.421" rx="2.21" transform="translate(17.657 30.692)" stroke-width="1.3" stroke="#666" stroke-linecap="round" stroke-linejoin="round" fill="none"/><circle cx="2.888" cy="2.888" r="2.888" transform="translate(30.46 3.439)" fill="none" stroke="#666" stroke-linecap="round" stroke-linejoin="round" stroke-width="1.3"/></g></svg>