<svg xmlns="http://www.w3.org/2000/svg" width="30.688" height="30.523" viewBox="0 0 30.688 30.523"><g transform="translate(0.683 0.849)"><g transform="translate(8.746 0)"><path d="M3703.658,345.262a2.039,2.039,0,0,1,0,3.578,2.038,2.038,0,0,0,0,3.578" transform="translate(-3692.89 -345.262)" fill="none" stroke="#666" stroke-linecap="round" stroke-linejoin="round" stroke-width="1.3"/><path d="M3695.322,345.262a2.038,2.038,0,0,1,0,3.578,2.038,2.038,0,0,0,0,3.578" transform="translate(-3689.367 -345.262)" fill="none" stroke="#666" stroke-linecap="round" stroke-linejoin="round" stroke-width="1.3"/><path d="M3686.852,345.262a2.038,2.038,0,0,1,0,3.578,2.039,2.039,0,0,0,0,3.578" transform="translate(-3685.791 -345.262)" fill="none" stroke="#666" stroke-linecap="round" stroke-linejoin="round" stroke-width="1.3"/></g><g transform="translate(0 10.984)"><path d="M3685.307,382.32c-12.517,0-15.375-5.762-14.521-9.271,1.212-4.984,7.958-8.767,14.521-8.767s13.309,3.784,14.522,8.767C3700.683,376.558,3697.824,382.32,3685.307,382.32Z" transform="translate(-3670.647 -364.281)" fill="none" stroke="#666" stroke-linecap="round" stroke-linejoin="round" stroke-width="1.3"/><path d="M3685.469,366.173c4.872.9,9.385,3,12.2,6.809" transform="translate(-3676.908 -365.08)" fill="none" stroke="#666" stroke-linecap="round" stroke-linejoin="round" stroke-width="1.3"/><path d="M3697.669,366.173c-4.872.9-9.385,3-12.2,6.809" transform="translate(-3676.908 -365.08)" fill="none" stroke="#666" stroke-linecap="round" stroke-linejoin="round" stroke-width="1.3"/></g></g></svg>