<svg xmlns="http://www.w3.org/2000/svg" width="72.237" height="99.637" viewBox="0 0 72.237 99.637"><g transform="translate(-297.564 -235.4)"><path d="M111.057,246.443h26.81l20.413-15.31a5.181,5.181,0,0,0,2.072-4.144h0a5.18,5.18,0,0,0-8.4-4.053l-13.432,10.69" transform="translate(208.449 77.69)" fill="none" stroke="#666" stroke-linecap="round" stroke-linejoin="round" stroke-width="2"/><path d="M103.148,231.344l6.465-4.907a7.409,7.409,0,0,1,4.477-1.507H117.5a7.406,7.406,0,0,1,5.236,2.169l1.534,1.534h10.418a3.824,3.824,0,0,1,3.824,3.824h0a3.824,3.824,0,0,1-3.824,3.824H122.084" transform="translate(208.449 77.69)" fill="none" stroke="#666" stroke-linecap="round" stroke-linejoin="round" stroke-width="2"/><rect width="11.674" height="26.773" rx="4" transform="matrix(0.898, -0.439, 0.439, 0.898, 298.901, 309.646)" stroke-width="2" stroke="#666" stroke-linecap="round" stroke-linejoin="round" fill="none"/><path d="M137.394,176.877v-6.806a11.361,11.361,0,0,0-22.722,0v6.806" transform="translate(208.449 77.69)" fill="none" stroke="#666" stroke-linecap="round" stroke-linejoin="round" stroke-width="2"/><rect width="38.189" height="42.772" rx="4" transform="translate(315.388 248.65)" stroke-width="2" stroke="#666" stroke-linecap="round" stroke-linejoin="round" fill="none"/><line x2="38.189" transform="translate(315.388 284.028)" stroke-width="2" stroke="#666" stroke-linecap="round" stroke-linejoin="round" fill="none"/></g></svg>