<svg xmlns="http://www.w3.org/2000/svg" width="69.645" height="73.465" viewBox="0 0 69.645 73.465"><g transform="translate(-287.36 -924.238)"><path d="M320.775,938.7c-4.5,0-9.2-13.467-20.833-13.467S291.12,938.7,301.63,938.7h19.144Z" transform="translate(1.407 0)" fill="none" stroke="#666" stroke-linecap="round" stroke-linejoin="round" stroke-width="2"/><rect width="21.107" height="45.66" transform="translate(293.183 951.043)" fill="none" stroke="#666" stroke-linecap="round" stroke-linejoin="round" stroke-width="2"/><path d="M332.582,938.7c10.51,0,13.325-13.467,1.689-13.467S317.943,938.7,313.438,938.7h19.144Z" transform="translate(8.744 0)" fill="none" stroke="#666" stroke-linecap="round" stroke-linejoin="round" stroke-width="2"/><path d="M314.29,935.223H288.36v12.339H314.29Z" transform="translate(0 3.481)" fill="none" stroke="#666" stroke-linecap="round" stroke-linejoin="round" stroke-width="2"/><path d="M330.542,935.223H319.29v12.339h25.93V935.223Z" transform="translate(10.785 3.481)" fill="none" stroke="#666" stroke-linecap="round" stroke-linejoin="round" stroke-width="2"/><path d="M323.37,935.223H307.586v58H323.37v-58Z" transform="translate(6.704 3.481)" fill="none" stroke="#666" stroke-linecap="round" stroke-linejoin="round" stroke-width="2"/><rect width="21.107" height="45.66" transform="translate(330.074 951.043)" fill="none" stroke="#666" stroke-linecap="round" stroke-linejoin="round" stroke-width="2"/></g></svg>