<svg xmlns="http://www.w3.org/2000/svg" width="43.473" height="37.397" viewBox="0 0 43.473 37.397"><g transform="translate(0.65 0.888)"><g transform="translate(19.62 25.149)"><path d="M0,0H13.635a0,0,0,0,1,0,0V3.893A6.818,6.818,0,0,1,6.818,10.71h0A6.818,6.818,0,0,1,0,3.893V0A0,0,0,0,1,0,0Z" transform="translate(0 0)" fill="none" stroke="#666" stroke-linecap="round" stroke-linejoin="round" stroke-width="1.3"/><path d="M3511.285,222.675h2.571a1.4,1.4,0,0,1,1.406,1.41c-.015,2.07-.479,4.591-4.76,4.715" transform="translate(-3497.65 -221.17)" fill="none" stroke="#666" stroke-linecap="round" stroke-linejoin="round" stroke-width="1.3"/><line x1="13.635" transform="translate(0 10.71)" stroke-width="1.3" stroke="#666" stroke-linecap="round" stroke-linejoin="round" fill="none"/></g><g transform="translate(0 0)"><path d="M3454.278,197.261c5.559-9.628,9.684-13.051,14.031-15.844l7.326,4.229c-.246,5.161-1.148,10.445-6.706,20.073Z" transform="translate(-3454.278 -178.592)" fill="none" stroke="#666" stroke-linecap="round" stroke-linejoin="round" stroke-width="1.3"/><path d="M3.263,0H5.2A3.263,3.263,0,0,1,8.459,3.263v0a0,0,0,0,1,0,0H0a0,0,0,0,1,0,0v0A3.263,3.263,0,0,1,3.263,0Z" transform="translate(15.662 0) rotate(30)" fill="none" stroke="#666" stroke-linecap="round" stroke-linejoin="round" stroke-width="1.3"/><path d="M3470.152,179.832l-3.39-1.957a1.582,1.582,0,0,0-1.633.033,18.121,18.121,0,0,0-6.489,6" transform="translate(-3456.121 -177.006)" fill="none" stroke="#666" stroke-linecap="round" stroke-linejoin="round" stroke-width="1.3"/><path d="M3490.873,188.74,3494.79,191l-4.441,2.629" transform="translate(-3469.516 -181.685)" fill="none" stroke="#666" stroke-linecap="round" stroke-linejoin="round" stroke-width="1.3"/><line x1="14.552" y1="8.402" transform="translate(1.663 15.903)" stroke-width="1.3" stroke="#666" stroke-linecap="round" stroke-linejoin="round" fill="none"/></g><path d="M3499.124,196.3a6.56,6.56,0,0,1,1.267,3.68c.007,2.794-2.158,4.091-1.934,6.51a5.336,5.336,0,0,0,2.135,3.538" transform="translate(-3472.934 -184.879)" fill="none" stroke="#666" stroke-linecap="round" stroke-linejoin="round" stroke-width="1.3"/><path d="M3519,193.427l-2.533,2.533-1.217-1.217" transform="translate(-3480.036 -183.665)" fill="none" stroke="#666" stroke-linecap="round" stroke-linejoin="round" stroke-width="1.3"/><circle cx="5.092" cy="5.092" r="5.092" transform="translate(31.988 6.065)" fill="none" stroke="#666" stroke-linecap="round" stroke-linejoin="round" stroke-width="1.3"/></g></svg>