<svg xmlns="http://www.w3.org/2000/svg" width="45.718" height="36.413" viewBox="0 0 45.718 36.413"><g transform="translate(0.65 0.65)"><g transform="translate(4.414 0)"><path d="M3685.317,217.488c0-16.266,2.724-23.621,6.188-30.339h12.376c3.465,6.718,6.188,14.073,6.188,30.339Z" transform="translate(-3679.898 -182.375)" fill="none" stroke="#666" stroke-linecap="round" stroke-linejoin="round" stroke-width="1.3"/><path d="M4,0H8.376a4,4,0,0,1,4,4v.774a0,0,0,0,1,0,0H0a0,0,0,0,1,0,0V4A4,4,0,0,1,4,0Z" transform="translate(11.607)" fill="none" stroke="#666" stroke-linecap="round" stroke-linejoin="round" stroke-width="1.3"/><path d="M3687.542,187.149h-5.728a2.314,2.314,0,0,0-2.044,1.235c-1.9,3.607-3.395,6.341-3.835,12.346" transform="translate(-3675.935 -182.375)" fill="none" stroke="#666" stroke-linecap="round" stroke-linejoin="round" stroke-width="1.3"/><path d="M3717.46,187.149h6.617l-3.7,6.58" transform="translate(-3693.478 -182.375)" fill="none" stroke="#666" stroke-linecap="round" stroke-linejoin="round" stroke-width="1.3"/><line x1="24.585" transform="translate(5.502 30.391)" stroke-width="1.3" stroke="#666" stroke-linecap="round" stroke-linejoin="round" fill="none"/></g><g transform="translate(37.617 27.095)"><line y1="3.759" x2="2.17" fill="none" stroke="#666" stroke-linecap="round" stroke-linejoin="round" stroke-width="1.3"/><line y1="2.17" x2="3.759" transform="translate(1.8 3.389)" stroke-width="1.3" stroke="#666" stroke-linecap="round" stroke-linejoin="round" fill="none"/><line x2="4.338" transform="translate(2.462 8.018)" stroke-width="1.3" stroke="#666" stroke-linecap="round" stroke-linejoin="round" fill="none"/></g><g transform="translate(0 27.095)"><line x1="2.17" y1="3.759" transform="translate(4.63)" stroke-width="1.3" stroke="#666" stroke-linecap="round" stroke-linejoin="round" fill="none"/><line x1="3.759" y1="2.17" transform="translate(1.241 3.389)" stroke-width="1.3" stroke="#666" stroke-linecap="round" stroke-linejoin="round" fill="none"/><line x1="4.338" transform="translate(0 8.018)" stroke-width="1.3" stroke="#666" stroke-linecap="round" stroke-linejoin="round" fill="none"/></g></g></svg>