<svg xmlns="http://www.w3.org/2000/svg" width="49.81" height="40.834" viewBox="0 0 49.81 40.834"><g transform="translate(0.696 0.68)"><path d="M3901.419,217.488c0-16.266,2.722-23.621,6.187-30.339h12.376c3.465,6.718,6.188,14.073,6.188,30.339Z" transform="translate(-3896.001 -177.984)" fill="none" stroke="#666" stroke-linecap="round" stroke-linejoin="round" stroke-width="1.3"/><path d="M4,0H8.376a4,4,0,0,1,4,4v.774a0,0,0,0,1,0,0H0a0,0,0,0,1,0,0V4A4,4,0,0,1,4,0Z" transform="translate(36.088 34.73)" fill="none" stroke="#666" stroke-linecap="round" stroke-linejoin="round" stroke-width="1.3"/><path d="M3903.644,187.149h-5.727a2.314,2.314,0,0,0-2.045,1.235c-1.9,3.607-3.4,6.341-3.835,12.346" transform="translate(-3892.037 -177.984)" fill="none" stroke="#666" stroke-linecap="round" stroke-linejoin="round" stroke-width="1.3"/><path d="M3933.562,187.149h6.617l-3.7,6.58" transform="translate(-3909.579 -177.984)" fill="none" stroke="#666" stroke-linecap="round" stroke-linejoin="round" stroke-width="1.3"/><line x1="24.585" transform="translate(5.502 34.782)" stroke-width="1.3" stroke="#666" stroke-linecap="round" stroke-linejoin="round" fill="none"/><path d="M3922.847,176.979c6.188-9.335,17.323-6.471,21.991,3.292,2.863,5.989,2.49,13.151,2.49,21.637" transform="translate(-3905.052 -171.28)" fill="none" stroke="#666" stroke-linecap="round" stroke-linejoin="round" stroke-width="1.3"/><path d="M3965.747,222.66l-1.907,1.907-1.907-1.907" transform="translate(-3921.564 -192.986)" fill="none" stroke="#666" stroke-linecap="round" stroke-linejoin="round" stroke-width="1.3"/></g></svg>