<svg xmlns="http://www.w3.org/2000/svg" width="45.037" height="62.796" viewBox="0 0 45.037 62.796"><g transform="translate(-2918.86 -177.883)"><path d="M0,0H20.3a0,0,0,0,1,0,0V5.795A10.149,10.149,0,0,1,10.149,15.944h0A10.149,10.149,0,0,1,0,5.795V0A0,0,0,0,1,0,0Z" transform="translate(2936.678 223.735)" fill="none" stroke="#666" stroke-linecap="round" stroke-linejoin="round" stroke-width="2"/><path d="M2956.977,225.976h3.827a2.089,2.089,0,0,1,2.093,2.1c-.024,3.081-.714,6.834-7.087,7.019" fill="none" stroke="#666" stroke-linecap="round" stroke-linejoin="round" stroke-width="2"/><line x1="20.298" transform="translate(2936.678 239.679)" fill="none" stroke="#666" stroke-linecap="round" stroke-linejoin="round" stroke-width="2"/><path d="M0,0H20.3a0,0,0,0,1,0,0V5.795A10.149,10.149,0,0,1,10.149,15.944h0A10.149,10.149,0,0,1,0,5.795V0A0,0,0,0,1,0,0Z" transform="translate(2936.678 201.55)" fill="none" stroke="#666" stroke-linecap="round" stroke-linejoin="round" stroke-width="2"/><path d="M2956.977,203.791h3.827a2.089,2.089,0,0,1,2.093,2.1c-.024,3.082-.714,6.834-7.087,7.019" fill="none" stroke="#666" stroke-linecap="round" stroke-linejoin="round" stroke-width="2"/><line x1="20.298" transform="translate(2936.678 217.494)" fill="none" stroke="#666" stroke-linecap="round" stroke-linejoin="round" stroke-width="2"/><path d="M0,0H20.3a0,0,0,0,1,0,0V5.795A10.149,10.149,0,0,1,10.149,15.944h0A10.149,10.149,0,0,1,0,5.795V0A0,0,0,0,1,0,0Z" transform="translate(2936.678 178.883)" fill="none" stroke="#666" stroke-linecap="round" stroke-linejoin="round" stroke-width="2"/><path d="M2956.977,181.124h3.827a2.089,2.089,0,0,1,2.093,2.1c-.024,3.081-.714,6.834-7.087,7.019" fill="none" stroke="#666" stroke-linecap="round" stroke-linejoin="round" stroke-width="2"/><line x1="20.298" transform="translate(2936.678 194.827)" fill="none" stroke="#666" stroke-linecap="round" stroke-linejoin="round" stroke-width="2"/><line x2="9.248" transform="translate(2919.86 208.717)" fill="none" stroke="#666" stroke-linecap="round" stroke-linejoin="round" stroke-width="2"/><line x2="9.248" transform="translate(2919.86 186.855)" fill="none" stroke="#666" stroke-linecap="round" stroke-linejoin="round" stroke-width="2"/><line x2="9.248" transform="translate(2919.86 231.707)" fill="none" stroke="#666" stroke-linecap="round" stroke-linejoin="round" stroke-width="2"/><line y2="60.796" transform="translate(2919.86 178.883)" fill="none" stroke="#666" stroke-linecap="round" stroke-linejoin="round" stroke-width="2"/></g></svg>