<svg xmlns="http://www.w3.org/2000/svg" width="81.384" height="60.901" viewBox="0 0 81.384 60.901"><g transform="translate(-3007.793 -179.778)"><path d="M3009.072,184.439a5,5,0,0,1,9.709,1.685c0,3.59-5.423,8.277-9.709,15h9.709" fill="none" stroke="#666" stroke-linecap="round" stroke-linejoin="round" stroke-width="2"/><path d="M3029.367,181.124l-7.447,14.511h11.724" fill="none" stroke="#666" stroke-linecap="round" stroke-linejoin="round" stroke-width="2"/><line y2="10.978" transform="translate(3031.239 190.146)" fill="none" stroke="#666" stroke-linecap="round" stroke-linejoin="round" stroke-width="2"/><path d="M3039.068,196.112a5.012,5.012,0,1,0,10.024,0v-9.976a5.012,5.012,0,1,0-10.024,0Z" fill="none" stroke="#666" stroke-linecap="round" stroke-linejoin="round" stroke-width="2"/><path d="M3054.851,196.112a5.012,5.012,0,0,0,10.025,0v-9.976a5.012,5.012,0,0,0-10.025,0Z" fill="none" stroke="#666" stroke-linecap="round" stroke-linejoin="round" stroke-width="2"/><path d="M3072.925,190.146l4.472,10.946,3.108-7.608,3.075,7.528,4.294-10.512" fill="none" stroke="#666" stroke-linecap="round" stroke-linejoin="round" stroke-width="2"/><path d="M0,0H11.07a0,0,0,0,1,0,0V5.2A4.374,4.374,0,0,1,6.7,9.571H4.374A4.374,4.374,0,0,1,0,5.2V0A0,0,0,0,1,0,0Z" transform="translate(3038.545 223.339)" fill="none" stroke="#666" stroke-linecap="round" stroke-linejoin="round" stroke-width="2"/><path d="M3044.08,232.91v6.769a15.1,15.1,0,1,0-12.022-5.961" fill="none" stroke="#666" stroke-linecap="round" stroke-linejoin="round" stroke-width="2"/><line y1="6.191" transform="translate(3046.985 217.148)" fill="none" stroke="#666" stroke-linecap="round" stroke-linejoin="round" stroke-width="2"/><line y1="6.191" transform="translate(3041.174 217.148)" fill="none" stroke="#666" stroke-linecap="round" stroke-linejoin="round" stroke-width="2"/><line x2="1.612" transform="translate(3043.274 228.125)" fill="none" stroke="#666" stroke-linecap="round" stroke-linejoin="round" stroke-width="2"/></g></svg>