<svg xmlns="http://www.w3.org/2000/svg" width="60.611" height="70.539" viewBox="0 0 60.611 70.539"><g transform="translate(-3573.853 -1099.883)"><g transform="translate(-624 922)"><path d="M4216.417,209.716a83.3,83.3,0,0,1,8.161-22.567h21.428c6,11.632,10.715,24.367,10.715,52.53h-29.16" fill="none" stroke="#666" stroke-linecap="round" stroke-linejoin="round" stroke-width="2"/><path d="M4,0H17.429a4,4,0,0,1,4,4V8.265a0,0,0,0,1,0,0H0a0,0,0,0,1,0,0V4A4,4,0,0,1,4,0Z" transform="translate(4224.578 178.883)" fill="none" stroke="#666" stroke-linecap="round" stroke-linejoin="round" stroke-width="2"/><path d="M4224.578,187.149h-9.915a4.008,4.008,0,0,0-3.541,2.139c-3.295,6.246-5.878,10.979-6.64,21.376" fill="none" stroke="#666" stroke-linecap="round" stroke-linejoin="round" stroke-width="2"/><path d="M4246.006,187.149h11.458l-6.412,11.393" fill="none" stroke="#666" stroke-linecap="round" stroke-linejoin="round" stroke-width="2"/><line x1="25.525" transform="translate(4231.051 231.503)" fill="none" stroke="#666" stroke-linecap="round" stroke-linejoin="round" stroke-width="2"/></g><path d="M877.07,264.869a11.392,11.392,0,0,1-22.784,0c0-6.292,11.392-20.359,11.392-20.359S877.07,258.577,877.07,264.869Z" transform="translate(2720.566 893.161)" fill="none" stroke="#666" stroke-linecap="round" stroke-linejoin="round" stroke-miterlimit="10" stroke-width="2"/><path d="M-13979.349-1664.321c2.856-2.613,2.566-4.789,0-7.279" transform="translate(17569 2826)" fill="none" stroke="#707070" stroke-linecap="round" stroke-width="2"/></g></svg>