<svg xmlns="http://www.w3.org/2000/svg" width="55.795" height="68.144" viewBox="0 0 55.795 68.144"><g transform="translate(-2891.89 -1099.994)"><g transform="translate(-152.004 2668.548) rotate(-30)"><path d="M3411.622,208.85c9.625-16.671,16.767-22.6,24.294-27.433l12.684,7.323c-.424,8.936-1.985,18.085-11.61,34.756Z" fill="none" stroke="#666" stroke-linecap="round" stroke-linejoin="round" stroke-width="2"/><path d="M4,0h6.646a4,4,0,0,1,4,4V5.649a0,0,0,0,1,0,0H0a0,0,0,0,1,0,0V4A4,4,0,0,1,4,0Z" transform="translate(3438.741 176.525) rotate(30)" fill="none" stroke="#666" stroke-linecap="round" stroke-linejoin="round" stroke-width="2"/><path d="M3435.916,181.417l-5.869-3.388a2.739,2.739,0,0,0-2.827.057c-4.085,2.57-7.231,4.489-11.235,10.383" fill="none" stroke="#666" stroke-linecap="round" stroke-linejoin="round" stroke-width="2"/><path d="M3448.6,188.74l6.782,3.915-7.689,4.553" fill="none" stroke="#666" stroke-linecap="round" stroke-linejoin="round" stroke-width="2"/><line x1="25.196" y1="14.547" transform="translate(3414.502 204.059)" fill="none" stroke="#666" stroke-linecap="round" stroke-linejoin="round" stroke-width="2"/></g><g transform="translate(-28.018 -5.127)"><path d="M217.273,399.88c-3.045,2.234-9.125,3.757-16.129,3.757-10.055,0-18.206-3.14-18.206-7.013s8.151-7.013,18.206-7.013a43.339,43.339,0,0,1,8.207.751" transform="translate(2748.81 766.809)" fill="none" stroke="#666" stroke-linecap="round" stroke-miterlimit="10" stroke-width="2"/><path d="M267.99,415.787l6.234,1.62-1.62,6.234" transform="translate(2692.974 748.405)" fill="none" stroke="#666" stroke-linecap="round" stroke-linejoin="round" stroke-miterlimit="10" stroke-width="2"/></g></g></svg>