<svg xmlns="http://www.w3.org/2000/svg" width="40.887" height="36.413" viewBox="0 0 40.887 36.413"><g transform="translate(0.65 0.65)"><g transform="translate(0 0)"><path d="M2239.475,377.443v4.722h-28.938v-17.05a2.31,2.31,0,0,1,2.311-2.31h19.325" transform="translate(-2210.536 -349.788)" fill="none" stroke="#666" stroke-linecap="round" stroke-linejoin="round" stroke-width="1.3"/><path d="M0,0H1.356A1.381,1.381,0,0,1,2.737,1.381v0A1.381,1.381,0,0,1,1.356,2.761H0a0,0,0,0,1,0,0V0A0,0,0,0,1,0,0Z" transform="translate(27.277 32.376) rotate(90)" fill="none" stroke="#666" stroke-linecap="round" stroke-linejoin="round" stroke-width="1.3"/><path d="M0,0H1.356A1.381,1.381,0,0,1,2.737,1.381v0A1.381,1.381,0,0,1,1.356,2.761H0a0,0,0,0,1,0,0V0A0,0,0,0,1,0,0Z" transform="translate(4.422 32.376) rotate(90)" fill="none" stroke="#666" stroke-linecap="round" stroke-linejoin="round" stroke-width="1.3"/><path d="M2235.6,340.268h-14.333a2.617,2.617,0,0,0,0,5.234v7.782H2235.6V345.5a2.617,2.617,0,0,0,0-5.234Z" transform="translate(-2213.964 -340.268)" fill="none" stroke="#666" stroke-linecap="round" stroke-linejoin="round" stroke-width="1.3"/><g transform="translate(10.302 2.341)"><line x1="2.883" y2="2.883" fill="none" stroke="#666" stroke-linecap="round" stroke-linejoin="round" stroke-width="1.3"/><line x1="5.09" y2="5.09" transform="translate(0.713 0.713)" stroke-width="1.3" stroke="#666" stroke-linecap="round" stroke-linejoin="round" fill="none"/><line x1="5.09" y2="5.09" transform="translate(2.53 2.53)" stroke-width="1.3" stroke="#666" stroke-linecap="round" stroke-linejoin="round" fill="none"/><line x1="2.883" y2="2.883" transform="translate(5.451 5.451)" stroke-width="1.3" stroke="#666" stroke-linecap="round" stroke-linejoin="round" fill="none"/></g><line x2="28.939" transform="translate(0 27.654)" stroke-width="1.3" stroke="#666" stroke-linecap="round" stroke-linejoin="round" fill="none"/><path d="M2216.224,374.887v-5.133a1.261,1.261,0,0,1,1.261-1.262h2.062" transform="translate(-2212.939 -352.191)" fill="none" stroke="#666" stroke-linecap="round" stroke-linejoin="round" stroke-width="1.3"/></g><g transform="translate(23.948 5.186)"><circle cx="7.819" cy="7.819" r="7.819" transform="translate(0 4.249)" fill="none" stroke="#666" stroke-linecap="round" stroke-linejoin="round" stroke-width="1.3"/><rect width="4.196" height="2.006" transform="translate(5.722 0)" stroke-width="1.3" stroke="#666" stroke-linecap="round" stroke-linejoin="round" fill="none"/><line y1="4.908" transform="translate(7.82 7.16)" stroke-width="1.3" stroke="#666" stroke-linecap="round" stroke-linejoin="round" fill="none"/><line x2="3.151" transform="translate(4.669 12.068)" stroke-width="1.3" stroke="#666" stroke-linecap="round" stroke-linejoin="round" fill="none"/><line y1="2.243" transform="translate(7.82 2.006)" stroke-width="1.3" stroke="#666" stroke-linecap="round" stroke-linejoin="round" fill="none"/></g></g></svg>