<svg xmlns="http://www.w3.org/2000/svg" width="44.129" height="38.651" viewBox="0 0 44.129 38.651"><g transform="translate(0.65 0.849)"><path d="M2364.257,380.8h8.9V365.734a3.266,3.266,0,1,0,0-6.532h-17.888a3.266,3.266,0,0,0,0,6.532v2.417" transform="translate(-2333.59 -348.267)" fill="none" stroke="#666" stroke-linecap="round" stroke-linejoin="round" stroke-width="1.3"/><g transform="translate(25.418 16.726)"><line x1="3.598" y2="3.598" fill="none" stroke="#666" stroke-linecap="round" stroke-linejoin="round" stroke-width="1.3"/><line x1="5.444" y2="5.444" transform="translate(1.799 0.89)" stroke-width="1.3" stroke="#666" stroke-linecap="round" stroke-linejoin="round" fill="none"/><line x1="4.99" y2="4.99" transform="translate(4.521 3.158)" stroke-width="1.3" stroke="#666" stroke-linecap="round" stroke-linejoin="round" fill="none"/><line x1="3.598" y2="3.598" transform="translate(6.803 6.803)" stroke-width="1.3" stroke="#666" stroke-linecap="round" stroke-linejoin="round" fill="none"/></g><g transform="translate(24.704 0)"><path d="M2380.766,340.268a2.038,2.038,0,0,1,0,3.578,2.038,2.038,0,0,0,0,3.578" transform="translate(-2369.998 -340.268)" fill="none" stroke="#666" stroke-linecap="round" stroke-linejoin="round" stroke-width="1.3"/><path d="M2372.429,340.268a2.039,2.039,0,0,1,0,3.578,2.038,2.038,0,0,0,0,3.578" transform="translate(-2366.476 -340.268)" fill="none" stroke="#666" stroke-linecap="round" stroke-linejoin="round" stroke-width="1.3"/><path d="M2363.96,340.268a2.038,2.038,0,0,1,0,3.578,2.038,2.038,0,0,0,0,3.578" transform="translate(-2362.898 -340.268)" fill="none" stroke="#666" stroke-linecap="round" stroke-linejoin="round" stroke-width="1.3"/></g><circle cx="7.803" cy="7.803" r="7.803" transform="translate(6.377 21.547)" fill="none" stroke="#666" stroke-linecap="round" stroke-linejoin="round" stroke-width="1.3"/><circle cx="2.742" cy="2.742" r="2.742" transform="translate(11.438 26.607)" fill="none" stroke="#666" stroke-linecap="round" stroke-linejoin="round" stroke-width="1.3"/><path d="M2348.484,385.378s-6.349,7.8-14.18,7.8-14.18-7.8-14.18-7.8,6.348-7.8,14.18-7.8S2348.484,385.378,2348.484,385.378Z" transform="translate(-2320.124 -356.028)" fill="none" stroke="#666" stroke-linecap="round" stroke-linejoin="round" stroke-width="1.3"/></g></svg>