<svg xmlns="http://www.w3.org/2000/svg" width="30.687" height="30.523" viewBox="0 0 30.687 30.523"><g transform="translate(0.682 0.849)"><g transform="translate(8.746 0)"><path d="M2463.8,345.262a2.039,2.039,0,0,1,0,3.578,2.038,2.038,0,0,0,0,3.578" transform="translate(-2453.029 -345.262)" fill="none" stroke="#666" stroke-linecap="round" stroke-linejoin="round" stroke-width="1.3"/><path d="M2455.46,345.262a2.038,2.038,0,0,1,0,3.578,2.038,2.038,0,0,0,0,3.578" transform="translate(-2449.507 -345.262)" fill="none" stroke="#666" stroke-linecap="round" stroke-linejoin="round" stroke-width="1.3"/><path d="M2446.991,345.262a2.038,2.038,0,0,1,0,3.578,2.039,2.039,0,0,0,0,3.578" transform="translate(-2445.929 -345.262)" fill="none" stroke="#666" stroke-linecap="round" stroke-linejoin="round" stroke-width="1.3"/></g><g transform="translate(0 10.984)"><path d="M2445.446,382.32c-12.517,0-15.375-5.762-14.521-9.271,1.213-4.984,7.958-8.767,14.521-8.767s13.31,3.784,14.522,8.767C2460.822,376.558,2457.964,382.32,2445.446,382.32Z" transform="translate(-2430.786 -364.281)" fill="none" stroke="#666" stroke-linecap="round" stroke-linejoin="round" stroke-width="1.3"/><path d="M2445.608,366.173c4.871.9,9.384,3,12.2,6.809" transform="translate(-2437.048 -365.08)" fill="none" stroke="#666" stroke-linecap="round" stroke-linejoin="round" stroke-width="1.3"/><path d="M2457.808,366.173c-4.871.9-9.385,3-12.2,6.809" transform="translate(-2437.048 -365.08)" fill="none" stroke="#666" stroke-linecap="round" stroke-linejoin="round" stroke-width="1.3"/></g></g></svg>