<svg xmlns="http://www.w3.org/2000/svg" width="33.071" height="35.118" viewBox="0 0 33.071 35.118"><g transform="translate(0.65 0.65)"><path d="M0,0H10.462a0,0,0,0,1,0,0V2.987A5.231,5.231,0,0,1,5.231,8.217h0A5.231,5.231,0,0,1,0,2.987V0A0,0,0,0,1,0,0Z" transform="translate(18.258 19.148)" fill="none" stroke="#666" stroke-linecap="round" stroke-linejoin="round" stroke-width="1.3"/><path d="M1185.54,216.278h1.973a1.077,1.077,0,0,1,1.078,1.082c-.012,1.548-.35,3.425-3.409,3.607" transform="translate(-1156.82 -195.975)" fill="none" stroke="#666" stroke-linecap="round" stroke-linejoin="round" stroke-width="1.3"/><line x1="10.462" transform="translate(18.258 27.365)" stroke-width="1.3" stroke="#666" stroke-linecap="round" stroke-linejoin="round" fill="none"/><g transform="translate(7.991 0)"><path d="M1149.911,190.184a3.048,3.048,0,0,0,5.918-1.027c0-3.121-2-4.942-5.918-3.264v-4.769h5.363" transform="translate(-1149.911 -181.124)" fill="none" stroke="#666" stroke-linecap="round" stroke-linejoin="round" stroke-width="1.3"/><path d="M1164.844,190.184a3.048,3.048,0,0,0,5.918-1.027c0-3.121-2-4.942-5.918-3.264v-4.769h5.362" transform="translate(-1156.219 -181.124)" fill="none" stroke="#666" stroke-linecap="round" stroke-linejoin="round" stroke-width="1.3"/><path d="M1180.1,196.076a2.307,2.307,0,0,0,1.679.651c1.125,0,2.036-.672,2.036-1.5s-.614-1.5-1.956-1.5-2.037-.673-2.037-1.5.911-1.5,2.037-1.5a2.3,2.3,0,0,1,1.678.652" transform="translate(-1162.547 -185.177)" fill="none" stroke="#666" stroke-linecap="round" stroke-linejoin="round" stroke-width="1.3"/></g><path d="M1160.809,225.489a7.027,7.027,0,1,1-4.413-9.9" transform="translate(-1140.892 -195.575)" fill="none" stroke="#666" stroke-linecap="round" stroke-linejoin="round" stroke-width="1.3"/><rect width="3.773" height="1.803" transform="translate(11.731 15.937)" stroke-width="1.3" stroke="#666" stroke-linecap="round" stroke-linejoin="round" fill="none"/><line y1="4.413" transform="translate(13.617 22.374)" stroke-width="1.3" stroke="#666" stroke-linecap="round" stroke-linejoin="round" fill="none"/><line x2="2.833" transform="translate(10.592 26.788)" stroke-width="1.3" stroke="#666" stroke-linecap="round" stroke-linejoin="round" fill="none"/><line x1="4.028" transform="translate(1.174 22.598)" stroke-width="1.3" stroke="#666" stroke-linecap="round" stroke-linejoin="round" fill="none"/><line x1="4.028" transform="translate(0 26.788)" stroke-width="1.3" stroke="#666" stroke-linecap="round" stroke-linejoin="round" fill="none"/><line x1="4.028" transform="translate(1.174 30.978)" stroke-width="1.3" stroke="#666" stroke-linecap="round" stroke-linejoin="round" fill="none"/><line y1="2.017" transform="translate(13.617 17.74)" stroke-width="1.3" stroke="#666" stroke-linecap="round" stroke-linejoin="round" fill="none"/></g></svg>