<svg xmlns="http://www.w3.org/2000/svg" width="47.191" height="35.343" viewBox="0 0 47.191 35.343"><g transform="translate(0.831 0.875)"><g transform="translate(0 0)"><path d="M1309.078,183.039a2.888,2.888,0,0,1,5.608.973c0,2.073-3.132,4.78-5.608,8.663h5.608" transform="translate(-1309.078 -181.124)" fill="none" stroke="#666" stroke-linecap="round" stroke-linejoin="round" stroke-width="1.3"/><path d="M1326.227,181.124l-4.3,8.381h6.772" transform="translate(-1314.505 -181.124)" fill="none" stroke="#666" stroke-linecap="round" stroke-linejoin="round" stroke-width="1.3"/><line y2="6.341" transform="translate(12.802 5.211)" stroke-width="1.3" stroke="#666" stroke-linecap="round" stroke-linejoin="round" fill="none"/><path d="M1339.073,189.78a2.895,2.895,0,0,0,5.79,0v-5.762a2.895,2.895,0,0,0-5.79,0Z" transform="translate(-1321.749 -181.124)" fill="none" stroke="#666" stroke-linecap="round" stroke-linejoin="round" stroke-width="1.3"/><path d="M1354.857,189.78a2.895,2.895,0,0,0,5.79,0v-5.762a2.895,2.895,0,0,0-5.79,0Z" transform="translate(-1328.417 -181.124)" fill="none" stroke="#666" stroke-linecap="round" stroke-linejoin="round" stroke-width="1.3"/><path d="M1372.93,190.146l2.583,6.322,1.8-4.394,1.776,4.348,2.48-6.071" transform="translate(-1336.052 -184.935)" fill="none" stroke="#666" stroke-linecap="round" stroke-linejoin="round" stroke-width="1.3"/></g><path d="M0,0H6.394a0,0,0,0,1,0,0V2.331a3.2,3.2,0,0,1-3.2,3.2h0A3.2,3.2,0,0,1,0,2.331V0A0,0,0,0,1,0,0Z" transform="translate(17.022 24.382)" fill="none" stroke="#666" stroke-linecap="round" stroke-linejoin="round" stroke-width="1.3"/><path d="M1337.706,223.01v3.909a8.722,8.722,0,1,0-6.943-3.443" transform="translate(-1317.487 -193.101)" fill="none" stroke="#666" stroke-linecap="round" stroke-linejoin="round" stroke-width="1.3"/><line y1="3.576" transform="translate(21.897 20.806)" stroke-width="1.3" stroke="#666" stroke-linecap="round" stroke-linejoin="round" fill="none"/><line y1="3.576" transform="translate(18.541 20.806)" stroke-width="1.3" stroke="#666" stroke-linecap="round" stroke-linejoin="round" fill="none"/><line x2="0.931" transform="translate(19.753 27.145)" stroke-width="1.3" stroke="#666" stroke-linecap="round" stroke-linejoin="round" fill="none"/></g></svg>