<svg xmlns="http://www.w3.org/2000/svg" width="63.931" height="54.087" viewBox="0 0 63.931 54.087"><g transform="translate(-3806 -1333.709)"><path d="M2532.06,388.15v8.176h-50.1V366.8a4,4,0,0,1,4-4h27.461" transform="translate(1325.045 985.732)" fill="none" stroke="#666" stroke-linecap="round" stroke-linejoin="round" stroke-width="2"/><path d="M0,0H2.348a2.39,2.39,0,0,1,2.39,2.39v0a2.39,2.39,0,0,1-2.39,2.39H0a0,0,0,0,1,0,0V0A0,0,0,0,1,0,0Z" transform="translate(3854.229 1382.058) rotate(90)" fill="none" stroke="#666" stroke-linecap="round" stroke-linejoin="round" stroke-width="2"/><path d="M0,0H2.348a2.39,2.39,0,0,1,2.39,2.39v0a2.39,2.39,0,0,1-2.39,2.39H0a0,0,0,0,1,0,0V0A0,0,0,0,1,0,0Z" transform="translate(3814.656 1382.058) rotate(90)" fill="none" stroke="#666" stroke-linecap="round" stroke-linejoin="round" stroke-width="2"/><line x2="50.106" transform="translate(3807 1373.882)" fill="none" stroke="#666" stroke-linecap="round" stroke-linejoin="round" stroke-width="2"/><path d="M2487.643,379.565v-8.888a2.186,2.186,0,0,1,2.186-2.185h3.57" transform="translate(1325.045 985.732)" fill="none" stroke="#666" stroke-linecap="round" stroke-linejoin="round" stroke-width="2"/><g transform="translate(-351.793 96.521)"><path d="M4211.046,215.585a18.922,18.922,0,0,0,12.246,2.924c-.584,5.357-3.253,21.262-12.246,23.395" transform="translate(-2.567 1023)" fill="none" stroke="#666" stroke-linecap="round" stroke-linejoin="round" stroke-width="2"/><path d="M4208.479,215.585a18.923,18.923,0,0,1-12.246,2.924c.585,5.357,3.253,21.262,12.246,23.395" transform="translate(0 1023)" fill="none" stroke="#666" stroke-linecap="round" stroke-linejoin="round" stroke-width="2"/></g><path d="M-13467.895-1461.158v-5.03" transform="translate(17325 2834.464)" fill="none" stroke="#707070" stroke-linecap="round" stroke-width="2"/></g></svg>